<svg width="162" height="156" fill="none" xmlns="http://www.w3.org/2000/svg"><path d="M123.677 93.487c-6.562 24.491-31.748 38.943-56.133 32.409-24.49-6.562-38.942-31.748-32.408-56.133 6.562-24.49 31.747-38.943 56.133-32.409 24.518 6.458 38.97 31.643 32.408 56.133z" fill="#FFEBB7"/><path d="M135.479 96.65c-8.311 31.018-40.21 49.323-71.097 41.048-31.019-8.312-49.324-40.211-41.048-71.098 8.312-31.018 40.211-49.323 71.097-41.047 31.055 8.178 49.36 40.078 41.048 71.097z" fill="#FFEBB7"/><path d="M96.73 17.393C61.25 7.886 24.756 28.955 15.25 64.435c-4.515 16.85-2.225 33.84 5.26 48.185-5.818-13.45-7.426-28.799-3.331-44.08 9.506-35.479 46-56.548 81.479-47.041 18.734 5.02 33.424 17.593 41.725 33.502-7.872-17.925-23.35-32.168-43.654-37.608z" fill="#FFCC49"/><path d="M123.873 92.755c6.618-24.7-8.016-50.045-32.715-56.664-11.198-3-22.577-1.562-32.249 3.137a45.908 45.908 0 0126.956-.965c24.699 6.618 39.333 31.964 32.715 56.663-3.59 13.397-12.78 23.834-24.31 29.606 14.09-4.862 25.48-16.392 29.603-31.777z" fill="#FFCC49"/><path d="M84.14 126.753s.591-3.88 2.883-12.015c2.228-7.479 14.141-46.913 15.732-52.432.196-.733.392-1.465.379-2.254-.005-1.235-.192-2.632-1.448-2.968-4.29-1.15-11.974 14.964-15.847 26.49-3.874 11.525-2.465 24.69-4.163 31.863-1.698 7.172-3.504 11.4-3.504 11.4" fill="#fff"/><path d="M84.14 126.753s.591-3.88 2.883-12.015c2.229-7.479 14.141-46.913 15.732-52.432.197-.733.393-1.465.38-2.254-.006-1.235-.192-2.632-1.448-2.968-4.291-1.15-11.974 14.964-15.848 26.49-3.873 11.525-2.465 24.69-4.163 31.863-1.697 7.172-3.503 11.4-3.503 11.4m-20.2-5.412s6.61-28.852 6.897-30.346c.288-1.493 1.553-3.285 3.39-4.7 1.838-1.415 5.22-3.986 6.11-6.888l.055-.21 5.91-27.918m-11.721-3.14l-8.84 27.132-.056.21c-.681 2.958.857 6.848 1.845 9.02.989 2.171 1.084 4.328.587 5.765-.498 1.437-9.1 28.521-9.1 28.521" stroke="#3F3A3A" stroke-width="1.6" stroke-miterlimit="10" stroke-linecap="round" stroke-linejoin="round"/><path d="M57.724 121.348s6.609-28.852 6.897-30.345c.288-1.494 1.553-3.286 3.39-4.7l.078-.06c1.853-1.426 5.153-3.967 6.03-6.829l.057-.21 5.91-27.917c-2.66-.4-8.727-1.586-11.722-3.141l-8.84 27.133-.056.209c-.68 2.959.857 6.848 1.845 9.02.989 2.172 1.084 4.328.587 5.765-.497 1.438-9.1 28.522-9.1 28.522l4.924 2.553z" fill="#fff"/><path d="M64.81 77.49l7.516-28.049m-3.433 29.143l7.515-28.049m-7.794-2.312l-8.84 27.132-.056.21c-.68 2.958.857 6.847 1.845 9.02.989 2.171 1.084 4.328.587 5.765-.497 1.437-9.1 28.521-9.1 28.521" stroke="#3F3A3A" stroke-width="1.6" stroke-miterlimit="10" stroke-linecap="round" stroke-linejoin="round"/><path d="M32.961 78.715c.11-3.336.636-6.56 1.534-9.91 6.618-24.699 31.964-39.332 56.664-32.714 24.699 6.618 39.333 31.964 32.714 56.664-5.103 19.048-21.277 32.101-39.76 34.103m-5.941-.021c-2.708.059-7.795-.631-10.935-1.472-2.616-.701-6.92-2.64-9.368-3.969" stroke="#3F3A3A" stroke-width="1.6" stroke-miterlimit="10" stroke-linecap="round" stroke-linejoin="round"/><path d="M22.015 115.379c-8.685-14.89-11.665-33.076-6.87-50.972 9.507-35.48 46-56.549 81.48-47.042 35.479 9.507 56.548 46 47.042 81.479-4.908 18.315-16.979 32.804-32.469 41.217" stroke="#3F3A3A" stroke-width="1.6" stroke-miterlimit="10" stroke-linecap="round" stroke-linejoin="round"/><path d="M98.931 61.505s-8.09 12.19-11.314 24.227c-2.833 10.57-2.417 18.646-2.417 18.646l13.731-42.873z" fill="#FFCC49"/><path d="M96.384 65.983s-6.538 10.587-9.962 25.038" stroke="#3F3A3A" stroke-width="1.6" stroke-miterlimit="10" stroke-linecap="round" stroke-linejoin="round"/></svg>