<svg width="195" height="97" fill="none" xmlns="http://www.w3.org/2000/svg"><path d="M41.609 4.605C19.624 4.605 1.35 18.708 1.35 36.6c0 5.11 1.67 8.852 4.501 12.029 2.636 2.959 6.277 5.421 10.379 8.072a24.41 24.41 0 00-.933 6.678c0 8.958 4.908 16.98 12.67 22.727 7.762 5.746 18.434 9.267 30.177 9.267 12.512 0 23.816-4 31.675-10.433 6.63 6.424 16.169 10.434 26.742 10.434 15.536 0 28.873-8.668 33.98-20.955a31.818 31.818 0 0011.312 2.065c8.714 0 16.532-2.43 22.193-7.139 5.684-4.726 9.109-11.681 9.109-20.522 0-17.668-14.298-31.994-31.939-31.994a31.758 31.758 0 00-15.389 3.952c-5.31-2.521-11.408-3.952-17.887-3.952a42.42 42.42 0 00-12.753 1.938C109.844 8.588 99.184 1.642 86.901 1.642c-8.543 0-16.304 3.361-22.034 8.833-6.578-3.703-14.607-5.87-23.258-5.87z" fill="#fff" stroke="#B03797" stroke-width="2.133"/></svg>