<?xml version="1.0" encoding="utf-8"?><svg xmlns="http://www.w3.org/2000/svg" xmlns:xlink="http://www.w3.org/1999/xlink"><symbol fill="none" viewBox="0 0 162 156" id="hero-tablet-plate" xmlns="http://www.w3.org/2000/svg"><path d="M123.677 93.487c-6.562 24.491-31.748 38.943-56.133 32.409-24.49-6.562-38.942-31.748-32.408-56.133 6.562-24.49 31.747-38.943 56.133-32.409 24.518 6.458 38.97 31.643 32.408 56.133z" fill="#FFEBB7"/><path d="M135.479 96.65c-8.311 31.018-40.21 49.323-71.097 41.048-31.019-8.312-49.324-40.211-41.048-71.098 8.312-31.018 40.211-49.323 71.097-41.047 31.055 8.178 49.36 40.078 41.048 71.097z" fill="#FFEBB7"/><path d="M96.73 17.393C61.25 7.886 24.756 28.955 15.25 64.435c-4.515 16.85-2.225 33.84 5.26 48.185-5.818-13.45-7.426-28.799-3.331-44.08 9.506-35.479 46-56.548 81.479-47.041 18.734 5.02 33.424 17.593 41.725 33.502-7.872-17.925-23.35-32.168-43.654-37.608z" fill="#FFCC49"/><path d="M123.873 92.755c6.618-24.7-8.016-50.045-32.715-56.664-11.198-3-22.577-1.562-32.249 3.137a45.908 45.908 0 0126.956-.965c24.699 6.618 39.333 31.964 32.715 56.663-3.59 13.397-12.78 23.834-24.31 29.606 14.09-4.862 25.48-16.392 29.603-31.777z" fill="#FFCC49"/><path d="M84.14 126.753s.591-3.88 2.883-12.015c2.228-7.479 14.141-46.913 15.732-52.432.196-.733.392-1.465.379-2.254-.005-1.235-.192-2.632-1.448-2.968-4.29-1.15-11.974 14.964-15.847 26.49-3.874 11.525-2.465 24.69-4.163 31.863-1.698 7.172-3.504 11.4-3.504 11.4" fill="#fff"/><path d="M84.14 126.753s.591-3.88 2.883-12.015c2.229-7.479 14.141-46.913 15.732-52.432.197-.733.393-1.465.38-2.254-.006-1.235-.192-2.632-1.448-2.968-4.291-1.15-11.974 14.964-15.848 26.49-3.873 11.525-2.465 24.69-4.163 31.863-1.697 7.172-3.503 11.4-3.503 11.4m-20.2-5.412s6.61-28.852 6.897-30.346c.288-1.493 1.553-3.285 3.39-4.7 1.838-1.415 5.22-3.986 6.11-6.888l.055-.21 5.91-27.918m-11.721-3.14l-8.84 27.132-.056.21c-.681 2.958.857 6.848 1.845 9.02.989 2.171 1.084 4.328.587 5.765-.498 1.437-9.1 28.521-9.1 28.521" stroke="#3F3A3A" stroke-width="1.6" stroke-miterlimit="10" stroke-linecap="round" stroke-linejoin="round"/><path d="M57.724 121.348s6.609-28.852 6.897-30.345c.288-1.494 1.553-3.286 3.39-4.7l.078-.06c1.853-1.426 5.153-3.967 6.03-6.829l.057-.21 5.91-27.917c-2.66-.4-8.727-1.586-11.722-3.141l-8.84 27.133-.056.209c-.68 2.959.857 6.848 1.845 9.02.989 2.172 1.084 4.328.587 5.765-.497 1.438-9.1 28.522-9.1 28.522l4.924 2.553z" fill="#fff"/><path d="M64.81 77.49l7.516-28.049m-3.433 29.143l7.515-28.049m-7.794-2.312l-8.84 27.132-.056.21c-.68 2.958.857 6.847 1.845 9.02.989 2.171 1.084 4.328.587 5.765-.497 1.437-9.1 28.521-9.1 28.521" stroke="#3F3A3A" stroke-width="1.6" stroke-miterlimit="10" stroke-linecap="round" stroke-linejoin="round"/><path d="M32.961 78.715c.11-3.336.636-6.56 1.534-9.91 6.618-24.699 31.964-39.332 56.664-32.714 24.699 6.618 39.333 31.964 32.714 56.664-5.103 19.048-21.277 32.101-39.76 34.103m-5.941-.021c-2.708.059-7.795-.631-10.935-1.472-2.616-.701-6.92-2.64-9.368-3.969" stroke="#3F3A3A" stroke-width="1.6" stroke-miterlimit="10" stroke-linecap="round" stroke-linejoin="round"/><path d="M22.015 115.379c-8.685-14.89-11.665-33.076-6.87-50.972 9.507-35.48 46-56.549 81.48-47.042 35.479 9.507 56.548 46 47.042 81.479-4.908 18.315-16.979 32.804-32.469 41.217" stroke="#3F3A3A" stroke-width="1.6" stroke-miterlimit="10" stroke-linecap="round" stroke-linejoin="round"/><path d="M98.931 61.505s-8.09 12.19-11.314 24.227c-2.833 10.57-2.417 18.646-2.417 18.646l13.731-42.873z" fill="#FFCC49"/><path d="M96.384 65.983s-6.538 10.587-9.962 25.038" stroke="#3F3A3A" stroke-width="1.6" stroke-miterlimit="10" stroke-linecap="round" stroke-linejoin="round"/></symbol><symbol viewBox="0 0 8 6" id="icon-arrow" xmlns="http://www.w3.org/2000/svg"><path d="M4 5.333L.464 1.797 1.644.62 4 2.977 6.357.619l1.179 1.178L4 5.333z"/></symbol><symbol viewBox="0 0 14 14" id="icon-arrow-right" xmlns="http://www.w3.org/2000/svg"><path d="M10.477 6.167l-4.47-4.47L7.185.518 13.667 7l-6.482 6.482-1.178-1.179 4.47-4.47H.333V6.167h10.144z"/></symbol><symbol fill="none" viewBox="0 0 64 64" id="icon-birthday-camera" xmlns="http://www.w3.org/2000/svg"><g clip-path="url(#dclip0_887:5916)"><path d="M31.186 14.457h9.949v9.859h-9.949v-9.859zM11.373 29.55h-2.35a3.08 3.08 0 01-3.08-3.08v-1.5a3.08 3.08 0 013.08-3.08h2.35a3.08 3.08 0 013.08 3.08v1.5a3.08 3.08 0 01-3.08 3.08z" fill="#EE7FD7"/><path d="M54.233 27.892h-5.72l-.597-3.05a3.695 3.695 0 00-3.626-2.984H27.753a3.695 3.695 0 00-3.627 2.992l-.59 3.042h-6.462a3.35 3.35 0 00-2.818-1.539H6.139a3.353 3.353 0 00-3.353 3.353v29.677a3.353 3.353 0 003.353 3.352h48.094a4.61 4.61 0 004.61-4.61V32.502a4.611 4.611 0 00-4.61-4.61z" fill="#B03797"/><path d="M54.233 27.892h-5.72l-.495 1.028c.102.33.157.68.157 1.043v19.51a3.51 3.51 0 01-3.51 3.511H17.608V29.706a3.353 3.353 0 00-3.352-3.353H9.88a2.437 2.437 0 012.437 2.437v25.02a2.437 2.437 0 01-2.437 2.437H5.223a2.437 2.437 0 01-2.437-2.437v5.574a3.353 3.353 0 003.353 3.352h48.094a4.61 4.61 0 004.61-4.61V32.502a4.61 4.61 0 00-4.61-4.61z" fill="#B03797"/><path d="M36.16 57.392c6.93 0 12.546-5.617 12.546-12.546 0-6.929-5.617-12.545-12.546-12.545-6.928 0-12.545 5.616-12.545 12.545s5.617 12.546 12.545 12.546z" fill="#EE7FD7"/><path d="M36.16 52.531a7.685 7.685 0 100-15.37 7.685 7.685 0 000 15.37z" fill="#CFECFA"/><path d="M32.253 46.735a5.796 5.796 0 0111.525-.886 7.685 7.685 0 10-6.615 6.615 5.798 5.798 0 01-4.91-5.73zm12.636-29.834H27.432a2.686 2.686 0 01-2.686-2.685V7.98a2.686 2.686 0 012.686-2.686h17.457a2.686 2.686 0 012.685 2.686v6.235A2.686 2.686 0 0144.89 16.9z" fill="#B03797"/><path d="M43.32 13.664H29a1.012 1.012 0 01-1.013-1.012V9.545c0-.559.453-1.012 1.012-1.012h14.322c.559 0 1.012.453 1.012 1.012v3.107c0 .559-.453 1.012-1.012 1.012zM8.795 7.323l1.039 2.921a.469.469 0 00.244.275l2.595 1.17c.367.164.367.749 0 .914l-2.595 1.17a.463.463 0 00-.244.273l-1.04 2.922c-.146.413-.665.413-.812 0l-1.039-2.922a.468.468 0 00-.243-.274l-2.596-1.17c-.367-.165-.367-.749 0-.914l2.596-1.17a.47.47 0 00.243-.274l1.04-2.92c.146-.414.665-.414.812 0zM17.918.23l.771 2.167a.349.349 0 00.18.203l1.926.868c.272.122.272.555 0 .678l-1.925.867a.347.347 0 00-.181.204l-.77 2.167c-.11.306-.495.306-.603 0l-.771-2.167a.348.348 0 00-.18-.204l-1.926-.867c-.272-.122-.272-.556 0-.678l1.925-.868a.347.347 0 00.181-.203l.77-2.167c.11-.306.494-.306.603 0z" fill="#FEC926"/><path d="M56.346 3.638a2.268 2.268 0 10-4.415-1.043 2.268 2.268 0 004.415 1.043zM4.955 4.981a.979.979 0 10-1.932-.313.979.979 0 001.932.313z" fill="#E6AE00"/><path d="M59.398 12.457l.77 2.166a.348.348 0 00.181.204l1.926.867c.272.123.272.556 0 .679l-1.926.867a.348.348 0 00-.18.204l-.771 2.167c-.109.306-.494.306-.603 0l-.77-2.167a.348.348 0 00-.181-.204l-1.926-.867c-.272-.123-.272-.556 0-.679l1.926-.867a.348.348 0 00.18-.204l.771-2.166c.109-.307.494-.307.603 0z" fill="#FEC926"/><path d="M54.233 26.627h-4.68l-.396-2.027a4.97 4.97 0 00-4.867-4.007H42.4v-2.427h2.49a3.955 3.955 0 003.95-3.95V7.98a3.955 3.955 0 00-3.95-3.95H27.431a3.955 3.955 0 00-3.95 3.95v6.235a3.955 3.955 0 003.95 3.95h2.49v2.427h-2.169a4.967 4.967 0 00-4.869 4.017l-.39 2.017h-4.801a4.63 4.63 0 00-1.976-1.3v-.357a4.35 4.35 0 00-4.345-4.345h-2.35a4.35 4.35 0 00-4.345 4.345v.357a4.625 4.625 0 00-3.156 4.379v29.677A4.623 4.623 0 006.14 64h48.093a5.882 5.882 0 005.876-5.875V32.502a5.882 5.882 0 00-5.876-5.875zM26.011 14.216V7.98c0-.783.638-1.42 1.421-1.42H44.89c.784 0 1.42.637 1.42 1.42v6.235c0 .783-.636 1.42-1.42 1.42H27.432c-.783 0-1.42-.637-1.42-1.42zm6.44 3.95h7.42v2.427h-7.42v-2.427zm-8.914 10.99c.606 0 1.127-.429 1.242-1.024l.589-3.041a2.434 2.434 0 012.385-1.968H44.29c1.159 0 2.162.826 2.385 1.963l.597 3.049a1.265 1.265 0 001.24 1.022h5.721a3.35 3.35 0 013.346 3.345v3.383H47.095c-2.596-3.162-6.533-5.182-10.934-5.182-4.4 0-8.338 2.02-10.934 5.182h-6.353v-6.179c0-.186-.013-.369-.034-.55h4.697zm12.624 4.076c6.404 0 11.614 5.21 11.614 11.614 0 6.404-5.21 11.614-11.614 11.614-6.405 0-11.615-5.21-11.615-11.614 0-6.404 5.21-11.614 11.615-11.614zM9.022 23.155h2.35c1.002 0 1.816.814 1.816 1.815v.119h-5.98v-.119c0-1 .813-1.815 1.814-1.815zM4.051 59.382V29.706a2.09 2.09 0 012.088-2.088h8.117a2.09 2.09 0 012.088 2.088v29.677a2.09 2.09 0 01-2.088 2.087H6.139a2.09 2.09 0 01-2.088-2.087zm50.182 2.088h-35.86a4.59 4.59 0 00.5-2.088v-21.98h5.267a14.057 14.057 0 00-2.123 7.444c0 7.799 6.345 14.144 14.144 14.144s14.143-6.345 14.143-14.144c0-2.73-.778-5.28-2.122-7.444h9.397v20.723a3.35 3.35 0 01-3.346 3.345z" fill="#3F3A3A"/><path d="M36.16 53.29c4.657 0 8.445-3.788 8.445-8.444 0-4.656-3.788-8.444-8.444-8.444-4.656 0-8.444 3.788-8.444 8.444 0 4.656 3.788 8.444 8.444 8.444zm0-15.37a6.934 6.934 0 016.927 6.926 6.934 6.934 0 01-6.926 6.926 6.934 6.934 0 01-6.927-6.926 6.934 6.934 0 016.927-6.926zm8.933-28.375c0-.976-.795-1.77-1.771-1.77H29c-.977 0-1.771.794-1.771 1.77v3.107c0 .976.794 1.77 1.77 1.77h14.323c.976 0 1.77-.794 1.77-1.77V9.545zm-1.518 3.107c0 .14-.114.253-.253.253H29a.253.253 0 01-.253-.253V9.545c0-.14.113-.253.253-.253h14.322c.14 0 .253.113.253.253v3.107z" fill="#3F3A3A"/><path d="M7.181 42.718h-.033a1.265 1.265 0 01-1.232-1.297c.043-1.676.043-3.17 0-4.843a1.265 1.265 0 012.529-.065 93.678 93.678 0 010 4.973 1.265 1.265 0 01-1.264 1.232zm-.001-9.21a1.265 1.265 0 01-1.264-1.265v-.473a1.265 1.265 0 112.529 0v.473c0 .698-.566 1.265-1.265 1.265zm32.303 14.664a2.362 2.362 0 10-3.341-3.34 2.362 2.362 0 003.341 3.34z" fill="#fff"/></g><defs><clipPath id="dclip0_887:5916"><path fill="#fff" d="M0 0h64v64H0z"/></clipPath></defs></symbol><symbol fill="none" viewBox="0 0 64 64" id="icon-birthday-food" xmlns="http://www.w3.org/2000/svg"><path d="M39.434 50.133l12.204-8.718a3.093 3.093 0 014.454.927 3.093 3.093 0 01-.863 4.117L42.276 57.195a6.397 6.397 0 01-4.083 1.472H11.7v-12.8l5.213-4.345a4.268 4.268 0 012.732-.989h13.922a2.666 2.666 0 110 5.334h-6.934a2.133 2.133 0 100 4.266h12.8z" fill="#FEC9A3"/><path d="M11.7 44.8H0v18.133h11.7V44.8z" fill="#009EE3"/><path d="M5.334 58.667a2.133 2.133 0 100-4.267 2.133 2.133 0 000 4.267z" fill="#E5E5E5"/><path d="M1.066 34.133h61.867a6.4 6.4 0 01-6.4 6.4H7.466a6.4 6.4 0 01-6.4-6.4z" fill="#A3A3A3"/><path d="M58.667 34.133H5.333v-1.066C5.334 18.339 17.273 6.4 32 6.4c14.728 0 26.667 11.94 26.667 26.667v1.066z" fill="#E5E5E5"/><path d="M14.187 21.342l-1.78-1.173a23.663 23.663 0 012.052-2.667l1.594 1.416a21.65 21.65 0 00-1.867 2.424zm3.219-3.822l-1.46-1.554A23.368 23.368 0 0132 9.6v2.133a21.244 21.244 0 00-14.594 5.787z" fill="#fff"/><path d="M35.2 0h-6.4v2.133h2.133V6.4h2.133V2.133H35.2V0z" fill="#A3A3A3"/><path d="M47.521 34.133a69.829 69.829 0 01-18.828 6.4h27.84a6.4 6.4 0 006.4-6.4H47.521z" fill="#C9C9C9"/><path d="M58.666 33.067a26.588 26.588 0 00-8.365-19.386c-7.482 10.678-21.027 17.057-30.663 20.452h39.028v-1.066z" fill="#DEDEDE"/><path d="M56.246 42.667a2.945 2.945 0 00-.154-.32 3.094 3.094 0 00-4.454-.927l-1.751 1.247h6.36zm-20.067 0a2.666 2.666 0 00-2.612-2.134H19.645c-.999 0-1.965.35-2.732.989l-1.373 1.145h20.639z" fill="#F7BB8F"/><path d="M8.533 56.533a3.2 3.2 0 10-6.4 0 3.2 3.2 0 006.4 0zm-4.266 0a1.067 1.067 0 112.134.001 1.067 1.067 0 01-2.134 0z" fill="#3F3A3A"/><path d="M62.933 33.067h-3.2C59.715 18.174 47.95 5.947 33.067 5.36V2.133H35.2V0h-6.4v2.133h2.133V5.36C16.051 5.948 4.285 18.174 4.267 33.067h-3.2c-.59 0-1.067.477-1.067 1.066A7.475 7.475 0 007.467 41.6h7.686l-2.829 2.357a1.045 1.045 0 00-.624-.224H0v2.134h10.634v16H0V64h11.7c.589 0 1.067-.478 1.067-1.067v-3.2h25.426a7.477 7.477 0 004.764-1.718l12.89-10.686a4.182 4.182 0 001.159-5.536c-.045-.076-.107-.137-.157-.213A7.466 7.466 0 0064 34.133c0-.589-.478-1.066-1.067-1.066zM32 7.467c14.131.016 25.584 11.468 25.6 25.6H6.4C6.416 18.936 17.869 7.483 32 7.467zm22.548 38.171L41.6 56.373a5.346 5.346 0 01-3.407 1.227H12.767V46.367l4.833-4.02a3.21 3.21 0 012.048-.747h13.919a1.6 1.6 0 010 3.2h-6.933a3.2 3.2 0 100 6.4h12.8c.221 0 .439-.07.62-.2l12.204-8.716a2.027 2.027 0 012.92.607c.545.938.27 2.14-.63 2.747zM36.926 41.6h12.62l-10.454 7.467H26.634a1.067 1.067 0 010-2.134h6.933A3.733 3.733 0 0037.3 43.2a3.698 3.698 0 00-.374-1.6zm19.607-2.133H7.467A5.342 5.342 0 012.24 35.2h59.52a5.342 5.342 0 01-5.227 4.267z" fill="#3F3A3A"/><path d="M12.405 20.166l1.78 1.174a21.703 21.703 0 011.867-2.43l-1.595-1.417a23.62 23.62 0 00-2.052 2.673zm5.001-2.646A21.245 21.245 0 0132 11.733V9.6a23.368 23.368 0 00-16.054 6.366l1.46 1.554z" fill="#3F3A3A"/></symbol><symbol fill="none" viewBox="0 0 99 36" id="icon-family-flag" xmlns="http://www.w3.org/2000/svg"><path fill-rule="evenodd" clip-rule="evenodd" d="M40.994 33.554c-.978-1.63-2.021-3.13-2.869-4.759-1.955-3.52-3.91-7.105-5.867-10.626a3.036 3.036 0 01-.195-.586c.391.065.782.065 1.108.13 4.042.782 8.083 1.304 12.19 1.37 1.956.064 3.977.064 5.932.13.391 0 .913-.13 1.239.39-.065.196-.13.522-.326.718-.848 1.108-1.63 2.281-2.477 3.324a574.423 574.423 0 01-5.998 7.04l-2.15 2.347c-.196.26-.327.326-.587.522zm32.202-18.318c2.021-.847 3.846-1.499 5.606-2.281a80.147 80.147 0 005.346-2.543c1.695-.847 3.39-1.825 5.02-2.737.39.195.195.521.195.782-.261 2.803-.717 5.54-1.239 8.279-.326 1.89-.587 3.78-.847 5.736-.065.587-.196 1.108-.326 1.76-.391-.13-.652-.13-.913-.26a31.21 31.21 0 01-2.477-1.5c-1.108-.782-2.151-1.63-3.194-2.477-1.956-1.565-4.042-2.999-6.258-4.107-.196-.195-.456-.391-.913-.652z" fill="#FFCC49"/><path fill-rule="evenodd" clip-rule="evenodd" d="M71.306 15.953c0 .261.065.392 0 .522-1.826 5.084-3.65 10.17-5.541 15.319-.326-.196-.587-.26-.783-.456-.977-1.043-1.955-2.021-2.803-3.13-1.238-1.499-2.412-3.128-3.65-4.693-.848-1.108-1.76-2.151-2.673-3.26-.26-.26-.456-.586-.717-.912.391-.456.848-.326 1.239-.326 3.26-.195 6.453-.652 9.582-1.5 1.37-.39 2.738-.847 4.107-1.303.456-.065.848-.13 1.239-.26zm-57.691-3.585c.196.065.457.13.652.26 2.999 1.5 6.128 2.478 9.387 3.195l5.671 1.173c.196.065.326.065.652.196-.456.652-1.108.912-1.564 1.369-.457.521-.978.912-1.5 1.369-.456.39-.977.782-1.434 1.238-.521.457-.977.913-1.499 1.37-.456.455-.913.977-1.369 1.433-.456.522-.913.978-1.304 1.5-.39.456-.782.977-1.238 1.434-.456.521-.848 1.043-1.5 1.499-.195-.26-.325-.456-.39-.652-.261-.782-.457-1.564-.718-2.347a2627.003 2627.003 0 00-3.715-11.864c-.066-.326-.392-.717-.13-1.173z" fill="#B03797"/><path fill-rule="evenodd" clip-rule="evenodd" d="M29.325 16.605c-2.15 1.956-4.237 3.912-6.388 5.867-1.5 1.304-4.237 3.194-4.694 5.215a.432.432 0 00.652.456c1.89-1.043 3.52-3.194 5.15-4.628 2.151-1.89 4.498-3.911 6.258-6.193.391-.586-.456-1.108-.978-.717z" fill="#88116F"/><path fill-rule="evenodd" clip-rule="evenodd" d="M52.336 18.756c-2.672 1.565-4.172 4.89-6.192 7.106-1.89 2.086-5.02 4.172-5.411 7.17-.065.457.522.587.782.327 4.498-3.912 8.084-9.062 11.604-13.885.326-.457-.326-.978-.783-.718z" fill="#E6AE00"/><path fill-rule="evenodd" clip-rule="evenodd" d="M71.11 16.018c-1.63 1.434-2.282 3.912-2.868 5.932-.978 3.325-2.738 6.389-3.39 9.779-.13.521.652.912.847.39 1.174-2.477 2.152-5.084 3.064-7.626.522-1.37.913-2.803 1.37-4.237.52-1.565 1.303-2.478 1.303-4.107 0-.13-.196-.261-.326-.13z" fill="#88116F"/><path fill-rule="evenodd" clip-rule="evenodd" d="M89.428 7.675c-.13-.522-.913-.391-.913.13 0 5.41-2.412 10.626-2.607 16.036 0 .522.652.587.912.26 1.63-2.15 1.5-5.735 1.956-8.343.521-2.673 1.5-5.41.652-8.083z" fill="#E6AE00"/><path fill-rule="evenodd" clip-rule="evenodd" d="M98.293.243c-.848 1.565-2.086 2.608-3.325 3.65-1.304 1.044-2.672 1.891-4.172 2.869-.13.978-.391 2.086-.456 3.26-.196 2.15-.587 4.171-.978 6.322-.391 2.412-.717 4.89-1.108 7.301-.065.392-.13.783-.26 1.109-.196.521-.588.717-1.174.651a3.206 3.206 0 01-1.108-.39c-.913-.522-1.826-1.044-2.738-1.63-1.174-.848-2.282-1.76-3.455-2.608-1.89-1.5-3.912-2.868-5.998-3.976-.26-.13-.586-.261-.977-.457-.587 1.63-1.174 3.26-1.76 4.824-1.239 3.39-2.412 6.845-3.586 10.235-.13.456-.325.912-.586 1.303-.326.522-.782.717-1.37.391-.39-.195-.716-.456-1.042-.782-1.174-1.043-2.217-2.281-3.194-3.585-1.304-1.76-2.608-3.585-3.977-5.345-.847-1.109-1.76-2.217-2.607-3.26-.196-.26-.457-.456-.652-.652-.457.066-.522.392-.587.652-.652 1.5-1.5 2.803-2.542 3.977-2.673 3.129-5.41 6.323-8.083 9.452-.392.456-.717.913-1.043 1.369-.457.587-.783.587-1.174-.13a159.646 159.646 0 01-1.955-3.39c-1.37-2.347-2.673-4.694-3.846-7.106-.913-1.955-2.086-3.78-3.13-5.671-.065-.13-.26-.326-.39-.456a4.887 4.887 0 00-1.826 1.173c-.586.521-1.108 1.043-1.76 1.564-1.956 1.565-3.65 3.325-5.28 5.15-.717.783-1.369 1.63-2.086 2.412-.26.326-.587.587-.978.848-.521.39-1.173.26-1.5-.326a12.134 12.134 0 01-.651-1.63c-.456-1.5-.847-2.998-1.304-4.433a1540.97 1540.97 0 00-2.738-9.126c-.195-.652-.325-1.304-.521-2.02A139.227 139.227 0 018.66 8.978c-.26-.195-.521-.39-.782-.652-.065-.065-.065-.326 0-.39.065-.066.26-.196.391-.131.391.195.848.456 1.239.782 1.499 1.108 3.064 2.151 4.758 3.064a30.917 30.917 0 007.888 2.868c4.694.978 9.452 1.89 14.21 2.738 3.39.587 6.78.848 10.235.848 2.803 0 5.606.065 8.41-.066 5.084-.195 10.038-1.043 14.862-2.803 5.997-2.15 11.799-4.693 17.535-7.561l1.37-.783c.52-.326.977-.652 1.499-.912 2.15-1.109 4.106-2.543 5.932-4.107.586-.456 1.108-.913 1.695-1.304 0-.26.195-.326.39-.326zm-57.3 33.31c.26-.195.391-.26.522-.39l2.15-2.347a574.966 574.966 0 005.998-7.04c.913-1.043 1.695-2.217 2.477-3.325.13-.195.196-.521.326-.717-.326-.521-.782-.391-1.239-.391-1.955-.065-3.976-.13-5.931-.13-4.107-.066-8.149-.587-12.19-1.37-.327-.064-.652-.064-1.109-.13.066.261.13.457.196.587 1.956 3.52 3.911 7.105 5.867 10.626.977 1.499 1.955 2.998 2.933 4.628zm32.203-18.317c.521.326.717.457.977.587 2.217 1.173 4.303 2.607 6.258 4.107 1.043.847 2.086 1.695 3.195 2.477.782.587 1.63 1.043 2.477 1.5.26.13.521.195.912.26.13-.652.196-1.174.326-1.76.261-1.89.522-3.846.848-5.737.521-2.738.978-5.54 1.238-8.278 0-.261.196-.587-.195-.783-1.695.913-3.325 1.89-5.02 2.738-1.76.913-3.585 1.695-5.345 2.543-1.825.782-3.65 1.499-5.671 2.346zm-1.89.717c-.392.13-.783.261-1.109.326-1.369.456-2.738.913-4.107 1.304-3.129.847-6.323 1.304-9.582 1.5-.391 0-.848-.131-1.239.325.26.326.456.587.717.913.913 1.108 1.76 2.151 2.673 3.26 1.238 1.564 2.412 3.193 3.65 4.693.913 1.108 1.89 2.086 2.803 3.129.196.195.457.26.783.456 1.89-5.15 3.715-10.234 5.54-15.319-.065-.196-.13-.391-.13-.587zm-57.691-3.585c-.261.456 0 .782.13 1.173 1.238 3.977 2.477 7.888 3.65 11.864.261.783.457 1.565.717 2.347.066.196.261.391.392.652.651-.456 1.043-.978 1.499-1.5.39-.456.847-.912 1.238-1.433.457-.522.848-1.043 1.304-1.5.456-.521.913-.977 1.37-1.434.455-.456.977-.912 1.498-1.369.457-.39.978-.782 1.434-1.238.522-.457 1.043-.848 1.5-1.37.456-.455 1.108-.716 1.564-1.368-.326-.065-.456-.13-.652-.196l-5.67-1.173c-3.26-.652-6.454-1.63-9.388-3.194-.13-.065-.326-.13-.587-.261zM95.49 24.493c.392.652.327 1.043.196 1.434a8.058 8.058 0 01-2.086 3.52c-.195.195-.521.391-.847.521-.066.066-.326 0-.391-.13-.066-.065-.066-.26-.066-.391.066-.196.261-.391.391-.587.978-1.043 1.63-2.281 2.217-3.52.13-.195.326-.456.587-.847zM6.966 26.057c-.913-.456-1.304-.978-1.63-1.434-.913-1.304-1.564-2.738-2.086-4.237-.13-.326-.13-.782-.065-1.108 0-.066.195-.13.391-.326.326.847.652 1.63 1.043 2.412.326.717.717 1.434 1.108 2.15.326.783.782 1.435 1.239 2.543zm89.241 3.39c.457-1.173 1.24-2.086 2.021-3.129.13.196.391.391.326.457-.26 1.108-.847 2.15-1.89 2.672-.13.13-.26 0-.457 0zM2.011 23.515C.968 22.798.512 21.69.186 20.517c0-.066.065-.261.196-.326.065-.066.326 0 .39.065.522 1.043 1.174 1.955 1.304 3.129.066 0 0 .065-.065.13z" fill="#3F3A3A"/></symbol><symbol viewBox="0 0 16 19" id="icon-location" xmlns="http://www.w3.org/2000/svg"><path d="M13.303 12.803L8 18.107l-5.303-5.304a7.5 7.5 0 1110.606 0zM8 9.167a1.667 1.667 0 100-3.334 1.667 1.667 0 000 3.334z"/></symbol><symbol fill="none" viewBox="0 0 124 40" id="icon-logo" xmlns="http://www.w3.org/2000/svg"><path fill-rule="evenodd" clip-rule="evenodd" d="M85.865 21.157l-1.228-.5c-.424-.138-.829-.279-1.25-.414-.84-.269-1.753-.545-2.62-.808-1.667-.505-.865-.301-2.077.785-2.89 2.592-5.977-1.966-3.39-4.666.662-.69 1.595-.917 2.521-.684 1.148.289 1.44.755 2.246 1.353.539-.434 1.51-1.605 2.03-2.214.659-.77 1.444-1.487 2.06-2.33-.656-1.666-2.83-3.166-4.506-3.755-3.775-1.324-8.106-.459-10.241 4.591-.924 2.185-1.467 5.567-.97 8.641 1.112 6.897 8.503 10.855 14.103 5.735 1.127-1.03 2.894-3.523 3.322-5.734z" fill="#F27E00"/><path fill-rule="evenodd" clip-rule="evenodd" d="M96.975 10.109l.415 6.11-2.37.153-.281 4.338 2.556-.11c.168 3.125-.022 5.29 1.6 6.923 1.428 1.439 3.302 2.117 5.8 1.97.243-.381.887-2.785.948-3.375-2.691-.624-3.504-2.653-2.904-5.59.771-.303 3.482.095 4.486.057.163-.565-.329-3.908-.36-4.644l-4.31.28.995-6.237-6.575.125z" fill="#BCD800"/><path fill-rule="evenodd" clip-rule="evenodd" d="M87.189 28.911c1.309.101 2.87-.029 4.193-.017 1.214.01.889.407 1.195-3.115.116-1.328.734-7.393.672-8.167l-6.25-.314.19 11.613zm2.315-18.656c-4.076 1.125-2.214 6.83 1.6 5.757 3.885-1.092 2.233-6.815-1.6-5.757z" fill="#E10886"/><path fill-rule="evenodd" clip-rule="evenodd" d="M114.902 17.021l-1.927-6.183-7.247.63c.111.536 1.801 3.232 2.145 3.798l3.315 5.586c.822 1.381.823 1.136.762 2.29-.104 1.942-.265 4.218-.266 6.133l7.192.438c-.113-2.144-.329-4.323-.496-6.445-.187-2.378-.334-1.82.333-2.666L124 11.126l-6.901-1.1-2.197 6.995z" fill="#0093CB"/><path fill-rule="evenodd" clip-rule="evenodd" d="M42.905 29.152l.45-17.35-.042-1.147-4.602-.285-.026 6.279-3.875-8.006-5.988 2.01c-.258 1.688.096 18.114.343 18.5l6.004-.001-1.547-10.1.074-.276 4.94 10.374 4.269.002z" fill="#3C2B99"/><path fill-rule="evenodd" clip-rule="evenodd" d="M7.328 28.718l-.917-7.504 2.475-.213.971-6.443H5.89l.012-2.146 9.55.266.228-6.11L0 8.139l1.618 21.015 5.71-.435z" fill="#E10886"/><path fill-rule="evenodd" clip-rule="evenodd" d="M19.71 25.017c-.548-.14-1.006-.523-1.146-1.238-.11-.555-.038-2.173-.027-2.82.03-1.89.068-4.478.102-6.365l-.004-.009H12.27l-.025 3.178c-.015 1.923.081 3.977.331 5.42.926 5.351 3.898 6.022 7.134 5.93 3.237.092 6.209-.579 7.135-5.93.335-1.938.215-6.495.227-8.592l-6.286-.006-.004.01c.033 1.886.072 4.474.102 6.364.01.647.082 2.265-.027 2.82-.14.715-.598 1.098-1.147 1.238z" fill="#00A3D4"/><path fill-rule="evenodd" clip-rule="evenodd" d="M40.956 5.96c-.617.023-.887.313-.864.93.026.716 2.04 1.31 2.633 1.582.685.313 5.63 2.412 5.788 2.6.187.222 1.04 2.661 1.239 3.143 1.135 2.738 1.926 7.19 2.633 10.41.326 1.486.31 2.831 1.752 2.778.584-.021 1.175-.613 1.154-1.18-.018-.496-1.931-9.278-2.022-9.451l.705-.275c.176.644 3.206 5.643 3.932 6.974.375.689.822 1.847 1.783 1.812.636-.023 1.109-.536 1.22-1.068.118-.575-.338-1.166-.58-1.611-.544-1.005-1.123-1.989-1.686-2.973-1.05-1.838-2.467-3.973-3.237-6.03-.43-1.15-.844-2.194-1.275-3.353-.27-.727-.589-.968-.284-1.604.594-1.24 3.52-7.528 3.507-7.896-.016-.417-.428-.763-.866-.747-.786.028-1.166 1.465-1.441 2.07l-2.201 4.772c-.644 1.415-.353 1.113-1.907 1.695l-1.285.481c-.699.262-.65.407-1.296.106-.922-.43-7.252-3.17-7.402-3.164z" fill="#9D1DAC"/><path fill-rule="evenodd" clip-rule="evenodd" d="M51.858 6.04c-.05-1.383-1.092-2.356-2.36-2.31-2.069.077-2.945 2.568-1.52 3.938 1.458 1.403 3.951.317 3.88-1.627z" fill="#9D1DAC"/><path fill-rule="evenodd" clip-rule="evenodd" d="M57.203 4.826c.026.715 3.262 5.658 3.28 6.17.012.309-1.273 4.356-1.462 4.767-1.222 2.663-1.368 1.639.114 4.208l1.588-3.217.512.155c-.217 1.122-.366 2.504-.521 3.663-.046.343-.257 1.605-.19 1.821.18.57.645.8.676 1.636.017.468-.229.717-.382 1.033 1.165.507 1.374-.794 1.48-1.63.296-2.325.834-6.555 1.44-8.428 1.15-3.55.17-2.368 2.84-3.831.749-.41 1.464-.78 2.212-1.18.743-.398 2.048-.782 2.02-1.531-.034-.963-1.14-.384-1.542-.164l-5.015 2.62c-.202.008-2.137-.588-2.478-.69-.521-.154-1.058-1.483-1.332-1.986L59.266 6.09c-.268-.49-.804-1.908-1.427-1.885-.32.012-.646.331-.636.622z" fill="#E10886" stroke="#E10886" stroke-width=".216"/><path fill-rule="evenodd" clip-rule="evenodd" d="M61.707 8.435c.036.998.787 1.829 1.862 1.79.91-.034 1.706-.833 1.673-1.74l-.01-.298c-.029-.761-.82-1.528-1.852-1.49-.887.032-1.704.888-1.673 1.738zM55.765 22.79c.04 1.115 1.348 1.259 1.758.595l-1.21-1.992c-.07.36-.559 1.113-.548 1.398z" fill="#E10886"/><path fill-rule="evenodd" clip-rule="evenodd" d="M35.404 36.335h.41c.385 0 .672-.086.861-.261.191-.173.286-.426.286-.759 0-.335-.08-.582-.239-.742-.16-.16-.41-.24-.751-.24h-.567v2.002zm2.816-1.07c0 .726-.197 1.281-.593 1.666-.396.384-.959.576-1.688.576h-.535v2.399h-1.247v-6.744h1.878c.715 0 1.257.176 1.629.527.37.353.556.879.556 1.576zm5.2 4.64h-3.39v-6.743h3.388v1.171h-2.14v1.483h1.99v1.171h-1.99v1.738h2.14v1.18zm4.423-5.647c-.47 0-.832.201-1.09.606-.257.404-.386.968-.386 1.69 0 1.503.492 2.256 1.477 2.256.411 0 .913-.118 1.5-.356v1.2a3.69 3.69 0 01-1.617.346c-.856 0-1.51-.298-1.963-.893-.453-.595-.68-1.45-.68-2.562 0-.7.112-1.315.334-1.842.223-.527.543-.932.959-1.214.417-.281.906-.421 1.466-.421.572 0 1.144.159 1.721.475l-.402 1.162a6.418 6.418 0 00-.663-.314 1.742 1.742 0 00-.656-.133zm5.721 5.648h-1.247v-5.554H50.72v-1.19h4.441v1.19h-1.597v5.554zm8.377-3.38c0 1.117-.24 1.975-.724 2.575-.483.6-1.175.899-2.076.899s-1.593-.3-2.077-.899c-.483-.6-.724-1.46-.724-2.583 0-1.122.242-1.98.727-2.572.483-.592 1.178-.888 2.082-.888.904 0 1.596.298 2.074.894.479.597.718 1.455.718 2.574zm-4.293 0c0 .754.125 1.32.374 1.703.25.381.623.571 1.119.571.995 0 1.492-.758 1.492-2.274 0-1.52-.494-2.278-1.484-2.278-.497 0-.87.192-1.123.575-.252.382-.378.95-.378 1.703zm12.953 3.38h-1.243v-5.554h-2.165v5.554h-1.246v-6.744H70.6v6.744zm5.788 0l-.427-1.606h-2.146l-.425 1.606h-1.345l2.077-6.772h1.524l2.085 6.772h-1.343zm-.725-2.806a463.79 463.79 0 01-.667-2.468 7.617 7.617 0 01-.105-.452c-.09.394-.344 1.367-.761 2.92h1.532zm4.755-.765h.41c.385 0 .672-.086.862-.261.19-.173.285-.426.285-.759 0-.335-.08-.582-.239-.742-.159-.16-.41-.24-.75-.24h-.568v2.002zm2.816-1.07c0 .726-.198 1.282-.593 1.666-.395.383-.96.576-1.688.576h-.535v2.399h-1.247v-6.744h1.879c.714 0 1.256.176 1.628.527.371.353.556.879.556 1.576zm6.608 4.64h-1.416l-2.134-3.417v3.418h-1.247v-6.744h1.247v3.266l2.11-3.266h1.328L87.586 36.4l2.257 3.506z" fill="#971AAC"/></symbol><symbol viewBox="0 0 16 16" id="icon-phone" xmlns="http://www.w3.org/2000/svg"><path d="M15.5 11.683v2.947a.833.833 0 01-.775.832c-.364.025-.662.038-.892.038C6.47 15.5.5 9.53.5 2.167c0-.23.012-.528.038-.892A.833.833 0 011.37.5h2.947a.417.417 0 01.415.375c.019.192.036.344.053.46a11.58 11.58 0 001.007 3.334.38.38 0 01-.123.473L3.871 6.427a10.872 10.872 0 005.703 5.703l1.284-1.795a.385.385 0 01.477-.124c1.054.5 2.178.84 3.333 1.004.116.017.269.035.459.053a.417.417 0 01.374.415H15.5z"/></symbol><symbol fill="none" viewBox="0 0 64 64" id="icon-ribbon" xmlns="http://www.w3.org/2000/svg"><g clip-path="url(#jclip0_887:5872)"><path d="M55.888 8.395c-5.3 0-14.705 4.807-19.39 9.488a4.893 4.893 0 011.449 3.473c-.052 6.252.122 6.493-.169 7.569 12.393 3.579 15.489 12.456 21.594 4.914 6.966-8.608 3.07-25.444-3.484-25.444zM26.153 28.818a32.688 32.688 0 00-4.224 1.553c-2.745 2.934-7.608 8.82-12.813 18.191-.415.747.22 1.642 1.062 1.494l5.99-1.053a2.065 2.065 0 012.165 1.036l2.698 4.886c.472.855 1.748.684 1.979-.265 1.17-4.816 3.852-15.217 7.104-22.231a4.985 4.985 0 01-3.96-3.611z" fill="#FFCC49"/><path d="M13.001 49.09c4.785-10.145 9.454-16.656 12.148-19.961a32.863 32.863 0 00-3.22 1.242c-2.745 2.934-7.608 8.82-12.813 18.191-.415.747.22 1.642 1.061 1.494l2.721-.478a1.07 1.07 0 01.103-.488z" fill="#E6AE00"/><path d="M42.117 30.428a30.845 30.845 0 00-4.277-1.61 4.984 4.984 0 01-3.961 3.61c3.251 7.015 5.934 17.416 7.104 22.232.23.95 1.507 1.12 1.979.265l2.697-4.886a2.066 2.066 0 012.166-1.036l5.99 1.053c.841.147 1.476-.747 1.062-1.494-5.172-9.31-10.006-15.181-12.76-18.134z" fill="#FFCC49"/><path d="M37.177 30.274a4.976 4.976 0 01-3.298 2.154c3.251 7.014 5.934 17.415 7.104 22.232.23.949 1.507 1.12 1.979.265l2.697-4.886c.216-.39.545-.69.93-.87-2.221-5.279-5.772-13.184-9.412-18.895z" fill="#FFCC49"/><path d="M35.644 31.757a4.923 4.923 0 01-1.765.671c3.251 7.014 5.934 17.415 7.104 22.232.23.949 1.507 1.12 1.979.265l1.396-2.53c-1.688-4.85-5.058-14.04-8.714-20.638z" fill="#E6AE00"/><path d="M26.816 30.274a4.976 4.976 0 003.298 2.154c-3.252 7.014-5.934 17.415-7.105 22.232-.23.949-1.506 1.12-1.978.265l-2.698-4.886a2.062 2.062 0 00-.929-.87c2.22-5.279 5.771-13.184 9.412-18.895zm11.131-3.617c-.023.71.078 1.354-.169 2.268 12.542 3.621 17.351 14.45 23.21 2.33.26-.54.493-1.1.687-1.637 1.954-8.29-22.42-3.238-23.728-2.961zm-11.901-5.301c0-1.353.555-2.583 1.449-3.473-4.685-4.68-14.09-9.488-19.39-9.488-6.554 0-10.45 16.836-3.484 25.444 6.104 7.542 9.2-1.335 21.593-4.914-.291-1.08-.117-1.387-.168-7.569z" fill="#FFCC49"/><path d="M10.871 33.839c-6.145-7.593-3.836-21.587 1.292-24.78-1.492-.424-2.877-.663-4.059-.663-6.553 0-10.45 16.835-3.483 25.443 2.948 3.642 5.194 3.455 8.125 1.885-.6-.458-1.22-1.077-1.875-1.885z" fill="#FFCC49"/><path d="M26.046 26.657c-1.31-.277-25.682-5.33-23.728 2.961.41 1.138.962 2.3 1.644 3.322 1.01 1.515 2.644 3.303 4.433 3.735 4.174 1.008 8.212-4.977 17.82-7.75-.11-.406-.145-1.518-.17-2.268z" fill="#FFCC49"/><path d="M13.457 33.862c-1.788-.431-3.421-2.219-4.432-3.735-.682-1.022-1.234-2.184-1.644-3.321-.153-.65-.145-1.217.002-1.712-3.41.462-5.72 1.741-5.065 4.524.41 1.138.962 2.3 1.644 3.322 1.01 1.516 2.644 3.303 4.433 3.735 2.312.558 4.583-1.03 7.78-3.028-.936.325-1.824.43-2.718.215z" fill="#E6AE00"/><path d="M33.04 16.324h-2.086a5.039 5.039 0 00-5.033 5.032v6.3a5.039 5.039 0 005.033 5.033h2.085a5.039 5.039 0 005.033-5.033v-6.3a5.039 5.039 0 00-5.033-5.032z" fill="#FFCC49"/><path d="M31.997 27.655v-6.299a5.04 5.04 0 013.038-4.62c-1.432-.62-2.455-.343-4.081-.413a5.039 5.039 0 00-5.033 5.033v6.3a5.039 5.039 0 005.033 5.032h2.085a4.99 4.99 0 001.995-.413 5.04 5.04 0 01-3.037-4.62z" fill="#E6AE00"/><path d="M55.889 7.458c-3.172 0-7.887 1.606-12.614 4.297a.937.937 0 10.927 1.63c4.39-2.5 8.869-4.052 11.687-4.052 4.09 0 7.375 8.84 5.852 16.876-.417-.45-.963-.836-1.636-1.148a.937.937 0 10-.79 1.7c1.29.6 1.729 1.376 1.46 2.592-.717 1.961-1.473 3.082-2.132 3.896-1.98 2.446-3.346 2.679-4.319 2.588-3.626-.632-7.75-5.106-15.411-7.547.046-.43.032-.72.034-.88 4.724-.928 11.62-1.886 16.416-1.505a.938.938 0 00.148-1.87c-5.732-.454-13.52.88-16.564 1.465v-4.144a5.873 5.873 0 00-1.116-3.449 29.866 29.866 0 012.755-2.214.938.938 0 00-1.092-1.524 31.523 31.523 0 00-2.987 2.409c-2.172-1.581-4.194-1.005-5.554-1.13a5.87 5.87 0 00-3.468 1.13c-4.452-4.102-13.535-9.12-19.38-9.12-8.254 0-11.98 20.822-2.526 28.727 4.19 3.503 7.619.323 12.404-2.547-2.639 3.286-6.08 8.102-9.686 14.594-.798 1.436.425 3.156 2.043 2.872 6.196-1.016 6.325-1.358 6.96-.76.398.376 2.771 5.146 3.274 5.634 1.097 1.066 2.976.554 3.347-.971a217.814 217.814 0 011.568-6.084.938.938 0 00-1.809-.495c-1.713 6.264-1.477 6.281-1.74 6.235-.123-.021-2.624-4.724-2.91-5.157a3.022 3.022 0 00-.466-.549c2.16-5.086 5.228-11.799 8.372-16.976.643.599 1.152.842 1.877 1.18-1.287 2.94-2.604 6.646-3.922 11.039a.938.938 0 001.796.539c1.35-4.502 2.695-8.26 4-11.182.28.012 2.425.009 2.618 0 1.62 3.63 4.033 10.192 6.767 21.45.197.81.858 1.406 1.685 1.517.157.02.285.018.272.018.013-.004 1.154.044 1.753-1.039 2.897-5.234 2.721-4.985 2.915-5.164a1.13 1.13 0 01.965-.287l5.99 1.052c1.618.286 2.842-1.436 2.044-2.872-3.573-6.433-6.986-11.22-9.611-14.5 5.656 3.355 10.555 7.601 15.197-.993 5.687-9.42 1.755-25.281-5.393-25.281zM6.958 34.891c-1.387-1.1-2.797-2.955-3.739-5.538-1.265-5.716 16.099-3.067 21.827-1.943.003.15-.013.44.034.88-10.56 3.374-13.823 9.956-18.122 6.601zm9.9 13.289a2.992 2.992 0 00-.852.025c-5.895 1.036-6.194 1.162-6.07.937 5.207-9.374 10.047-15.172 12.547-17.865a31.66 31.66 0 013.093-1.177c.028.06.096.199.14.285-3.326 5.338-6.588 12.45-8.858 17.795zm8.188-26.824V25.5c-5.306-1.017-19.105-3.267-22.795.704C.72 18.107 4.047 9.334 8.105 9.334c5.255 0 13.89 4.754 18.057 8.573a5.874 5.874 0 00-1.116 3.45zm8.671 10.274c-.569.097-.784.042-2.763.058a4.055 4.055 0 01-3.805-2.698c.016-.234-.182-.759-.166-2.89.008-.992.02-2.491 0-4.747.002-1.88 1.187-2.714 1.355-3.062a4.014 4.014 0 012.616-.967c1.409.128 3.068-.429 4.701.967.167.345 1.355 1.187 1.355 3.058a575.39 575.39 0 00-.001 5.869c.019 1.388-.193 1.369-.165 1.772a4.072 4.072 0 01-3.127 2.64zm8.424 22.966a.133.133 0 01-.247-.032c-1.535-6.323-3.917-15.018-6.713-21.404a5.926 5.926 0 001.876-1.179c3.144 5.177 6.212 11.89 8.371 16.976-.74.68-1.151 1.974-3.287 5.64zm11.916-5.453a.077.077 0 01-.08.114c-6.145-1.038-6.078-1.162-6.841-1.077-2.271-5.344-5.532-12.456-8.86-17.795.034-.063.107-.212.14-.282 1.084.353 2.128.765 3.142 1.225 2.49 2.69 7.314 8.48 12.5 17.814z" fill="#3F3A3A"/></g><defs><clipPath id="jclip0_887:5872"><path fill="#fff" d="M0 0h64v64H0z"/></clipPath></defs></symbol></svg>