<?xml version="1.0" encoding="utf-8"?><svg xmlns="http://www.w3.org/2000/svg" xmlns:xlink="http://www.w3.org/1999/xlink"><symbol fill="none" preserveAspectRatio="none" viewBox="0 0 360 40" id="curved-blue-decor" xmlns="http://www.w3.org/2000/svg"><path d="M0 36.19C55.422 12.88 116.224 0 180 0c63.776 0 124.578 12.88 180 36.19V40H0v-3.81z" fill="#fff"/><path d="M180 0C116.224 0 55.422 12.88 0 36.19V40C55.422 16.69 116.224 2.476 180 2.476c63.776 0 124.578 11.356 180 34.667v-.953C304.578 12.88 243.776 0 180 0z" fill="#B9E6FA"/></symbol><symbol fill="none" viewBox="0 0 162 156" id="hero-tablet-plate" xmlns="http://www.w3.org/2000/svg"><path d="M123.677 93.487c-6.562 24.491-31.748 38.943-56.133 32.409-24.49-6.562-38.942-31.748-32.408-56.133 6.562-24.49 31.747-38.943 56.133-32.409 24.518 6.458 38.97 31.643 32.408 56.133z" fill="#FFEBB7"/><path d="M135.479 96.65c-8.311 31.018-40.21 49.323-71.097 41.048-31.019-8.312-49.324-40.211-41.048-71.098 8.312-31.018 40.211-49.323 71.097-41.047 31.055 8.178 49.36 40.078 41.048 71.097z" fill="#FFEBB7"/><path d="M96.73 17.393C61.25 7.886 24.756 28.955 15.25 64.435c-4.515 16.85-2.225 33.84 5.26 48.185-5.818-13.45-7.426-28.799-3.331-44.08 9.506-35.479 46-56.548 81.479-47.041 18.734 5.02 33.424 17.593 41.725 33.502-7.872-17.925-23.35-32.168-43.654-37.608z" fill="#FFCC49"/><path d="M123.873 92.755c6.618-24.7-8.016-50.045-32.715-56.664-11.198-3-22.577-1.562-32.249 3.137a45.908 45.908 0 0126.956-.965c24.699 6.618 39.333 31.964 32.715 56.663-3.59 13.397-12.78 23.834-24.31 29.606 14.09-4.862 25.48-16.392 29.603-31.777z" fill="#FFCC49"/><path d="M84.14 126.753s.591-3.88 2.883-12.015c2.228-7.479 14.141-46.913 15.732-52.432.196-.733.392-1.465.379-2.254-.005-1.235-.192-2.632-1.448-2.968-4.29-1.15-11.974 14.964-15.847 26.49-3.874 11.525-2.465 24.69-4.163 31.863-1.698 7.172-3.504 11.4-3.504 11.4" fill="#fff"/><path d="M84.14 126.753s.591-3.88 2.883-12.015c2.229-7.479 14.141-46.913 15.732-52.432.197-.733.393-1.465.38-2.254-.006-1.235-.192-2.632-1.448-2.968-4.291-1.15-11.974 14.964-15.848 26.49-3.873 11.525-2.465 24.69-4.163 31.863-1.697 7.172-3.503 11.4-3.503 11.4m-20.2-5.412s6.61-28.852 6.897-30.346c.288-1.493 1.553-3.285 3.39-4.7 1.838-1.415 5.22-3.986 6.11-6.888l.055-.21 5.91-27.918m-11.721-3.14l-8.84 27.132-.056.21c-.681 2.958.857 6.848 1.845 9.02.989 2.171 1.084 4.328.587 5.765-.498 1.437-9.1 28.521-9.1 28.521" stroke="#3F3A3A" stroke-width="1.6" stroke-miterlimit="10" stroke-linecap="round" stroke-linejoin="round"/><path d="M57.724 121.348s6.609-28.852 6.897-30.345c.288-1.494 1.553-3.286 3.39-4.7l.078-.06c1.853-1.426 5.153-3.967 6.03-6.829l.057-.21 5.91-27.917c-2.66-.4-8.727-1.586-11.722-3.141l-8.84 27.133-.056.209c-.68 2.959.857 6.848 1.845 9.02.989 2.172 1.084 4.328.587 5.765-.497 1.438-9.1 28.522-9.1 28.522l4.924 2.553z" fill="#fff"/><path d="M64.81 77.49l7.516-28.049m-3.433 29.143l7.515-28.049m-7.794-2.312l-8.84 27.132-.056.21c-.68 2.958.857 6.847 1.845 9.02.989 2.171 1.084 4.328.587 5.765-.497 1.437-9.1 28.521-9.1 28.521" stroke="#3F3A3A" stroke-width="1.6" stroke-miterlimit="10" stroke-linecap="round" stroke-linejoin="round"/><path d="M32.961 78.715c.11-3.336.636-6.56 1.534-9.91 6.618-24.699 31.964-39.332 56.664-32.714 24.699 6.618 39.333 31.964 32.714 56.664-5.103 19.048-21.277 32.101-39.76 34.103m-5.941-.021c-2.708.059-7.795-.631-10.935-1.472-2.616-.701-6.92-2.64-9.368-3.969" stroke="#3F3A3A" stroke-width="1.6" stroke-miterlimit="10" stroke-linecap="round" stroke-linejoin="round"/><path d="M22.015 115.379c-8.685-14.89-11.665-33.076-6.87-50.972 9.507-35.48 46-56.549 81.48-47.042 35.479 9.507 56.548 46 47.042 81.479-4.908 18.315-16.979 32.804-32.469 41.217" stroke="#3F3A3A" stroke-width="1.6" stroke-miterlimit="10" stroke-linecap="round" stroke-linejoin="round"/><path d="M98.931 61.505s-8.09 12.19-11.314 24.227c-2.833 10.57-2.417 18.646-2.417 18.646l13.731-42.873z" fill="#FFCC49"/><path d="M96.384 65.983s-6.538 10.587-9.962 25.038" stroke="#3F3A3A" stroke-width="1.6" stroke-miterlimit="10" stroke-linecap="round" stroke-linejoin="round"/></symbol><symbol viewBox="0 0 8 6" id="icon-arrow" xmlns="http://www.w3.org/2000/svg"><path d="M4 5.333L.464 1.797 1.644.62 4 2.977 6.357.619l1.179 1.178L4 5.333z"/></symbol><symbol viewBox="0 0 14 14" id="icon-arrow-right" xmlns="http://www.w3.org/2000/svg"><path d="M10.477 6.167l-4.47-4.47L7.185.518 13.667 7l-6.482 6.482-1.178-1.179 4.47-4.47H.333V6.167h10.144z"/></symbol><symbol fill="none" viewBox="0 0 24 61" id="icon-balloon-purple" xmlns="http://www.w3.org/2000/svg"><path fill-rule="evenodd" clip-rule="evenodd" d="M23.139 14.164c.024.867-.12 1.686-.386 2.53a46.631 46.631 0 01-.867 2.36c-.434 1.158-1.108 2.194-1.831 3.182a14.997 14.997 0 01-2.771 2.891.502.502 0 00-.12.096c-.82.771-1.808 1.253-2.844 1.639-.506.193-1.036.265-1.566.193-.386-.049-.771-.049-1.18-.073-1.64-.168-3.085-.795-4.362-1.855-1.253-1.036-2.29-2.24-3.18-3.59-1.206-1.856-2.049-3.855-2.459-6.048-.289-1.542-.385-3.084-.168-4.627.482-3.277 2.072-5.83 4.891-7.614 1.205-.77 2.53-1.325 3.952-1.59 1.397-.29 2.795-.386 4.193-.096a9.128 9.128 0 013.879 1.807c1.301 1.036 2.313 2.265 3.036 3.759.747 1.542 1.301 3.132 1.59 4.795.072.361.12.698.145 1.06.024.385.024.795.048 1.18zM14.031 29.85c-.217.144-.41.144-.578.144-.771-.024-1.518-.048-2.337-.072.024-.096.048-.193.096-.241.169-.241.313-.458.482-.699.29-.41.578-.82.771-1.277a.432.432 0 01.12-.169c.049-.072.193-.048.241.024l.073.145c.169.603.506 1.133.843 1.663.096.12.193.289.29.482z" fill="#B03797"/><path fill-rule="evenodd" clip-rule="evenodd" d="M6.85 5.152c.217-.217 0-.555-.289-.482-2.313.578-3.108 4-3.517 6-.266 1.349-.338 2.795-.145 4.144.145.988.458 2.795 1.638 3.036.217.048.41-.096.41-.313.024-.892-.578-1.856-.747-2.747-.217-1.229-.096-2.578.096-3.807.266-2.145.988-4.265 2.555-5.831zm-.722 14.554c-.049-.049-.073-.097-.12-.145a1.126 1.126 0 00-.338-.337c-.193-.12-.386-.12-.603-.073a.677.677 0 00-.506.506c-.048.217-.048.41.073.603.096.144.192.24.337.337.048.048.096.072.145.12.168.121.41.097.602.073a.63.63 0 00.458-.458c.048-.217.072-.458-.048-.627z" fill="#fff"/><path fill-rule="evenodd" clip-rule="evenodd" d="M23.235 13.947c-.048-2.386-.867-4.41-1.518-6.675-.048-.193-.361-.217-.41 0-.288 1.59.459 3.18.627 4.747.265 2.361.024 4.578-.94 6.747-.77 1.783-1.975 3.3-3.252 4.747-.627.698-1.277 1.349-2.049 1.903-.554.386-1.18.627-1.686 1.06-.097.024-.169.024-.265.073-.338.096-.627.289-.988.385-.193.048-.193.265-.097.386-.024.048-.048.072-.072.12-.12-.024-.24.072-.24.217-.049.482.24.988.433 1.422.169.41.386 1.036.867 1.18.097.024.241-.048.265-.144 0-.048.024-.12.024-.169.121-.361-.24-.843-.41-1.132a5.023 5.023 0 01-.409-.988c-.048-.169-.048-.314-.12-.458.265-.072.506-.145.747-.265.024 0 .024-.024.048-.024.024.024.072.072.12.072 1.567.386 3.181-1.229 4.217-2.217a21.074 21.074 0 003.639-4.747c1.06-1.976 1.518-4.024 1.47-6.24z" fill="#88116F"/><path fill-rule="evenodd" clip-rule="evenodd" d="M12.705 30.356H11.14c-.192 0-.458.096-.578-.17-.096-.216.048-.409.169-.577.168-.241.361-.482.53-.747.265-.386.53-.747.795-1.133.048-.048.048-.12.096-.217-.12-.048-.192-.096-.289-.096-.94-.072-1.807-.337-2.699-.602a3.473 3.473 0 01-.674-.314c-.314-.192-.65-.385-.94-.602-1.422-.964-2.578-2.193-3.542-3.59a17.78 17.78 0 01-2.53-5.277c-.265-.94-.434-1.88-.53-2.843-.097-1.06-.12-2.145 0-3.205.458-3.494 2.144-6.217 5.132-8.12A12.36 12.36 0 0110.225 1.2c1.349-.265 2.722-.361 4.096-.096a9.477 9.477 0 014.482 2.144 11.11 11.11 0 012.867 3.638c.795 1.639 1.398 3.326 1.687 5.109.144.915.217 1.831.168 2.77a4.934 4.934 0 01-.168 1.013c-.12.578-.29 1.132-.434 1.71-.145.53-.386 1.037-.578 1.543-.675 1.662-1.615 3.132-2.771 4.482a15.14 15.14 0 01-1.23 1.252c-.578.53-1.18 1.037-1.806 1.494a6.269 6.269 0 01-2.795 1.109c-.145.024-.314.048-.434.072-.097.145-.024.241.024.313.24.41.458.795.699 1.205.096.193.24.362.337.554.193.41.048.699-.386.82-.144.048-.313.048-.481.048-.073 0-.12.024-.217.024.024.072 0 .12.024.169.482.843.699 1.782.867 2.746.193 1.157.29 2.338.313 3.518.025 1.446-.144 2.844-.602 4.217-.072.217-.144.434-.24.65.023.073.023.121.047.17.627 1.108 1.012 2.313 1.23 3.565.313 1.735.457 3.47.409 5.205-.048 1.446-.313 2.867-.65 4.265-.314 1.229-.675 2.434-1.23 3.59-.24.482-.506.94-.795 1.398a2.37 2.37 0 01-1.084.915h-.145c.073-.192.17-.361.29-.506.891-1.108 1.421-2.385 1.879-3.71a24.905 24.905 0 001.108-4.627c.169-1.253.17-2.53.097-3.783-.072-1.204-.217-2.41-.506-3.59a10.06 10.06 0 00-.747-2.168c-.024-.073-.072-.121-.145-.217-.096.072-.168.144-.24.192-.242.193-.459.41-.724.53-.891.458-1.807-.072-1.903-1.084a1.871 1.871 0 01.289-1.229c.385-.578.94-.698 1.518-.313.241.169.434.386.627.578.096.073.168.169.289.314.072-.12.12-.193.168-.29.29-.795.434-1.614.53-2.457.12-1.253.073-2.482-.048-3.735-.096-.916-.217-1.807-.458-2.675-.144-.554-.337-1.132-.747-1.686zM23.14 14.163c-.024-.385-.024-.795-.048-1.18-.024-.362-.097-.7-.145-1.06-.29-1.687-.867-3.278-1.59-4.796-.723-1.493-1.735-2.722-3.036-3.758a8.977 8.977 0 00-3.88-1.808c-1.397-.289-2.795-.192-4.192.097a11.75 11.75 0 00-3.952 1.59c-2.795 1.783-4.41 4.337-4.891 7.614-.217 1.542-.12 3.085.168 4.627.41 2.192 1.253 4.192 2.458 6.048.892 1.349 1.928 2.554 3.18 3.59 1.278 1.06 2.723 1.687 4.362 1.855.386.048.795.024 1.18.073.555.072 1.06 0 1.567-.193 1.036-.386 2.024-.868 2.843-1.639.048-.048.072-.072.12-.096 1.06-.843 1.952-1.807 2.772-2.892.723-.988 1.397-2.024 1.83-3.18.29-.771.58-1.566.868-2.362.265-.843.41-1.662.386-2.53zM14.03 29.85c-.12-.193-.193-.362-.29-.506-.337-.53-.65-1.06-.843-1.663l-.072-.145c-.048-.072-.193-.072-.241-.024-.048.049-.072.12-.12.169a8.567 8.567 0 01-.772 1.277c-.168.241-.337.458-.482.699-.048.072-.048.144-.096.24l2.337.073c.193.024.362.024.579-.12zm-.892 11.855c-.096-.145-.168-.265-.265-.362-.217-.265-.434-.506-.723-.699-.337-.216-.65-.144-.891.17-.265.36-.313.794-.217 1.228.12.554.65.795 1.156.554.386-.193.7-.458.94-.891z" fill="#3F3A3A"/><path fill-rule="evenodd" clip-rule="evenodd" d="M.754 21.898c.217.049.217.217.29.314a18.731 18.731 0 001.879 2.843c.482.578 1.012 1.108 1.614 1.542.265.193.554.361.844.626-.265 0-.434-.096-.603-.168-.699-.362-1.325-.82-1.831-1.422-.723-.867-1.398-1.783-1.928-2.82a4.06 4.06 0 01-.289-.674c-.024-.072 0-.144.024-.24zM21.115 3.585c.169.073.265.073.314.12.216.218.433.41.626.651.506.603.94 1.253 1.253 1.976.12.265.217.579.29.868.047.192.071.385 0 .626-.218-.24-.266-.506-.362-.747-.12-.24-.217-.482-.314-.723a6.508 6.508 0 00-.385-.698c-.145-.217-.29-.458-.458-.675a47.164 47.164 0 01-.482-.627c-.169-.24-.385-.41-.482-.77zm0-1.301c.386.17.675.434 1.253 1.181.458.578.578.795.65 1.229-.072-.072-.144-.096-.168-.145-.554-.698-1.084-1.397-1.71-2.024-.073-.048-.073-.048-.025-.24zM1.478 24.91c.216.241.41.434.602.627.193.192.41.385.626.578.217.193.434.361.651.53-.072.12-.169.072-.241.048a4.072 4.072 0 01-.554-.313 5.142 5.142 0 01-1.084-1.084c-.073-.073-.145-.193 0-.386z" fill="#3F3A3A"/></symbol><symbol fill="none" viewBox="0 0 51 113" id="icon-balloon-yellow" xmlns="http://www.w3.org/2000/svg"><path fill-rule="evenodd" clip-rule="evenodd" d="M43.627 22.416c.103 4.266-.566 8.12-2.364 11.77-2.365 4.883-5.962 8.583-10.948 10.896-2.004.925-4.112 1.336-6.27 1.439-2.262.103-4.37-.514-6.425-1.336-4.934-1.953-9.303-5.808-11.975-10.485-1.028-1.8-1.954-3.7-2.673-5.654a21.364 21.364 0 01-1.08-4.42c-.154-1.182-.308-2.313-.256-3.495.051-1.234.257-2.416.514-3.598C3.28 12.96 5.696 9.258 9.396 6.38c.257-.206.566-.411.823-.617 1.336-1.233 2.93-2.004 4.574-2.724.411-.154.823-.36 1.285-.514a10.608 10.608 0 013.958-.925 45.22 45.22 0 002.62-.257c1.234-.154 2.417 0 3.65.257.668.154 1.336.257 2.005.36.822.103 1.593.411 2.364.822.565.309 1.182.566 1.747.874.617.36 1.285.668 1.85 1.08a82.321 82.321 0 014.061 3.34 11.938 11.938 0 013.084 4.215c.205.462.41.925.616 1.336 1.234 2.416 1.697 4.934 1.645 7.607 0 .257-.051.514-.051.822a.765.765 0 000 .36zM23.479 47.498c1.387 2.21 2.056 3.546 2.21 4.42-.463.257-1.028.154-1.542.154-.514.051-.977 0-1.49.051-.515.052-1.029.103-1.645.155.051-.669.462-1.183.668-1.697.206-.514.462-1.028.668-1.542.308-.565.514-1.13 1.13-1.541z" fill="#FFCC49"/><path fill-rule="evenodd" clip-rule="evenodd" d="M16.694 5.712c-3.392-2.416-7.863 3.957-9.405 6.322-2.159 3.238-4.729 10.33-.926 13.26.36.257.823 0 .926-.36.36-1.387.102-2.827.154-4.266.051-2.261.874-4.42 1.902-6.424 1.696-3.29 4.368-5.448 7.298-7.556.411-.257.411-.72.051-.976zM9.602 30.28c0-.052 0-.052 0 0 0-.052 0-.052 0 0 .205-.669-.103-1.44-.668-1.8a1.545 1.545 0 00-2.056.515c-.309.514-.411 1.387-.052 1.901.206.257.36.514.668.668 0 0 .052 0 .052.052.411.154.462.206.154.051a.829.829 0 00.463.154c.72.155 1.49-.308 1.49-1.13v-.257c-.051-.052-.051-.103-.051-.154z" fill="#fff"/><path fill-rule="evenodd" clip-rule="evenodd" d="M43.163 14.038c-.205-.308-.72-.206-.77.206-.104 3.546.256 7.041-.258 10.639-.514 3.598-1.901 6.836-3.752 9.92-1.85 3.135-4.06 5.91-7.195 7.76-3.084 1.8-6.63 2.005-10.074 2.673-.463.103-.514.874 0 .977 3.238.616 6.682.05 9.714-1.285 3.803-1.645 6.168-4.266 8.532-7.607a28.805 28.805 0 004.934-11.873c.617-3.649 1.08-8.172-1.13-11.41zM25.432 50.221a21.156 21.156 0 00-.822-1.901c-.309-.617-1.182-2.005-2.005-1.234-.257.257-.103.617.154.72.257.72.566 1.388.874 2.056.309.72.411 1.85 1.285 2.056.257.051.514-.052.617-.257.308-.514.103-.925-.103-1.44z" fill="#E7AE00"/><path fill-rule="evenodd" clip-rule="evenodd" d="M25.74 78.336c-.513 2.055.566 8.532 1.8 10.793 1.027-.514 1.541-.514 1.953-.051.462.513.462 1.541.05 2.158-.513.771-1.181.463-1.798.206-.36.257-.257.668-.308.976-.257 3.393.308 6.682 1.542 9.817a23.484 23.484 0 002.364 4.677 15.332 15.332 0 002.724 3.033c.874.719 1.85 1.233 2.98 1.285.566.051 1.132.154 1.748.257-.154.102-.205.205-.308.257-1.285.462-2.621.514-3.855-.155a9.963 9.963 0 01-1.49-1.079c-1.645-1.388-2.879-3.135-3.855-5.037-1.44-2.775-2.364-5.705-2.673-8.789-.205-1.901-.257-3.803.154-5.653.103-.36.103-.669-.05-.977-.926-2.21-1.389-4.574-1.8-6.939-.308-1.644-.36-3.34-.257-4.985 0-.462-.051-.874-.41-1.233-.566-.669-.875-1.542-1.132-2.365-.668-1.85-1.028-3.803-1.387-5.756-.668-3.958-.668-7.967-.206-11.924.103-.977.36-1.953.565-2.93l.155-.77c-.412-.155-.823 0-1.182.05-.36.052-.771.206-1.08-.102-.308-.411-.051-.823.154-1.182.566-1.285 1.182-2.57 1.748-3.855.103-.154.154-.36.257-.566-.257-.05-.411-.102-.566-.154-3.649-.77-7.04-2.158-10.022-4.471-1.747-1.388-3.34-2.981-4.78-4.677l-.154-.154c-2.416-3.393-4.317-7.093-5.294-11.154-.257-.976-.411-2.004-.617-3.032-.257-1.336-.051-2.673.103-3.958.206-1.747.617-3.443 1.08-5.14.205-.719.462-1.387.873-1.952.617-.977 1.182-1.954 1.85-2.879 1.44-2.056 3.341-3.752 5.397-5.19 1.902-1.337 4.01-2.314 6.168-3.187 1.233-.463 2.467-.771 3.752-.771.308 0 .616 0 .925-.052 1.953-.36 3.855-.154 5.808.206 1.799.308 3.546.822 5.14 1.747.256.155.565.257.822.36 1.08.463 2.107 1.08 3.032 1.8 1.234.976 2.467 1.9 3.547 3.031.77.823 1.49 1.697 2.107 2.673 1.285 2.21 2.416 4.472 2.878 7.041.103.515.206 1.028.206 1.594.051 2.056.205 4.112 0 6.167-.463 3.907-1.388 7.71-3.341 11.154-.257.514-.617.976-.925 1.439a136.29 136.29 0 01-2.313 2.826c-.925 1.183-2.005 2.16-3.238 3.033-1.645 1.182-3.392 2.159-5.345 2.827-1.183.41-2.416.668-3.65.822-.308.052-.616.052-.873.103-.206.308 0 .462.102.668.463.822.926 1.645 1.388 2.519.206.36.36.77.463 1.182.102.565-.154.925-.72 1.079-.462.103-.925.103-1.336.154-.411.051-.822.051-1.285.051-.103.258-.206.515-.257.72-.411 2.005-.668 3.958-.72 6.014-.051 2.158-.102 4.317.206 6.476.308 2.62.77 5.19 1.593 7.71.155.513.309 1.078.668 1.541.309.051.206-.154.257-.308.052-.155.052-.309.103-.463.257-.77.514-1.49.823-2.21.154-.36.36-.668.616-.925.771-.925 1.85-.874 2.673 0 .463.514.77 1.13.874 1.85.205 1.182.154 2.364-.36 3.444-.154.36-.411.77-.668 1.079-.668.822-1.542 1.08-2.57.72-.257-.309-.514-.412-.822-.514zm17.887-55.92v-.463c0-.257 0-.514.051-.822.103-2.673-.411-5.243-1.645-7.607-.205-.462-.41-.874-.616-1.336a11.936 11.936 0 00-3.084-4.215c-1.337-1.13-2.673-2.261-4.06-3.34-.566-.412-1.234-.771-1.85-1.08-.566-.308-1.183-.565-1.748-.874-.72-.41-1.49-.72-2.365-.822-.668-.103-1.336-.206-2.004-.36-1.182-.257-2.416-.36-3.65-.257-.873.103-1.747.206-2.62.257-1.388.052-2.725.411-3.958.925-.411.155-.822.36-1.285.514-1.645.669-3.238 1.49-4.574 2.724a11.02 11.02 0 01-.823.617c-3.7 2.878-6.116 6.579-7.247 11.153a16.875 16.875 0 00-.514 3.598c-.051 1.182.103 2.364.257 3.495.206 1.542.514 2.981 1.08 4.42.72 1.953 1.644 3.855 2.672 5.654 2.673 4.677 6.99 8.48 11.976 10.485 2.056.822 4.163 1.439 6.424 1.336 2.21-.103 4.318-.462 6.27-1.439 4.935-2.364 8.533-6.065 10.948-10.896 1.8-3.546 2.468-7.401 2.365-11.667zM25.689 76.794c.103.154.206.205.257.308a.903.903 0 00.257.206c1.08.77 2.005.565 2.673-.566.565-.925.72-2.004.565-3.084-.103-.668-.308-1.233-.822-1.696-.463-.41-.977-.36-1.388.052a1.562 1.562 0 00-.257.36c-.822 1.387-1.13 2.878-1.285 4.42zm-2.21-29.296c-.617.41-.822.976-1.08 1.541a19.966 19.966 0 00-.667 1.542c-.206.566-.617 1.028-.668 1.696.565-.051 1.13-.102 1.644-.154.514-.051.977 0 1.49-.051.515-.052 1.029.103 1.543-.154-.206-.874-.874-2.21-2.262-4.42zM28.67 89.54c-.103.051-.205.051-.257.154-.257.206-.36.463-.205.668.154.155.36.309.514.309.154.051.36-.309.308-.617 0-.154-.103-.257-.154-.411-.052-.052-.154-.052-.206-.103zm18.4-61.162c.103-.565.103-.925.206-1.234.565-1.85.668-3.7.565-5.602 0-.257.052-.514.052-.72.308-.102.41.103.462.258.36 1.079.463 2.158.36 3.238-.103.77-.257 1.49-.411 2.21-.206.668-.463 1.233-1.234 1.85z" fill="#3F3A3A"/><path fill-rule="evenodd" clip-rule="evenodd" d="M16.797 73.093c-.103-.051-.257-.103-.36-.206a11.558 11.558 0 01-1.696-3.597c-.308-1.131-.257-2.262 0-3.393.052-.154.154-.308.257-.514.103.103.257.155.257.258.052.205 0 .36 0 .565-.205 1.439 0 2.775.514 4.112l.771 2.004c.154.257.206.514.257.771zm-2.827-1.028c-.822-.925-1.079-1.953-1.027-3.032 0-.052 0-.103.051-.103.103-.051.154-.206.257-.206.103 0 .206.103.257.206l.617 2.775c-.052.103-.103.155-.154.36zM49.999 22.21c.462.617.36 1.234.257 1.799-.051.411-.154.874-.617 1.13-.205-.513-.205-.513-.205-.822.102-1.079.205-1.49.565-2.107zM16.797 73.093c.051.051.103.051.154.103 0 .051-.051.103-.103.154 0-.051-.051-.051-.051-.103v-.154z" fill="#3F3A3A"/></symbol><symbol fill="none" viewBox="0 0 64 64" id="icon-birthday-camera" xmlns="http://www.w3.org/2000/svg"><g clip-path="url(#gclip0_887:5916)"><path d="M31.186 14.457h9.949v9.859h-9.949v-9.859zM11.373 29.55h-2.35a3.08 3.08 0 01-3.08-3.08v-1.5a3.08 3.08 0 013.08-3.08h2.35a3.08 3.08 0 013.08 3.08v1.5a3.08 3.08 0 01-3.08 3.08z" fill="#EE7FD7"/><path d="M54.233 27.892h-5.72l-.597-3.05a3.695 3.695 0 00-3.626-2.984H27.753a3.695 3.695 0 00-3.627 2.992l-.59 3.042h-6.462a3.35 3.35 0 00-2.818-1.539H6.139a3.353 3.353 0 00-3.353 3.353v29.677a3.353 3.353 0 003.353 3.352h48.094a4.61 4.61 0 004.61-4.61V32.502a4.611 4.611 0 00-4.61-4.61z" fill="#B03797"/><path d="M54.233 27.892h-5.72l-.495 1.028c.102.33.157.68.157 1.043v19.51a3.51 3.51 0 01-3.51 3.511H17.608V29.706a3.353 3.353 0 00-3.352-3.353H9.88a2.437 2.437 0 012.437 2.437v25.02a2.437 2.437 0 01-2.437 2.437H5.223a2.437 2.437 0 01-2.437-2.437v5.574a3.353 3.353 0 003.353 3.352h48.094a4.61 4.61 0 004.61-4.61V32.502a4.61 4.61 0 00-4.61-4.61z" fill="#B03797"/><path d="M36.16 57.392c6.93 0 12.546-5.617 12.546-12.546 0-6.929-5.617-12.545-12.546-12.545-6.928 0-12.545 5.616-12.545 12.545s5.617 12.546 12.545 12.546z" fill="#EE7FD7"/><path d="M36.16 52.531a7.685 7.685 0 100-15.37 7.685 7.685 0 000 15.37z" fill="#CFECFA"/><path d="M32.253 46.735a5.796 5.796 0 0111.525-.886 7.685 7.685 0 10-6.615 6.615 5.798 5.798 0 01-4.91-5.73zm12.636-29.834H27.432a2.686 2.686 0 01-2.686-2.685V7.98a2.686 2.686 0 012.686-2.686h17.457a2.686 2.686 0 012.685 2.686v6.235A2.686 2.686 0 0144.89 16.9z" fill="#B03797"/><path d="M43.32 13.664H29a1.012 1.012 0 01-1.013-1.012V9.545c0-.559.453-1.012 1.012-1.012h14.322c.559 0 1.012.453 1.012 1.012v3.107c0 .559-.453 1.012-1.012 1.012zM8.795 7.323l1.039 2.921a.469.469 0 00.244.275l2.595 1.17c.367.164.367.749 0 .914l-2.595 1.17a.463.463 0 00-.244.273l-1.04 2.922c-.146.413-.665.413-.812 0l-1.039-2.922a.468.468 0 00-.243-.274l-2.596-1.17c-.367-.165-.367-.749 0-.914l2.596-1.17a.47.47 0 00.243-.274l1.04-2.92c.146-.414.665-.414.812 0zM17.918.23l.771 2.167a.349.349 0 00.18.203l1.926.868c.272.122.272.555 0 .678l-1.925.867a.347.347 0 00-.181.204l-.77 2.167c-.11.306-.495.306-.603 0l-.771-2.167a.348.348 0 00-.18-.204l-1.926-.867c-.272-.122-.272-.556 0-.678l1.925-.868a.347.347 0 00.181-.203l.77-2.167c.11-.306.494-.306.603 0z" fill="#FEC926"/><path d="M56.346 3.638a2.268 2.268 0 10-4.415-1.043 2.268 2.268 0 004.415 1.043zM4.955 4.981a.979.979 0 10-1.932-.313.979.979 0 001.932.313z" fill="#E6AE00"/><path d="M59.398 12.457l.77 2.166a.348.348 0 00.181.204l1.926.867c.272.123.272.556 0 .679l-1.926.867a.348.348 0 00-.18.204l-.771 2.167c-.109.306-.494.306-.603 0l-.77-2.167a.348.348 0 00-.181-.204l-1.926-.867c-.272-.123-.272-.556 0-.679l1.926-.867a.348.348 0 00.18-.204l.771-2.166c.109-.307.494-.307.603 0z" fill="#FEC926"/><path d="M54.233 26.627h-4.68l-.396-2.027a4.97 4.97 0 00-4.867-4.007H42.4v-2.427h2.49a3.955 3.955 0 003.95-3.95V7.98a3.955 3.955 0 00-3.95-3.95H27.431a3.955 3.955 0 00-3.95 3.95v6.235a3.955 3.955 0 003.95 3.95h2.49v2.427h-2.169a4.967 4.967 0 00-4.869 4.017l-.39 2.017h-4.801a4.63 4.63 0 00-1.976-1.3v-.357a4.35 4.35 0 00-4.345-4.345h-2.35a4.35 4.35 0 00-4.345 4.345v.357a4.625 4.625 0 00-3.156 4.379v29.677A4.623 4.623 0 006.14 64h48.093a5.882 5.882 0 005.876-5.875V32.502a5.882 5.882 0 00-5.876-5.875zM26.011 14.216V7.98c0-.783.638-1.42 1.421-1.42H44.89c.784 0 1.42.637 1.42 1.42v6.235c0 .783-.636 1.42-1.42 1.42H27.432c-.783 0-1.42-.637-1.42-1.42zm6.44 3.95h7.42v2.427h-7.42v-2.427zm-8.914 10.99c.606 0 1.127-.429 1.242-1.024l.589-3.041a2.434 2.434 0 012.385-1.968H44.29c1.159 0 2.162.826 2.385 1.963l.597 3.049a1.265 1.265 0 001.24 1.022h5.721a3.35 3.35 0 013.346 3.345v3.383H47.095c-2.596-3.162-6.533-5.182-10.934-5.182-4.4 0-8.338 2.02-10.934 5.182h-6.353v-6.179c0-.186-.013-.369-.034-.55h4.697zm12.624 4.076c6.404 0 11.614 5.21 11.614 11.614 0 6.404-5.21 11.614-11.614 11.614-6.405 0-11.615-5.21-11.615-11.614 0-6.404 5.21-11.614 11.615-11.614zM9.022 23.155h2.35c1.002 0 1.816.814 1.816 1.815v.119h-5.98v-.119c0-1 .813-1.815 1.814-1.815zM4.051 59.382V29.706a2.09 2.09 0 012.088-2.088h8.117a2.09 2.09 0 012.088 2.088v29.677a2.09 2.09 0 01-2.088 2.087H6.139a2.09 2.09 0 01-2.088-2.087zm50.182 2.088h-35.86a4.59 4.59 0 00.5-2.088v-21.98h5.267a14.057 14.057 0 00-2.123 7.444c0 7.799 6.345 14.144 14.144 14.144s14.143-6.345 14.143-14.144c0-2.73-.778-5.28-2.122-7.444h9.397v20.723a3.35 3.35 0 01-3.346 3.345z" fill="#3F3A3A"/><path d="M36.16 53.29c4.657 0 8.445-3.788 8.445-8.444 0-4.656-3.788-8.444-8.444-8.444-4.656 0-8.444 3.788-8.444 8.444 0 4.656 3.788 8.444 8.444 8.444zm0-15.37a6.934 6.934 0 016.927 6.926 6.934 6.934 0 01-6.926 6.926 6.934 6.934 0 01-6.927-6.926 6.934 6.934 0 016.927-6.926zm8.933-28.375c0-.976-.795-1.77-1.771-1.77H29c-.977 0-1.771.794-1.771 1.77v3.107c0 .976.794 1.77 1.77 1.77h14.323c.976 0 1.77-.794 1.77-1.77V9.545zm-1.518 3.107c0 .14-.114.253-.253.253H29a.253.253 0 01-.253-.253V9.545c0-.14.113-.253.253-.253h14.322c.14 0 .253.113.253.253v3.107z" fill="#3F3A3A"/><path d="M7.181 42.718h-.033a1.265 1.265 0 01-1.232-1.297c.043-1.676.043-3.17 0-4.843a1.265 1.265 0 012.529-.065 93.678 93.678 0 010 4.973 1.265 1.265 0 01-1.264 1.232zm-.001-9.21a1.265 1.265 0 01-1.264-1.265v-.473a1.265 1.265 0 112.529 0v.473c0 .698-.566 1.265-1.265 1.265zm32.303 14.664a2.362 2.362 0 10-3.341-3.34 2.362 2.362 0 003.341 3.34z" fill="#fff"/></g><defs><clipPath id="gclip0_887:5916"><path fill="#fff" d="M0 0h64v64H0z"/></clipPath></defs></symbol><symbol fill="none" viewBox="0 0 64 64" id="icon-birthday-food" xmlns="http://www.w3.org/2000/svg"><path d="M39.434 50.133l12.204-8.718a3.093 3.093 0 014.454.927 3.093 3.093 0 01-.863 4.117L42.276 57.195a6.397 6.397 0 01-4.083 1.472H11.7v-12.8l5.213-4.345a4.268 4.268 0 012.732-.989h13.922a2.666 2.666 0 110 5.334h-6.934a2.133 2.133 0 100 4.266h12.8z" fill="#FEC9A3"/><path d="M11.7 44.8H0v18.133h11.7V44.8z" fill="#009EE3"/><path d="M5.334 58.667a2.133 2.133 0 100-4.267 2.133 2.133 0 000 4.267z" fill="#E5E5E5"/><path d="M1.066 34.133h61.867a6.4 6.4 0 01-6.4 6.4H7.466a6.4 6.4 0 01-6.4-6.4z" fill="#A3A3A3"/><path d="M58.667 34.133H5.333v-1.066C5.334 18.339 17.273 6.4 32 6.4c14.728 0 26.667 11.94 26.667 26.667v1.066z" fill="#E5E5E5"/><path d="M14.187 21.342l-1.78-1.173a23.663 23.663 0 012.052-2.667l1.594 1.416a21.65 21.65 0 00-1.867 2.424zm3.219-3.822l-1.46-1.554A23.368 23.368 0 0132 9.6v2.133a21.244 21.244 0 00-14.594 5.787z" fill="#fff"/><path d="M35.2 0h-6.4v2.133h2.133V6.4h2.133V2.133H35.2V0z" fill="#A3A3A3"/><path d="M47.521 34.133a69.829 69.829 0 01-18.828 6.4h27.84a6.4 6.4 0 006.4-6.4H47.521z" fill="#C9C9C9"/><path d="M58.666 33.067a26.588 26.588 0 00-8.365-19.386c-7.482 10.678-21.027 17.057-30.663 20.452h39.028v-1.066z" fill="#DEDEDE"/><path d="M56.246 42.667a2.945 2.945 0 00-.154-.32 3.094 3.094 0 00-4.454-.927l-1.751 1.247h6.36zm-20.067 0a2.666 2.666 0 00-2.612-2.134H19.645c-.999 0-1.965.35-2.732.989l-1.373 1.145h20.639z" fill="#F7BB8F"/><path d="M8.533 56.533a3.2 3.2 0 10-6.4 0 3.2 3.2 0 006.4 0zm-4.266 0a1.067 1.067 0 112.134.001 1.067 1.067 0 01-2.134 0z" fill="#3F3A3A"/><path d="M62.933 33.067h-3.2C59.715 18.174 47.95 5.947 33.067 5.36V2.133H35.2V0h-6.4v2.133h2.133V5.36C16.051 5.948 4.285 18.174 4.267 33.067h-3.2c-.59 0-1.067.477-1.067 1.066A7.475 7.475 0 007.467 41.6h7.686l-2.829 2.357a1.045 1.045 0 00-.624-.224H0v2.134h10.634v16H0V64h11.7c.589 0 1.067-.478 1.067-1.067v-3.2h25.426a7.477 7.477 0 004.764-1.718l12.89-10.686a4.182 4.182 0 001.159-5.536c-.045-.076-.107-.137-.157-.213A7.466 7.466 0 0064 34.133c0-.589-.478-1.066-1.067-1.066zM32 7.467c14.131.016 25.584 11.468 25.6 25.6H6.4C6.416 18.936 17.869 7.483 32 7.467zm22.548 38.171L41.6 56.373a5.346 5.346 0 01-3.407 1.227H12.767V46.367l4.833-4.02a3.21 3.21 0 012.048-.747h13.919a1.6 1.6 0 010 3.2h-6.933a3.2 3.2 0 100 6.4h12.8c.221 0 .439-.07.62-.2l12.204-8.716a2.027 2.027 0 012.92.607c.545.938.27 2.14-.63 2.747zM36.926 41.6h12.62l-10.454 7.467H26.634a1.067 1.067 0 010-2.134h6.933A3.733 3.733 0 0037.3 43.2a3.698 3.698 0 00-.374-1.6zm19.607-2.133H7.467A5.342 5.342 0 012.24 35.2h59.52a5.342 5.342 0 01-5.227 4.267z" fill="#3F3A3A"/><path d="M12.405 20.166l1.78 1.174a21.703 21.703 0 011.867-2.43l-1.595-1.417a23.62 23.62 0 00-2.052 2.673zm5.001-2.646A21.245 21.245 0 0132 11.733V9.6a23.368 23.368 0 00-16.054 6.366l1.46 1.554z" fill="#3F3A3A"/></symbol><symbol fill="none" preserveAspectRatio="none" viewBox="0 0 360 68" id="icon-blue-cloud" xmlns="http://www.w3.org/2000/svg"><path d="M360 56.774c-5.905-4.219-8.075-5.239-15.885-5.239-1.143 0-2.286 0-3.238.192.381-2.877.762-5.753.762-8.63C341.639 13.754 318.018 0 288.873 0c-17.335 0-32.574 8.247-42.099 21.288-4.381-1.151-9.144-1.918-14.096-1.918-2.096 0-4.001.192-5.905.383-7.43-6.137-16.764-9.78-27.05-9.78-12.001 0-22.859 4.986-30.479 13.04C164.672 16.11 157.053 11.7 148.29 11.7c-13.906 0-24.954 11.315-24.954 25.123 0 1.15 0 2.11.19 3.068-.381.096-.762.24-1.143.384-.381.144-.762.288-1.143.383-4.571-2.876-9.715-4.41-15.429-4.41-11.24 0-20.764 6.328-25.717 15.534-8.953-17.644-27.24-29.726-48.384-29.726-11.83 0-22.785 3.828-31.71 10.32V62h360v-5.226z" fill="#B7E2F4"/><path d="M360 62.774c-5.905-4.219-8.075-5.239-15.885-5.239-1.143 0-2.286 0-3.238.192.381-2.877.762-5.753.762-8.63C341.639 19.754 318.018 6 288.873 6c-17.335 0-32.574 8.247-42.099 21.288-4.381-1.151-9.144-1.918-14.096-1.918-2.096 0-4.001.192-5.905.383-7.43-6.137-16.764-9.78-27.05-9.78-12.001 0-22.859 4.986-30.479 13.04C164.672 22.11 157.053 17.7 148.29 17.7c-13.906 0-24.954 11.315-24.954 25.123 0 1.15 0 2.11.19 3.068-.381.096-.762.24-1.143.384-.381.144-.762.288-1.143.383-4.571-2.876-9.715-4.41-15.429-4.41-11.24 0-20.764 6.328-25.717 15.534-8.953-17.644-27.24-29.726-48.384-29.726-11.83 0-22.785 3.828-31.71 10.32V68h360v-5.226z" fill="#73CDF4"/></symbol><symbol fill="none" viewBox="0 0 174 69" id="icon-blue-mask" xmlns="http://www.w3.org/2000/svg"><path fill-rule="evenodd" clip-rule="evenodd" d="M141.666 14.615c0 1.28.256 2.43 0 3.326-.896 3.454-1.023 6.908-1.407 10.361-.64 6.268-1.919 12.28-3.454 18.42-.895 3.582-2.942 6.268-6.268 8.06-2.942 1.534-6.012 2.814-9.466 2.43-1.407-.256-2.814-.512-4.093-1.024-2.175-.767-4.222-1.79-6.268-2.686-1.791-.767-3.582-1.663-5.373-2.43-2.686-1.152-6.012-1.024-8.442 2.046a8.962 8.962 0 00-1.024 1.28c-3.198 4.349-7.675 6.523-12.92 7.419-8.314 1.535-15.733-.512-22.64-5.117-2.047-1.28-3.454-3.198-4.606-5.373-1.279-2.686-2.174-5.5-2.942-8.314-1.663-6.396-3.198-12.792-4.733-19.316 0-.255 0-.511-.128-.767.384-.512.768-.128 1.024 0 3.71 2.302 7.803 3.198 12.152 3.454 3.965.256 7.93.383 11.896.64a66.43 66.43 0 0110.106 1.534c3.581.896 6.651 2.686 8.954 5.629.895 1.023 2.046 2.046 3.07 2.942 1.023.767 2.302 1.023 3.454 1.023 1.407 0 2.814-.384 3.581-1.919.384-.64.896-1.151 1.28-1.79 2.558-4.222 6.523-7.036 10.872-9.083 4.861-2.302 9.978-4.221 15.351-4.988 3.198-.512 6.268-1.663 8.698-3.838.767-1.023 1.791-1.535 3.326-1.919zM62.869 41.99c.64 2.046 1.279 4.093 2.302 5.884 1.407 2.174 2.942 4.221 5.5 5.116 1.92.64 3.838.896 5.757 1.152.767.128 1.535 0 2.175-.256 1.918-.64 3.71-1.28 5.372-2.559.768-.64 1.535-1.407 2.047-2.302.256-.384.383-.895.383-1.28-.255-1.023-.511-2.302-1.15-3.197-3.71-4.733-8.188-7.803-14.583-6.524-.64.128-1.28.128-1.92.384-2.174.64-4.22 1.535-5.883 3.582zm48.352 2.046c.896 1.024 1.535 1.919 2.431 2.686 2.814 2.559 6.268 2.815 9.85 2.815.511 0 1.023-.384 1.535-.64 3.325-2.175 6.012-4.86 6.907-8.954.256-1.151.256-2.047-.639-2.814-.896-.768-1.663-1.663-2.687-2.047-4.221-1.535-8.314-1.407-12.024 1.407-2.558 1.919-4.221 4.35-5.373 7.547z" fill="#73CDF4"/><path fill-rule="evenodd" clip-rule="evenodd" d="M72.846 55.676c3.965 1.28 14.327-1.15 13.687-6.651 0-.256-.128-.256-.383-.256-1.408.64-2.175 1.663-3.454 2.558-2.047 1.535-4.861 2.303-7.42 2.303-5.884.128-9.977-5.884-11.768-10.745-.128-.256-.64-.384-.64 0-1.279 6.14 4.861 11.129 9.978 12.791z" fill="#097FB3"/><path fill-rule="evenodd" clip-rule="evenodd" d="M125.548 50.176c3.837-1.023 7.547-5.884 7.931-9.85 0-.511-.256-.895-.64-1.15-2.175-1.28-3.07 3.837-3.71 4.86-3.581 6.012-10.745 4.605-15.733 1.151-.384-.256-.896.384-.512.64 3.326 3.326 7.931 5.628 12.664 4.349z" fill="#097FB2"/><path fill-rule="evenodd" clip-rule="evenodd" d="M131.944 50.56c-5.884 8.826-15.734 3.326-23.281.64-1.663-1.024-4.477-1.28-6.012-1.791-.128 0-.256 0-.384-.128s-.256-.256-.384-.256c-2.43-.64-3.965 0-6.14 1.79-4.605 3.838-8.826 6.653-14.71 8.443-11.385 3.454-23.92-6.012-28.142-15.733 0-.128-.256-.128-.384 0-1.79 9.721 11.13 15.99 18.548 17.908 12.152 3.198 21.107-3.198 29.933-10.617.895.384 2.175.64 2.558.767 1.024.128 1.919.512 2.942.768l.128.128c8.187 3.326 16.885 9.594 25.328 2.686 4.733-3.837 8.059-26.095 8.059-25.967-2.687 4.605-4.861 16.757-8.059 21.362z" fill="#097FB3"/><path opacity=".6" fill-rule="evenodd" clip-rule="evenodd" d="M87.3 32.651c-3.581-3.582-8.826-4.221-13.687-4.477-7.035-.384-13.815-1.023-20.85-1.919-.512-.128-.896.768-.512 1.152 3.71 3.07 8.315 3.325 13.048 3.581 7.291.512 14.326.256 21.362 2.43.64.129 1.023-.511.64-.767zm48.865-12.535c-8.826 2.814-21.874 2.174-27.374 11.128-.384.64.384 1.407 1.023 1.024 4.861-2.559 8.827-4.605 14.327-5.757 4.861-1.023 8.826-2.046 12.408-5.628.256-.384 0-.895-.384-.767z" fill="#fff"/><path fill-rule="evenodd" clip-rule="evenodd" d="M25.644 29.837c-.511.256-1.151.384-1.79.64-4.222 1.663-8.443 1.535-12.409-.384-6.14-2.942-9.85-7.803-10.873-14.582-.255-1.663-.255-3.454.256-5.117.128-.64.512-1.023 1.28-.895.127.128.255.383.255.511-1.023 6.908 1.663 12.152 6.908 16.374 3.198 2.558 6.907 3.453 10.873 2.942 1.407-.128 2.814-.512 4.093-1.535-.384-.768-.64-1.535-1.023-2.303-.64-1.535-1.024-3.198-.768-4.988.384-2.175 1.663-3.07 3.838-2.815 1.279.128 2.43.512 3.454 1.28 1.918 1.279 2.43 3.07 1.407 5.116-.512 1.024-1.407 2.047-2.175 2.942-.384.384-.895.768-1.407 1.28.384.511.767 1.023 1.151 1.279 1.791 1.663 3.838 2.814 6.14 3.581 1.407.512 2.942.768 4.35 1.28 1.662.511 3.453 1.023 5.116 1.662 1.407.512 2.686 1.408 3.838 2.43.383.385.895.768 1.79 1.536-.127-1.023-.127-1.663-.255-2.303-1.024-4.733-2.175-9.466-3.326-14.07-.256-1.28-.256-2.431.64-3.582.511.256 1.023.511 1.406.767 3.198 2.175 6.78 3.326 10.618 3.582 3.07.128 6.012.384 9.082.512 4.989.128 9.85.511 14.582 1.79 1.663.384 3.326 1.024 4.861 1.663 2.303 1.024 4.221 2.559 5.629 4.605.64.896 1.279 1.663 2.046 2.43.768.896 1.919 1.152 3.07 1.28 1.024 0 1.791-.256 2.431-1.151 1.151-1.663 2.43-3.198 3.581-4.733.512-.64 1.024-1.407 1.663-1.919 2.431-2.047 4.861-3.837 7.803-5.117 4.861-2.174 9.722-4.093 15.095-4.988 3.709-.64 7.163-1.791 10.105-4.222.64-.511 1.279-.895 1.919-1.15 1.151-.513 2.43.127 2.558 1.406.128 1.407.128 2.942-.128 4.221-.895 3.326-.767 6.78-1.023 10.106 0 .256.128.512.128.767.383.512.895.256 1.407.256 1.535 0 3.198-.128 4.733 0 1.663.128 3.198.256 4.861.384 2.686.128 5.116-.512 7.291-1.79 3.837-2.175 6.908-5.245 9.082-9.21 1.151-2.175 1.535-4.478 1.791-6.78.128-.768.128-1.535.128-2.559.512.384.895.64 1.023.896.256.767.512 1.662.512 2.43.256 2.814-.512 5.5-1.791 7.93-2.686 4.734-6.396 8.188-11.385 10.234-2.174.896-4.349 1.28-6.651 1.151-1.791-.127-3.582-.383-5.373-.511-1.279-.128-2.43-.256-3.709-.128-1.663.128-2.303.767-2.559 2.43-.384 1.663-.511 3.326-.895 4.99-.64 2.813-1.279 5.755-2.047 8.57-1.023 3.837-3.326 6.651-6.78 8.698-5.372 3.198-11 3.837-16.757 1.28-1.535-.64-3.198-1.408-4.605-2.175-2.046-1.152-4.221-2.047-6.396-2.943-1.535-.64-2.942-.767-4.349 0-.256.128-.511.256-.767.256-.128.128-.256.256-.384.512-3.966 7.035-10.361 9.977-18.036 10.745-7.675.767-14.583-1.28-20.979-5.373-2.302-1.407-4.093-3.325-5.245-5.756-.64-1.151-1.279-2.302-1.662-3.582-.896-3.325-3.07-5.756-5.117-8.442-1.151-1.535-2.814-2.558-4.605-3.198-1.663-.512-3.326-.895-4.861-1.535-2.175-.767-4.35-1.28-6.396-2.302-2.302-1.663-4.093-3.07-6.268-4.605zm116.021-15.222c-1.535.384-2.558.896-3.326 1.663-2.43 2.303-5.5 3.326-8.698 3.838-5.373.895-10.489 2.686-15.35 4.989-4.349 2.174-8.315 4.86-10.873 9.082-.384.64-.895 1.15-1.279 1.79-.768 1.408-2.047 1.791-3.582 1.92-1.28 0-2.558-.129-3.454-1.024-1.151-.895-2.174-1.79-3.07-2.942-2.43-2.814-5.372-4.605-8.954-5.628a44.909 44.909 0 00-10.105-1.536c-3.966-.255-7.931-.383-11.897-.64-4.349-.255-8.442-1.15-12.152-3.453-.256-.128-.64-.512-1.023 0 0 .256 0 .512.128.768 1.535 6.395 3.07 12.92 4.733 19.315.767 2.814 1.535 5.629 2.942 8.315 1.151 2.174 2.558 3.965 4.605 5.372 6.907 4.605 14.326 6.652 22.641 5.117 5.245-.895 9.722-3.07 12.92-7.42.384-.51.767-.895 1.023-1.278 2.303-2.943 5.629-3.198 8.443-2.047 1.791.767 3.581 1.663 5.372 2.43 2.047.896 4.094 1.92 6.268 2.687 1.279.511 2.686.767 4.094 1.023 3.453.512 6.523-.768 9.465-2.43 3.326-1.791 5.373-4.35 6.268-8.06 1.535-6.011 2.815-12.151 3.454-18.42.384-3.453.512-7.035 1.407-10.36.128-.64 0-1.791 0-3.07zM26.284 26.64c1.663-.768 2.686-1.92 3.454-3.326.64-1.28.383-2.43-.896-3.07-.767-.384-1.535-.64-2.43-.896-1.28-.256-2.047.256-2.175 1.535-.128 2.175.64 3.966 2.047 5.757zM150.236 8.603c-1.535-1.279-2.814-2.814-4.477-3.837-1.663-1.024-3.582-1.535-5.501-2.43.384-.257.512-.64.896-.64 3.07-.512 8.57 2.814 9.21 6.012 0 .256-.128.511-.128.895zm-94.914 59.61c-.384-.128-.768-.128-1.024-.384-2.686-1.663-4.605-4.094-6.012-6.908-.383-.64-.511-1.407 0-2.047.128 0 .512 0 .512.128 1.79 3.326 4.221 6.14 6.907 8.827l-.383.384zm-9.339-6.78a485.11 485.11 0 003.966 5.884c-1.791.128-2.43-.896-3.07-1.919-.768-1.151-1.92-2.302-1.407-3.837 0 0 .255-.128.511-.128zM152.538 5.277c-.511-.384-.895-.512-1.151-.895-1.023-1.024-2.174-2.047-3.198-3.198-.128-.128 0-.512 0-.768 0-.128.256-.256.512-.256 1.279 0 1.919 1.024 2.686 1.791.768 1.024 1.535 1.919 1.151 3.326z" fill="#3F3A3A"/><path fill-rule="evenodd" clip-rule="evenodd" d="M62.868 41.99c1.663-2.047 3.71-2.942 5.884-3.71l1.92-.384c6.395-1.279 10.872 1.791 14.582 6.524.64.895.895 2.047 1.151 3.198.128.384 0 1.023-.384 1.28-.64.767-1.279 1.662-2.046 2.302-1.535 1.279-3.454 1.918-5.373 2.558-.64.256-1.535.384-2.175.256-1.918-.256-3.965-.512-5.756-1.151-2.558-.768-4.221-2.815-5.5-5.117-1.024-1.663-1.535-3.582-2.303-5.756zm2.303.128c-.128 1.407.255 2.43.64 3.453 1.534 3.454 3.837 6.14 7.93 6.268.256 0 .512.128.895.128 3.326.256 6.396-.511 8.955-2.686.767-.64 1.023-1.407.64-2.303-.64-1.79-1.664-3.197-3.199-4.22-5.116-3.199-10.489-2.943-15.861-.64zm46.05 1.918c1.151-3.198 2.814-5.628 5.245-7.547 3.709-2.942 7.803-3.07 12.024-1.407 1.023.384 1.791 1.28 2.686 2.047.896.767.896 1.663.64 2.814-.896 4.093-3.582 6.78-6.908 8.954-.511.256-1.023.64-1.535.64-3.581.127-7.035-.256-9.849-2.815-.768-.767-1.407-1.79-2.303-2.686zm1.919 0c.512.512.895 1.151 1.407 1.407 2.175 1.535 4.861 2.047 7.419 2.43.384 0 .768-.127 1.024-.255 2.558-1.28 4.349-3.198 5.884-5.5.256-.384.384-.896.511-1.28.256-.895 0-1.663-.639-2.302-1.663-1.535-3.454-2.559-5.756-2.43-2.431.127-4.35 1.023-6.013 2.685-1.535 1.408-2.814 2.943-3.837 5.245z" fill="#3F3A3A"/></symbol><symbol fill="none" viewBox="0 0 63 46" id="icon-bow" xmlns="http://www.w3.org/2000/svg"><path fill-rule="evenodd" clip-rule="evenodd" d="M23.376 11.732v1.5c-.177.089-.353.177-.442.177-2.559-.353-5.119-.353-7.502.618-.617.264-1.235.706-1.853 1.147-.353.265-.53.794-.353 1.236.177.44.441.794 1.06.794.087-.353 0-.883.264-1.147.265-.353.706-.53 1.147-.706 2.119-.795 4.325-1.06 6.531-.883.442 0 .883.176 1.413.353.176.618.264 1.236.44 1.942-1.411 1.147-3.176 1.765-4.677 3.089 2.03.264 3.266-.971 4.854-1.5.265.617.442 1.147.618 1.676-.794.618-1.412 1.236-2.118 1.765-3.354 2.736-6.708 5.384-10.061 8.12-.971.794-2.03 1.5-3.09 2.118-1.588.883-2.824.53-3.883-.97-.618-.971-1.147-2.03-1.236-3.266-.088-1.236-.088-2.471-.088-3.707 0-.883.088-1.853.177-2.736.176-2.648-.442-5.03-1.677-7.325-.265-.618-.618-1.148-.971-1.765-.706-1.5-.618-1.942.706-3.001 2.56-1.854 5.472-2.736 8.65-2.119 3.177.618 6.177 1.677 9.09 3.09.97.353 1.942.97 3 1.5zm8.648 7.238c.265-1.06.53-1.854.795-2.825 1.941.353 3.883.883 5.825.088-.353-.53-.883-.353-1.324-.44-.53-.09-1.06-.177-1.589-.177-.441-.089-.882-.089-1.324-.177-.53-.088-.97-.265-1.588-.441 0-.441-.089-.794 0-1.148.53-1.147 1.324-2.03 2.56-2.559 1.764-.706 3.53-.97 5.471-.706-.088.706-.176 1.235-.176 1.853.706-.088.97-.53 1.235-.97.53-1.148-.088-2.207-1.235-2.207-2.648-.088-5.207.177-7.414 1.942-.088.088-.176.088-.353.088-.265-.441.177-.706.353-1.06 2.383-3.353 5.56-5.648 9.355-7.148C44.47 2.289 46.5 1.847 48.53 1.67c.353 0 .794-.088 1.147-.088.971.088 1.412.44 1.589 1.412.088.53.088 1.059.176 1.588.177.618.265 1.324.706 1.854 1.413 1.941 2.119 4.148 2.383 6.53.177 1.325.353 2.56.442 3.884a5.914 5.914 0 010 1.765c-.265 2.648-1.677 4.149-4.325 4.413a29.859 29.859 0 01-9.709-.53 33.058 33.058 0 01-3.971-1.058c-.794-.265-1.589-.53-2.383-.971-.794-.441-1.589-.971-2.56-1.5z" fill="#B03797"/><path fill-rule="evenodd" clip-rule="evenodd" d="M34.584 22.235c.442.088.706.088.971.177 4.59 1.765 9.356 2.383 14.21 2.118 2.206-.088 4.236-.706 5.648-2.56.089-.088.265-.088.354-.176.176.088.353.088.53.176 1.235 1.06 2.382 2.207 3.618 3.354.97.883 1.059 1.853.706 3-.177.53-.353.972-.618 1.413-.353.794-.97 1.324-1.942 1.5-.353.089-.618.177-.97.177-1.413.088-2.119.883-2.384 2.206-.44 2.295-1.324 2.383-3.177 1.766-.883-.265-1.853-.618-2.648-1.148-1.677-1.059-3.353-2.03-4.854-3.265-2.912-2.472-5.648-5.208-8.473-7.767-.353-.177-.53-.53-.97-.971zm-10.503 0c-.088.441-.088.794-.176 1.06-.883 3.088-1.765 6.177-2.736 9.178-.442 1.324-1.148 2.471-1.765 3.707a27.502 27.502 0 01-4.06 5.472c-.795.883-1.677 1.589-2.825 2.118-1.147.53-2.118.265-2.912-.794l-.53-.794c-.882-1.413-2.03-2.56-3.53-3.354a129.154 129.154 0 00-3.53-1.854c.53-1.765 1.853-2.912 3-4.148.265.088.442.177.618.265 1.589 1.147 3.178.97 4.766 0 1.148-.706 2.207-1.412 3.178-2.207a421.157 421.157 0 009.62-8.031 3.17 3.17 0 01.882-.618zm7.149-6.885v2.56c0 .618-.353 1.06-.97 1.324-.883.353-1.677.618-2.648.53-.795-.088-1.5-.442-1.765-1.324-.177-.441-.354-.883-.442-1.236-.353-1.853-.617-3.707-.882-5.56-.177-1.324.441-2.295 1.765-2.56.97-.176 1.942-.176 2.912-.088 1.148.088 1.59.971 1.854 2.03a7.943 7.943 0 01.176 4.325z" fill="#B03797"/><path fill-rule="evenodd" clip-rule="evenodd" d="M29.906 17.999c-1.765-.442-2.824-.706-3.442-2.648-.53-1.589-.265-3.619-1.147-5.03-.265-.354-.706-.354-.971 0-.618.882-.706 2.206-.53 3.53-3.354-1.677-11.738.353-9.796 3.177.176.353.617.441.97.088 1.06-1.059 3.266-1.059 4.59-1.147 1.324 0 3.354.353 4.678-.088.088.176.088.264.176.44l-.883.442c-1.059.618-2.294 1.06-3.265 1.853-.353.265-.177.707.088.971.971.706 2.207.177 3.178-.176.44-.177 1.235-.618 1.765-1.148 1.235 1.5 3.442 2.207 4.677.177.177-.177.089-.441-.088-.441zm12.357-7.326c-1.412-2.295-5.825-.706-7.679.088-1.235.53-4.501 2.472-2.648 4.06-.617.177-.97.971-.44 1.412 1.588 1.324 5.736 2.383 6.972 0 .176-.353 0-.706-.353-.794-.883-.265-1.942-.088-2.825-.088-.794 0-1.765-.177-2.56-.441.266-.089.442-.353.53-.618 0 0 .089 0 .177-.088.353-.177.618-.354.882-.53.706-.353 1.5-.618 2.295-.883a11.176 11.176 0 012.471-.53c.706-.087 1.413.177 2.207.177.794-.088 1.412-1.059.97-1.765zM24.876 20.911c0-.353-.353-.794-.795-.618-1.059.353-15.974 14.122-17.033 11.033-.265-.706-1.236-.706-1.413 0-1.412 4.677 5.031 2.912 7.15 1.765 2.294-1.148 4.324-2.736 6.354-4.325.794-.618 1.765-1.324 2.648-2.206a176.693 176.693 0 01-3.619 7.06c-.794 1.5-1.765 2.913-2.736 4.325-.53.794-4.148 4.236-3.619 5.296-.176-.442-.882-.353-.97.088v.265c0 .264 0 .53.264.706 2.736 1.235 6.178-4.325 7.414-6.002 2.824-3.883 6.531-9.885 5.913-15.004.265-.706.53-1.588.442-2.383z" fill="#88116F"/><path fill-rule="evenodd" clip-rule="evenodd" d="M53.295 35.032c-2.736-2.118-5.825-3.706-8.473-5.913-2.118-1.853-5.56-3.795-7.59-6.266.618.176 1.147.441 1.765.617 4.678 1.5 9.62 1.942 14.033-.617.53-.265.265-.971-.265-.971-6.442-.706-15.18.97-20.387-4.413-.618-.618-1.589.176-1.236.97.53.972 1.236 1.766 2.03 2.472.618 2.56 2.648 4.413 4.678 6.002 1.412 1.412 3.089 2.56 4.236 3.53 3.177 2.471 6.443 5.825 10.856 5.384.353-.177.706-.53.353-.795z" fill="#88116F"/><path opacity=".4" fill-rule="evenodd" clip-rule="evenodd" d="M18.168 9.614c-3.354-3.354-10.415-2.295-14.034 0-.794.53-.264 1.677.618 1.5 2.383-.53 4.766-.882 7.237-.794 2.03 0 3.884.618 5.914.265.441-.088.53-.706.265-.971zm11.297.353c-.265-.176-.53-.265-.794-.353-.177-.088-.442-.088-.618-.088-.177 0-.353.088-.53.176h-.088c-.883.265-.883 1.412 0 1.766.176.088.265.176.441.176.088 0 .088 0 .177.088-.177-.088-.089 0 0 0 0 0 .264.177.264.265.265.177.442.353.707.441.353.089.794-.088.97-.353.618-.794.177-1.588-.53-2.118zm20.211-6.884c-1.5-1.589-4.325-.706-6.002 0-2.56 1.059-4.677 2.47-6.707 4.413-.618.617.176 1.323.794 1.059 1.942-.883 3.707-1.765 5.648-2.736 1.942-.971 3.884-1.148 5.914-1.677.53-.088.618-.706.353-1.06z" fill="#fff"/><path fill-rule="evenodd" clip-rule="evenodd" d="M23.11 10.232c.442-.442.883-.706 1.236-1.148 1.59-1.765 3.707-1.677 5.826-1.324.53.089.97.618 1.412.971.176.177.353.353.618.53.176-.265.44-.441.529-.618C36.526 3.79 41.557 1.23 47.471.26c.793-.178 1.675-.09 2.559-.09 1.412.089 2.294.883 2.648 2.207v.176c-.177 1.854.706 3.266 1.676 4.678.53.794.883 1.765 1.06 2.736.617 2.471.97 5.03.97 7.59 0 .971-.088 1.942-.176 3.001.353.265.706.53 1.147.794 1.5.883 2.648 2.119 3.795 3.354.353.353.618.794.795 1.324.794 2.206-1.236 6.178-3.53 6.531-1.766.265-2.56.971-2.913 2.648-.353 1.5-1.148 1.942-2.736 1.942-1.06 0-2.03-.354-3.001-.707-2.03-.882-3.972-2.03-5.649-3.442-4.5-3.706-8.825-7.502-12.356-12.18-.088-.176-.265-.352-.353-.44-.97.264-1.853.529-2.736.617-.794.088-1.677-.176-2.471-.264-.618.617-.618 1.412-.794 2.03-.618 2.294-1.06 4.677-1.766 6.972-1.323 4.59-3.618 8.65-6.707 12.268-1.236 1.5-2.825 2.294-4.501 3.089-.265.088-.618.176-.971.088-1.324-.176-2.471-.794-3.266-1.942-.176-.176-.265-.44-.441-.617-1.236-2.03-2.913-3.266-5.12-3.972-.529-.177-1.058-.53-1.5-.883-.617-.44-.706-.882-.264-1.5.882-1.324 1.588-2.736 2.736-3.795.264-.265.441-.53.706-.794-.088-.353-.177-.706-.353-1.06-.706-1.412-.971-2.824-.971-4.324 0-1.412 0-2.736.176-4.148.353-3.001-.264-5.825-1.765-8.473-.353-.53-.618-1.148-.882-1.765-.442-1.06-.265-2.03.53-2.913.44-.441.882-.794 1.323-1.147 3-1.942 6.178-2.736 9.708-2.03 3.884.794 7.59 2.206 11.033 4.413zm.266 1.5c-1.06-.53-2.03-1.059-3.001-1.588-2.913-1.413-5.914-2.472-9.09-3.09-3.266-.617-6.09.265-8.65 2.119-1.412.97-1.5 1.5-.706 3 .265.618.618 1.148.97 1.766 1.236 2.294 1.766 4.765 1.678 7.325-.089.883-.177 1.854-.177 2.736 0 1.236 0 2.471.088 3.707.089 1.235.618 2.295 1.236 3.265 1.059 1.5 2.295 1.854 3.883.971a23.964 23.964 0 003.09-2.118c3.353-2.648 6.707-5.384 10.06-8.12.707-.53 1.413-1.147 2.119-1.765-.265-.618-.441-1.147-.618-1.677-1.588.53-2.824 1.765-4.854 1.5 1.5-1.323 3.266-1.853 4.678-3.088-.177-.618-.265-1.236-.442-1.942-.53-.088-.97-.265-1.412-.353-2.206-.177-4.413 0-6.53.882-.442.177-.883.354-1.148.707-.265.264-.177.794-.265 1.147-.618 0-.97-.353-1.06-.794-.176-.442 0-.971.354-1.236.53-.441 1.147-.883 1.853-1.147 2.472-.971 4.943-1.06 7.502-.618.089 0 .265-.088.442-.177v-1.412zm8.649 7.237c.97.53 1.765 1.06 2.56 1.412.794.354 1.588.706 2.383.971 1.323.353 2.647.795 3.971 1.06 3.177.706 6.443.882 9.709.529 2.647-.265 4.148-1.765 4.324-4.413.088-.618 0-1.147 0-1.765-.176-1.324-.353-2.56-.441-3.884-.265-2.383-.971-4.589-2.383-6.53-.353-.53-.53-1.148-.706-1.854-.088-.53-.088-1.06-.177-1.589-.176-.97-.53-1.324-1.588-1.412-.353 0-.795 0-1.148.088-2.03.177-3.971.706-5.913 1.413-3.795 1.5-6.972 3.883-9.355 7.149-.177.264-.618.529-.353 1.059.088 0 .264 0 .353-.089 2.206-1.765 4.765-2.03 7.413-1.941 1.148 0 1.854 1.059 1.236 2.206-.265.441-.53.883-1.236.97.089-.617.177-1.235.177-1.853-1.942-.264-3.707.089-5.472.707-1.236.44-2.03 1.412-2.56 2.56-.176.264 0 .705 0 1.146.618.177 1.06.353 1.589.442.441.088.883.088 1.324.176.53.089 1.059.089 1.589.177.44.088.97-.088 1.323.441-1.941.794-3.883.265-5.825-.088-.265 1.059-.53 1.853-.794 2.912zm2.56 3.266c.44.53.617.794.882 1.059 2.824 2.648 5.56 5.296 8.473 7.767 1.5 1.235 3.177 2.294 4.854 3.265.794.53 1.765.883 2.648 1.148 1.853.618 2.736.441 3.177-1.765.265-1.324.971-2.119 2.383-2.207.353 0 .618-.176.971-.176.97-.177 1.5-.707 1.942-1.5.264-.442.44-.972.617-1.413.442-1.147.265-2.207-.706-3-1.235-1.148-2.383-2.207-3.618-3.355-.177-.088-.353-.176-.53-.176-.176.088-.264.088-.353.176-1.412 1.942-3.442 2.472-5.648 2.56-4.855.265-9.62-.353-14.21-2.118-.176-.177-.441-.177-.883-.265zm-10.503 0c-.353.265-.618.353-.795.53-3.177 2.647-6.354 5.383-9.62 8.031a25.57 25.57 0 01-3.177 2.206c-1.589.971-3.177 1.148-4.766 0-.177-.088-.353-.176-.618-.264-1.235 1.235-2.471 2.383-3 4.148 1.235.706 2.382 1.235 3.53 1.853a9.879 9.879 0 013.53 3.354l.53.794c.794 1.06 1.677 1.324 2.912.795 1.06-.53 1.942-1.236 2.824-2.119 1.589-1.676 3.001-3.442 4.06-5.471.618-1.236 1.324-2.383 1.765-3.707.971-3.001 1.854-6.09 2.736-9.18 0-.176 0-.529.089-.97zm7.149-6.884c.264-1.5.264-3.001-.089-4.413-.264-.971-.706-1.854-1.853-2.03-.97-.088-1.942-.088-2.913.088-1.323.265-1.941 1.236-1.765 2.56.265 1.853.53 3.707.883 5.56a5.1 5.1 0 00.441 1.236c.265.882.971 1.147 1.765 1.323.971.089 1.765-.264 2.648-.53.618-.264.97-.705.97-1.323 0-.794-.087-1.677-.087-2.471z" fill="#3F3A3A"/></symbol><symbol fill="none" viewBox="0 0 99 36" id="icon-family-flag" xmlns="http://www.w3.org/2000/svg"><path fill-rule="evenodd" clip-rule="evenodd" d="M40.994 33.554c-.978-1.63-2.021-3.13-2.869-4.759-1.955-3.52-3.91-7.105-5.867-10.626a3.036 3.036 0 01-.195-.586c.391.065.782.065 1.108.13 4.042.782 8.083 1.304 12.19 1.37 1.956.064 3.977.064 5.932.13.391 0 .913-.13 1.239.39-.065.196-.13.522-.326.718-.848 1.108-1.63 2.281-2.477 3.324a574.423 574.423 0 01-5.998 7.04l-2.15 2.347c-.196.26-.327.326-.587.522zm32.202-18.318c2.021-.847 3.846-1.499 5.606-2.281a80.147 80.147 0 005.346-2.543c1.695-.847 3.39-1.825 5.02-2.737.39.195.195.521.195.782-.261 2.803-.717 5.54-1.239 8.279-.326 1.89-.587 3.78-.847 5.736-.065.587-.196 1.108-.326 1.76-.391-.13-.652-.13-.913-.26a31.21 31.21 0 01-2.477-1.5c-1.108-.782-2.151-1.63-3.194-2.477-1.956-1.565-4.042-2.999-6.258-4.107-.196-.195-.456-.391-.913-.652z" fill="#FFCC49"/><path fill-rule="evenodd" clip-rule="evenodd" d="M71.306 15.953c0 .261.065.392 0 .522-1.826 5.084-3.65 10.17-5.541 15.319-.326-.196-.587-.26-.783-.456-.977-1.043-1.955-2.021-2.803-3.13-1.238-1.499-2.412-3.128-3.65-4.693-.848-1.108-1.76-2.151-2.673-3.26-.26-.26-.456-.586-.717-.912.391-.456.848-.326 1.239-.326 3.26-.195 6.453-.652 9.582-1.5 1.37-.39 2.738-.847 4.107-1.303.456-.065.848-.13 1.239-.26zm-57.691-3.585c.196.065.457.13.652.26 2.999 1.5 6.128 2.478 9.387 3.195l5.671 1.173c.196.065.326.065.652.196-.456.652-1.108.912-1.564 1.369-.457.521-.978.912-1.5 1.369-.456.39-.977.782-1.434 1.238-.521.457-.977.913-1.499 1.37-.456.455-.913.977-1.369 1.433-.456.522-.913.978-1.304 1.5-.39.456-.782.977-1.238 1.434-.456.521-.848 1.043-1.5 1.499-.195-.26-.325-.456-.39-.652-.261-.782-.457-1.564-.718-2.347a2627.003 2627.003 0 00-3.715-11.864c-.066-.326-.392-.717-.13-1.173z" fill="#B03797"/><path fill-rule="evenodd" clip-rule="evenodd" d="M29.325 16.605c-2.15 1.956-4.237 3.912-6.388 5.867-1.5 1.304-4.237 3.194-4.694 5.215a.432.432 0 00.652.456c1.89-1.043 3.52-3.194 5.15-4.628 2.151-1.89 4.498-3.911 6.258-6.193.391-.586-.456-1.108-.978-.717z" fill="#88116F"/><path fill-rule="evenodd" clip-rule="evenodd" d="M52.336 18.756c-2.672 1.565-4.172 4.89-6.192 7.106-1.89 2.086-5.02 4.172-5.411 7.17-.065.457.522.587.782.327 4.498-3.912 8.084-9.062 11.604-13.885.326-.457-.326-.978-.783-.718z" fill="#E6AE00"/><path fill-rule="evenodd" clip-rule="evenodd" d="M71.11 16.018c-1.63 1.434-2.282 3.912-2.868 5.932-.978 3.325-2.738 6.389-3.39 9.779-.13.521.652.912.847.39 1.174-2.477 2.152-5.084 3.064-7.626.522-1.37.913-2.803 1.37-4.237.52-1.565 1.303-2.478 1.303-4.107 0-.13-.196-.261-.326-.13z" fill="#88116F"/><path fill-rule="evenodd" clip-rule="evenodd" d="M89.428 7.675c-.13-.522-.913-.391-.913.13 0 5.41-2.412 10.626-2.607 16.036 0 .522.652.587.912.26 1.63-2.15 1.5-5.735 1.956-8.343.521-2.673 1.5-5.41.652-8.083z" fill="#E6AE00"/><path fill-rule="evenodd" clip-rule="evenodd" d="M98.293.243c-.848 1.565-2.086 2.608-3.325 3.65-1.304 1.044-2.672 1.891-4.172 2.869-.13.978-.391 2.086-.456 3.26-.196 2.15-.587 4.171-.978 6.322-.391 2.412-.717 4.89-1.108 7.301-.065.392-.13.783-.26 1.109-.196.521-.588.717-1.174.651a3.206 3.206 0 01-1.108-.39c-.913-.522-1.826-1.044-2.738-1.63-1.174-.848-2.282-1.76-3.455-2.608-1.89-1.5-3.912-2.868-5.998-3.976-.26-.13-.586-.261-.977-.457-.587 1.63-1.174 3.26-1.76 4.824-1.239 3.39-2.412 6.845-3.586 10.235-.13.456-.325.912-.586 1.303-.326.522-.782.717-1.37.391-.39-.195-.716-.456-1.042-.782-1.174-1.043-2.217-2.281-3.194-3.585-1.304-1.76-2.608-3.585-3.977-5.345-.847-1.109-1.76-2.217-2.607-3.26-.196-.26-.457-.456-.652-.652-.457.066-.522.392-.587.652-.652 1.5-1.5 2.803-2.542 3.977-2.673 3.129-5.41 6.323-8.083 9.452-.392.456-.717.913-1.043 1.369-.457.587-.783.587-1.174-.13a159.646 159.646 0 01-1.955-3.39c-1.37-2.347-2.673-4.694-3.846-7.106-.913-1.955-2.086-3.78-3.13-5.671-.065-.13-.26-.326-.39-.456a4.887 4.887 0 00-1.826 1.173c-.586.521-1.108 1.043-1.76 1.564-1.956 1.565-3.65 3.325-5.28 5.15-.717.783-1.369 1.63-2.086 2.412-.26.326-.587.587-.978.848-.521.39-1.173.26-1.5-.326a12.134 12.134 0 01-.651-1.63c-.456-1.5-.847-2.998-1.304-4.433a1540.97 1540.97 0 00-2.738-9.126c-.195-.652-.325-1.304-.521-2.02A139.227 139.227 0 018.66 8.978c-.26-.195-.521-.39-.782-.652-.065-.065-.065-.326 0-.39.065-.066.26-.196.391-.131.391.195.848.456 1.239.782 1.499 1.108 3.064 2.151 4.758 3.064a30.917 30.917 0 007.888 2.868c4.694.978 9.452 1.89 14.21 2.738 3.39.587 6.78.848 10.235.848 2.803 0 5.606.065 8.41-.066 5.084-.195 10.038-1.043 14.862-2.803 5.997-2.15 11.799-4.693 17.535-7.561l1.37-.783c.52-.326.977-.652 1.499-.912 2.15-1.109 4.106-2.543 5.932-4.107.586-.456 1.108-.913 1.695-1.304 0-.26.195-.326.39-.326zm-57.3 33.31c.26-.195.391-.26.522-.39l2.15-2.347a574.966 574.966 0 005.998-7.04c.913-1.043 1.695-2.217 2.477-3.325.13-.195.196-.521.326-.717-.326-.521-.782-.391-1.239-.391-1.955-.065-3.976-.13-5.931-.13-4.107-.066-8.149-.587-12.19-1.37-.327-.064-.652-.064-1.109-.13.066.261.13.457.196.587 1.956 3.52 3.911 7.105 5.867 10.626.977 1.499 1.955 2.998 2.933 4.628zm32.203-18.317c.521.326.717.457.977.587 2.217 1.173 4.303 2.607 6.258 4.107 1.043.847 2.086 1.695 3.195 2.477.782.587 1.63 1.043 2.477 1.5.26.13.521.195.912.26.13-.652.196-1.174.326-1.76.261-1.89.522-3.846.848-5.737.521-2.738.978-5.54 1.238-8.278 0-.261.196-.587-.195-.783-1.695.913-3.325 1.89-5.02 2.738-1.76.913-3.585 1.695-5.345 2.543-1.825.782-3.65 1.499-5.671 2.346zm-1.89.717c-.392.13-.783.261-1.109.326-1.369.456-2.738.913-4.107 1.304-3.129.847-6.323 1.304-9.582 1.5-.391 0-.848-.131-1.239.325.26.326.456.587.717.913.913 1.108 1.76 2.151 2.673 3.26 1.238 1.564 2.412 3.193 3.65 4.693.913 1.108 1.89 2.086 2.803 3.129.196.195.457.26.783.456 1.89-5.15 3.715-10.234 5.54-15.319-.065-.196-.13-.391-.13-.587zm-57.691-3.585c-.261.456 0 .782.13 1.173 1.238 3.977 2.477 7.888 3.65 11.864.261.783.457 1.565.717 2.347.066.196.261.391.392.652.651-.456 1.043-.978 1.499-1.5.39-.456.847-.912 1.238-1.433.457-.522.848-1.043 1.304-1.5.456-.521.913-.977 1.37-1.434.455-.456.977-.912 1.498-1.369.457-.39.978-.782 1.434-1.238.522-.457 1.043-.848 1.5-1.37.456-.455 1.108-.716 1.564-1.368-.326-.065-.456-.13-.652-.196l-5.67-1.173c-3.26-.652-6.454-1.63-9.388-3.194-.13-.065-.326-.13-.587-.261zM95.49 24.493c.392.652.327 1.043.196 1.434a8.058 8.058 0 01-2.086 3.52c-.195.195-.521.391-.847.521-.066.066-.326 0-.391-.13-.066-.065-.066-.26-.066-.391.066-.196.261-.391.391-.587.978-1.043 1.63-2.281 2.217-3.52.13-.195.326-.456.587-.847zM6.966 26.057c-.913-.456-1.304-.978-1.63-1.434-.913-1.304-1.564-2.738-2.086-4.237-.13-.326-.13-.782-.065-1.108 0-.066.195-.13.391-.326.326.847.652 1.63 1.043 2.412.326.717.717 1.434 1.108 2.15.326.783.782 1.435 1.239 2.543zm89.241 3.39c.457-1.173 1.24-2.086 2.021-3.129.13.196.391.391.326.457-.26 1.108-.847 2.15-1.89 2.672-.13.13-.26 0-.457 0zM2.011 23.515C.968 22.798.512 21.69.186 20.517c0-.066.065-.261.196-.326.065-.066.326 0 .39.065.522 1.043 1.174 1.955 1.304 3.129.066 0 0 .065-.065.13z" fill="#3F3A3A"/></symbol><symbol viewBox="0 0 20 20" id="icon-insta" xmlns="http://www.w3.org/2000/svg"><path d="M10 0c2.717 0 3.056.01 4.122.06 1.065.05 1.79.217 2.428.465.66.254 1.216.598 1.772 1.153.509.5.902 1.105 1.153 1.772.247.637.415 1.363.465 2.428.047 1.066.06 1.405.06 4.122 0 2.717-.01 3.056-.06 4.122-.05 1.065-.218 1.79-.465 2.428a4.883 4.883 0 01-1.153 1.772c-.5.508-1.105.902-1.772 1.153-.637.247-1.363.415-2.428.465-1.066.047-1.405.06-4.122.06-2.717 0-3.056-.01-4.122-.06-1.065-.05-1.79-.218-2.428-.465a4.89 4.89 0 01-1.772-1.153A4.904 4.904 0 01.525 16.55C.277 15.913.11 15.187.06 14.122.013 13.056 0 12.717 0 10c0-2.717.01-3.056.06-4.122.05-1.066.217-1.79.465-2.428a4.88 4.88 0 011.153-1.772A4.897 4.897 0 013.45.525C4.088.277 4.812.11 5.878.06 6.944.013 7.283 0 10 0zm0 5a5 5 0 100 10 5 5 0 000-10zm6.5-.25a1.25 1.25 0 10-2.5 0 1.25 1.25 0 002.5 0zM10 7a3 3 0 110 6 3 3 0 010-6z"/></symbol><symbol viewBox="0 0 16 19" id="icon-location" xmlns="http://www.w3.org/2000/svg"><path d="M13.303 12.803L8 18.107l-5.303-5.304a7.5 7.5 0 1110.606 0zM8 9.167a1.667 1.667 0 100-3.334 1.667 1.667 0 000 3.334z"/></symbol><symbol fill="none" viewBox="0 0 24 24" id="icon-lock" xmlns="http://www.w3.org/2000/svg"><path d="M19 10h1a1 1 0 011 1v10a1 1 0 01-1 1H4a1 1 0 01-1-1V11a1 1 0 011-1h1V9a7 7 0 0114 0v1zM5 12v8h14v-8H5zm6 2h2v4h-2v-4zm6-4V9A5 5 0 007 9v1h10z" fill="#A3A3A3"/></symbol><symbol fill="none" viewBox="0 0 124 40" id="icon-logo" xmlns="http://www.w3.org/2000/svg"><path fill-rule="evenodd" clip-rule="evenodd" d="M85.865 21.157l-1.228-.5c-.424-.138-.829-.279-1.25-.414-.84-.269-1.753-.545-2.62-.808-1.667-.505-.865-.301-2.077.785-2.89 2.592-5.977-1.966-3.39-4.666.662-.69 1.595-.917 2.521-.684 1.148.289 1.44.755 2.246 1.353.539-.434 1.51-1.605 2.03-2.214.659-.77 1.444-1.487 2.06-2.33-.656-1.666-2.83-3.166-4.506-3.755-3.775-1.324-8.106-.459-10.241 4.591-.924 2.185-1.467 5.567-.97 8.641 1.112 6.897 8.503 10.855 14.103 5.735 1.127-1.03 2.894-3.523 3.322-5.734z" fill="#F27E00"/><path fill-rule="evenodd" clip-rule="evenodd" d="M96.975 10.109l.415 6.11-2.37.153-.281 4.338 2.556-.11c.168 3.125-.022 5.29 1.6 6.923 1.428 1.439 3.302 2.117 5.8 1.97.243-.381.887-2.785.948-3.375-2.691-.624-3.504-2.653-2.904-5.59.771-.303 3.482.095 4.486.057.163-.565-.329-3.908-.36-4.644l-4.31.28.995-6.237-6.575.125z" fill="#BCD800"/><path fill-rule="evenodd" clip-rule="evenodd" d="M87.189 28.911c1.309.101 2.87-.029 4.193-.017 1.214.01.889.407 1.195-3.115.116-1.328.734-7.393.672-8.167l-6.25-.314.19 11.613zm2.315-18.656c-4.076 1.125-2.214 6.83 1.6 5.757 3.885-1.092 2.233-6.815-1.6-5.757z" fill="#E10886"/><path fill-rule="evenodd" clip-rule="evenodd" d="M114.902 17.021l-1.927-6.183-7.247.63c.111.536 1.801 3.232 2.145 3.798l3.315 5.586c.822 1.381.823 1.136.762 2.29-.104 1.942-.265 4.218-.266 6.133l7.192.438c-.113-2.144-.329-4.323-.496-6.445-.187-2.378-.334-1.82.333-2.666L124 11.126l-6.901-1.1-2.197 6.995z" fill="#0093CB"/><path fill-rule="evenodd" clip-rule="evenodd" d="M42.905 29.152l.45-17.35-.042-1.147-4.602-.285-.026 6.279-3.875-8.006-5.988 2.01c-.258 1.688.096 18.114.343 18.5l6.004-.001-1.547-10.1.074-.276 4.94 10.374 4.269.002z" fill="#3C2B99"/><path fill-rule="evenodd" clip-rule="evenodd" d="M7.328 28.718l-.917-7.504 2.475-.213.971-6.443H5.89l.012-2.146 9.55.266.228-6.11L0 8.139l1.618 21.015 5.71-.435z" fill="#E10886"/><path fill-rule="evenodd" clip-rule="evenodd" d="M19.71 25.017c-.548-.14-1.006-.523-1.146-1.238-.11-.555-.038-2.173-.027-2.82.03-1.89.068-4.478.102-6.365l-.004-.009H12.27l-.025 3.178c-.015 1.923.081 3.977.331 5.42.926 5.351 3.898 6.022 7.134 5.93 3.237.092 6.209-.579 7.135-5.93.335-1.938.215-6.495.227-8.592l-6.286-.006-.004.01c.033 1.886.072 4.474.102 6.364.01.647.082 2.265-.027 2.82-.14.715-.598 1.098-1.147 1.238z" fill="#00A3D4"/><path fill-rule="evenodd" clip-rule="evenodd" d="M40.956 5.96c-.617.023-.887.313-.864.93.026.716 2.04 1.31 2.633 1.582.685.313 5.63 2.412 5.788 2.6.187.222 1.04 2.661 1.239 3.143 1.135 2.738 1.926 7.19 2.633 10.41.326 1.486.31 2.831 1.752 2.778.584-.021 1.175-.613 1.154-1.18-.018-.496-1.931-9.278-2.022-9.451l.705-.275c.176.644 3.206 5.643 3.932 6.974.375.689.822 1.847 1.783 1.812.636-.023 1.109-.536 1.22-1.068.118-.575-.338-1.166-.58-1.611-.544-1.005-1.123-1.989-1.686-2.973-1.05-1.838-2.467-3.973-3.237-6.03-.43-1.15-.844-2.194-1.275-3.353-.27-.727-.589-.968-.284-1.604.594-1.24 3.52-7.528 3.507-7.896-.016-.417-.428-.763-.866-.747-.786.028-1.166 1.465-1.441 2.07l-2.201 4.772c-.644 1.415-.353 1.113-1.907 1.695l-1.285.481c-.699.262-.65.407-1.296.106-.922-.43-7.252-3.17-7.402-3.164z" fill="#9D1DAC"/><path fill-rule="evenodd" clip-rule="evenodd" d="M51.858 6.04c-.05-1.383-1.092-2.356-2.36-2.31-2.069.077-2.945 2.568-1.52 3.938 1.458 1.403 3.951.317 3.88-1.627z" fill="#9D1DAC"/><path fill-rule="evenodd" clip-rule="evenodd" d="M57.203 4.826c.026.715 3.262 5.658 3.28 6.17.012.309-1.273 4.356-1.462 4.767-1.222 2.663-1.368 1.639.114 4.208l1.588-3.217.512.155c-.217 1.122-.366 2.504-.521 3.663-.046.343-.257 1.605-.19 1.821.18.57.645.8.676 1.636.017.468-.229.717-.382 1.033 1.165.507 1.374-.794 1.48-1.63.296-2.325.834-6.555 1.44-8.428 1.15-3.55.17-2.368 2.84-3.831.749-.41 1.464-.78 2.212-1.18.743-.398 2.048-.782 2.02-1.531-.034-.963-1.14-.384-1.542-.164l-5.015 2.62c-.202.008-2.137-.588-2.478-.69-.521-.154-1.058-1.483-1.332-1.986L59.266 6.09c-.268-.49-.804-1.908-1.427-1.885-.32.012-.646.331-.636.622z" fill="#E10886" stroke="#E10886" stroke-width=".216"/><path fill-rule="evenodd" clip-rule="evenodd" d="M61.707 8.435c.036.998.787 1.829 1.862 1.79.91-.034 1.706-.833 1.673-1.74l-.01-.298c-.029-.761-.82-1.528-1.852-1.49-.887.032-1.704.888-1.673 1.738zM55.765 22.79c.04 1.115 1.348 1.259 1.758.595l-1.21-1.992c-.07.36-.559 1.113-.548 1.398z" fill="#E10886"/><path fill-rule="evenodd" clip-rule="evenodd" d="M35.404 36.335h.41c.385 0 .672-.086.861-.261.191-.173.286-.426.286-.759 0-.335-.08-.582-.239-.742-.16-.16-.41-.24-.751-.24h-.567v2.002zm2.816-1.07c0 .726-.197 1.281-.593 1.666-.396.384-.959.576-1.688.576h-.535v2.399h-1.247v-6.744h1.878c.715 0 1.257.176 1.629.527.37.353.556.879.556 1.576zm5.2 4.64h-3.39v-6.743h3.388v1.171h-2.14v1.483h1.99v1.171h-1.99v1.738h2.14v1.18zm4.423-5.647c-.47 0-.832.201-1.09.606-.257.404-.386.968-.386 1.69 0 1.503.492 2.256 1.477 2.256.411 0 .913-.118 1.5-.356v1.2a3.69 3.69 0 01-1.617.346c-.856 0-1.51-.298-1.963-.893-.453-.595-.68-1.45-.68-2.562 0-.7.112-1.315.334-1.842.223-.527.543-.932.959-1.214.417-.281.906-.421 1.466-.421.572 0 1.144.159 1.721.475l-.402 1.162a6.418 6.418 0 00-.663-.314 1.742 1.742 0 00-.656-.133zm5.721 5.648h-1.247v-5.554H50.72v-1.19h4.441v1.19h-1.597v5.554zm8.377-3.38c0 1.117-.24 1.975-.724 2.575-.483.6-1.175.899-2.076.899s-1.593-.3-2.077-.899c-.483-.6-.724-1.46-.724-2.583 0-1.122.242-1.98.727-2.572.483-.592 1.178-.888 2.082-.888.904 0 1.596.298 2.074.894.479.597.718 1.455.718 2.574zm-4.293 0c0 .754.125 1.32.374 1.703.25.381.623.571 1.119.571.995 0 1.492-.758 1.492-2.274 0-1.52-.494-2.278-1.484-2.278-.497 0-.87.192-1.123.575-.252.382-.378.95-.378 1.703zm12.953 3.38h-1.243v-5.554h-2.165v5.554h-1.246v-6.744H70.6v6.744zm5.788 0l-.427-1.606h-2.146l-.425 1.606h-1.345l2.077-6.772h1.524l2.085 6.772h-1.343zm-.725-2.806a463.79 463.79 0 01-.667-2.468 7.617 7.617 0 01-.105-.452c-.09.394-.344 1.367-.761 2.92h1.532zm4.755-.765h.41c.385 0 .672-.086.862-.261.19-.173.285-.426.285-.759 0-.335-.08-.582-.239-.742-.159-.16-.41-.24-.75-.24h-.568v2.002zm2.816-1.07c0 .726-.198 1.282-.593 1.666-.395.383-.96.576-1.688.576h-.535v2.399h-1.247v-6.744h1.879c.714 0 1.256.176 1.628.527.371.353.556.879.556 1.576zm6.608 4.64h-1.416l-2.134-3.417v3.418h-1.247v-6.744h1.247v3.266l2.11-3.266h1.328L87.586 36.4l2.257 3.506z" fill="#971AAC"/></symbol><symbol viewBox="0 0 16 16" id="icon-phone" xmlns="http://www.w3.org/2000/svg"><path d="M15.5 11.683v2.947a.833.833 0 01-.775.832c-.364.025-.662.038-.892.038C6.47 15.5.5 9.53.5 2.167c0-.23.012-.528.038-.892A.833.833 0 011.37.5h2.947a.417.417 0 01.415.375c.019.192.036.344.053.46a11.58 11.58 0 001.007 3.334.38.38 0 01-.123.473L3.871 6.427a10.872 10.872 0 005.703 5.703l1.284-1.795a.385.385 0 01.477-.124c1.054.5 2.178.84 3.333 1.004.116.017.269.035.459.053a.417.417 0 01.374.415H15.5z"/></symbol><symbol fill="none" preserveAspectRatio="none" viewBox="0 0 360 67" id="icon-purple-cloud" xmlns="http://www.w3.org/2000/svg"><path d="M360 57.304c-5.905-4.219-8.075-5.239-15.885-5.239-1.143 0-2.286 0-3.238.192.381-2.876.762-5.753.762-8.63 0-29.342-23.621-43.097-52.766-43.097-17.335 0-32.574 8.247-42.099 21.288-4.381-1.15-9.144-1.918-14.096-1.918-2.096 0-4.001.192-5.905.384-7.43-6.137-16.764-9.781-27.05-9.781-12.001 0-22.859 4.986-30.479 13.041-4.572-6.904-12.191-11.315-20.954-11.315-13.906 0-24.954 11.315-24.954 25.123 0 1.15 0 2.11.19 3.069-.381.096-.762.24-1.143.383-.381.144-.762.288-1.143.384-4.571-2.877-9.715-4.411-15.429-4.411-11.24 0-20.764 6.329-25.717 15.534-8.953-17.644-27.24-29.726-48.384-29.726-11.83 0-22.785 3.828-31.71 10.32V62.53h360v-5.226z" fill="#D08CC2"/><path d="M360 61.304c-5.905-4.219-8.075-5.239-15.885-5.239-1.143 0-2.286 0-3.238.192.381-2.876.762-5.753.762-8.63 0-29.342-23.621-43.097-52.766-43.097-17.335 0-32.574 8.247-42.099 21.288-4.381-1.15-9.144-1.918-14.096-1.918-2.096 0-4.001.192-5.905.384-7.43-6.137-16.764-9.781-27.05-9.781-12.001 0-22.859 4.986-30.479 13.041-4.572-6.904-12.191-11.315-20.954-11.315-13.906 0-24.954 11.315-24.954 25.123 0 1.15 0 2.11.19 3.069-.381.096-.762.24-1.143.383-.381.144-.762.288-1.143.384-4.571-2.877-9.715-4.411-15.429-4.411-11.24 0-20.764 6.329-25.717 15.534-8.953-17.644-27.24-29.726-48.384-29.726-11.83 0-22.785 3.828-31.71 10.32V66.53h360v-5.226z" fill="#B03797"/></symbol><symbol fill="none" viewBox="0 0 64 64" id="icon-ribbon" xmlns="http://www.w3.org/2000/svg"><g clip-path="url(#sclip0_887:5872)"><path d="M55.888 8.395c-5.3 0-14.705 4.807-19.39 9.488a4.893 4.893 0 011.449 3.473c-.052 6.252.122 6.493-.169 7.569 12.393 3.579 15.489 12.456 21.594 4.914 6.966-8.608 3.07-25.444-3.484-25.444zM26.153 28.818a32.688 32.688 0 00-4.224 1.553c-2.745 2.934-7.608 8.82-12.813 18.191-.415.747.22 1.642 1.062 1.494l5.99-1.053a2.065 2.065 0 012.165 1.036l2.698 4.886c.472.855 1.748.684 1.979-.265 1.17-4.816 3.852-15.217 7.104-22.231a4.985 4.985 0 01-3.96-3.611z" fill="#FFCC49"/><path d="M13.001 49.09c4.785-10.145 9.454-16.656 12.148-19.961a32.863 32.863 0 00-3.22 1.242c-2.745 2.934-7.608 8.82-12.813 18.191-.415.747.22 1.642 1.061 1.494l2.721-.478a1.07 1.07 0 01.103-.488z" fill="#E6AE00"/><path d="M42.117 30.428a30.845 30.845 0 00-4.277-1.61 4.984 4.984 0 01-3.961 3.61c3.251 7.015 5.934 17.416 7.104 22.232.23.95 1.507 1.12 1.979.265l2.697-4.886a2.066 2.066 0 012.166-1.036l5.99 1.053c.841.147 1.476-.747 1.062-1.494-5.172-9.31-10.006-15.181-12.76-18.134z" fill="#FFCC49"/><path d="M37.177 30.274a4.976 4.976 0 01-3.298 2.154c3.251 7.014 5.934 17.415 7.104 22.232.23.949 1.507 1.12 1.979.265l2.697-4.886c.216-.39.545-.69.93-.87-2.221-5.279-5.772-13.184-9.412-18.895z" fill="#FFCC49"/><path d="M35.644 31.757a4.923 4.923 0 01-1.765.671c3.251 7.014 5.934 17.415 7.104 22.232.23.949 1.507 1.12 1.979.265l1.396-2.53c-1.688-4.85-5.058-14.04-8.714-20.638z" fill="#E6AE00"/><path d="M26.816 30.274a4.976 4.976 0 003.298 2.154c-3.252 7.014-5.934 17.415-7.105 22.232-.23.949-1.506 1.12-1.978.265l-2.698-4.886a2.062 2.062 0 00-.929-.87c2.22-5.279 5.771-13.184 9.412-18.895zm11.131-3.617c-.023.71.078 1.354-.169 2.268 12.542 3.621 17.351 14.45 23.21 2.33.26-.54.493-1.1.687-1.637 1.954-8.29-22.42-3.238-23.728-2.961zm-11.901-5.301c0-1.353.555-2.583 1.449-3.473-4.685-4.68-14.09-9.488-19.39-9.488-6.554 0-10.45 16.836-3.484 25.444 6.104 7.542 9.2-1.335 21.593-4.914-.291-1.08-.117-1.387-.168-7.569z" fill="#FFCC49"/><path d="M10.871 33.839c-6.145-7.593-3.836-21.587 1.292-24.78-1.492-.424-2.877-.663-4.059-.663-6.553 0-10.45 16.835-3.483 25.443 2.948 3.642 5.194 3.455 8.125 1.885-.6-.458-1.22-1.077-1.875-1.885z" fill="#FFCC49"/><path d="M26.046 26.657c-1.31-.277-25.682-5.33-23.728 2.961.41 1.138.962 2.3 1.644 3.322 1.01 1.515 2.644 3.303 4.433 3.735 4.174 1.008 8.212-4.977 17.82-7.75-.11-.406-.145-1.518-.17-2.268z" fill="#FFCC49"/><path d="M13.457 33.862c-1.788-.431-3.421-2.219-4.432-3.735-.682-1.022-1.234-2.184-1.644-3.321-.153-.65-.145-1.217.002-1.712-3.41.462-5.72 1.741-5.065 4.524.41 1.138.962 2.3 1.644 3.322 1.01 1.516 2.644 3.303 4.433 3.735 2.312.558 4.583-1.03 7.78-3.028-.936.325-1.824.43-2.718.215z" fill="#E6AE00"/><path d="M33.04 16.324h-2.086a5.039 5.039 0 00-5.033 5.032v6.3a5.039 5.039 0 005.033 5.033h2.085a5.039 5.039 0 005.033-5.033v-6.3a5.039 5.039 0 00-5.033-5.032z" fill="#FFCC49"/><path d="M31.997 27.655v-6.299a5.04 5.04 0 013.038-4.62c-1.432-.62-2.455-.343-4.081-.413a5.039 5.039 0 00-5.033 5.033v6.3a5.039 5.039 0 005.033 5.032h2.085a4.99 4.99 0 001.995-.413 5.04 5.04 0 01-3.037-4.62z" fill="#E6AE00"/><path d="M55.889 7.458c-3.172 0-7.887 1.606-12.614 4.297a.937.937 0 10.927 1.63c4.39-2.5 8.869-4.052 11.687-4.052 4.09 0 7.375 8.84 5.852 16.876-.417-.45-.963-.836-1.636-1.148a.937.937 0 10-.79 1.7c1.29.6 1.729 1.376 1.46 2.592-.717 1.961-1.473 3.082-2.132 3.896-1.98 2.446-3.346 2.679-4.319 2.588-3.626-.632-7.75-5.106-15.411-7.547.046-.43.032-.72.034-.88 4.724-.928 11.62-1.886 16.416-1.505a.938.938 0 00.148-1.87c-5.732-.454-13.52.88-16.564 1.465v-4.144a5.873 5.873 0 00-1.116-3.449 29.866 29.866 0 012.755-2.214.938.938 0 00-1.092-1.524 31.523 31.523 0 00-2.987 2.409c-2.172-1.581-4.194-1.005-5.554-1.13a5.87 5.87 0 00-3.468 1.13c-4.452-4.102-13.535-9.12-19.38-9.12-8.254 0-11.98 20.822-2.526 28.727 4.19 3.503 7.619.323 12.404-2.547-2.639 3.286-6.08 8.102-9.686 14.594-.798 1.436.425 3.156 2.043 2.872 6.196-1.016 6.325-1.358 6.96-.76.398.376 2.771 5.146 3.274 5.634 1.097 1.066 2.976.554 3.347-.971a217.814 217.814 0 011.568-6.084.938.938 0 00-1.809-.495c-1.713 6.264-1.477 6.281-1.74 6.235-.123-.021-2.624-4.724-2.91-5.157a3.022 3.022 0 00-.466-.549c2.16-5.086 5.228-11.799 8.372-16.976.643.599 1.152.842 1.877 1.18-1.287 2.94-2.604 6.646-3.922 11.039a.938.938 0 001.796.539c1.35-4.502 2.695-8.26 4-11.182.28.012 2.425.009 2.618 0 1.62 3.63 4.033 10.192 6.767 21.45.197.81.858 1.406 1.685 1.517.157.02.285.018.272.018.013-.004 1.154.044 1.753-1.039 2.897-5.234 2.721-4.985 2.915-5.164a1.13 1.13 0 01.965-.287l5.99 1.052c1.618.286 2.842-1.436 2.044-2.872-3.573-6.433-6.986-11.22-9.611-14.5 5.656 3.355 10.555 7.601 15.197-.993 5.687-9.42 1.755-25.281-5.393-25.281zM6.958 34.891c-1.387-1.1-2.797-2.955-3.739-5.538-1.265-5.716 16.099-3.067 21.827-1.943.003.15-.013.44.034.88-10.56 3.374-13.823 9.956-18.122 6.601zm9.9 13.289a2.992 2.992 0 00-.852.025c-5.895 1.036-6.194 1.162-6.07.937 5.207-9.374 10.047-15.172 12.547-17.865a31.66 31.66 0 013.093-1.177c.028.06.096.199.14.285-3.326 5.338-6.588 12.45-8.858 17.795zm8.188-26.824V25.5c-5.306-1.017-19.105-3.267-22.795.704C.72 18.107 4.047 9.334 8.105 9.334c5.255 0 13.89 4.754 18.057 8.573a5.874 5.874 0 00-1.116 3.45zm8.671 10.274c-.569.097-.784.042-2.763.058a4.055 4.055 0 01-3.805-2.698c.016-.234-.182-.759-.166-2.89.008-.992.02-2.491 0-4.747.002-1.88 1.187-2.714 1.355-3.062a4.014 4.014 0 012.616-.967c1.409.128 3.068-.429 4.701.967.167.345 1.355 1.187 1.355 3.058a575.39 575.39 0 00-.001 5.869c.019 1.388-.193 1.369-.165 1.772a4.072 4.072 0 01-3.127 2.64zm8.424 22.966a.133.133 0 01-.247-.032c-1.535-6.323-3.917-15.018-6.713-21.404a5.926 5.926 0 001.876-1.179c3.144 5.177 6.212 11.89 8.371 16.976-.74.68-1.151 1.974-3.287 5.64zm11.916-5.453a.077.077 0 01-.08.114c-6.145-1.038-6.078-1.162-6.841-1.077-2.271-5.344-5.532-12.456-8.86-17.795.034-.063.107-.212.14-.282 1.084.353 2.128.765 3.142 1.225 2.49 2.69 7.314 8.48 12.5 17.814z" fill="#3F3A3A"/></g><defs><clipPath id="sclip0_887:5872"><path fill="#fff" d="M0 0h64v64H0z"/></clipPath></defs></symbol><symbol fill="none" viewBox="0 0 26 69" id="icon-rocket" xmlns="http://www.w3.org/2000/svg"><path fill-rule="evenodd" clip-rule="evenodd" d="M7.16 2.083c2.627 4.836 4.478 9.912 6.687 14.748a.638.638 0 01-.179.298c-1.612.836-3.224 1.612-5.075 1.672-1.553.06-3.105.06-4.598-.06l-1.254-.179c-.119-.955.18-2.448 1.672-8.3.896-3.76 1.911-6.627 2.747-8.18zm-.537 37.915c.238-.12.298-.12.418-.18 3.104-.238 5.373-1.97 7.344-4.239.239-.239.418-.477.776-.895.12.656.239 1.194.358 1.672.06.358.06.716.18 1.014.417 1.016 0 1.792-.777 2.449-.537.417-1.075.895-1.672 1.253-1.672 1.015-3.403 1.792-5.254 2.448-.239.06-.478.12-.836.24-.418-1.195-.358-2.449-.537-3.762z" fill="#B03797"/><path fill-rule="evenodd" clip-rule="evenodd" d="M5.607 31.698c-.119-1.134-.298-2.15-.418-3.224.657-.478 1.314-.955 1.851-1.493.598-.537 1.195-1.075 1.732-1.672.537-.537.955-1.134 1.433-1.731.478-.597.955-1.254 1.373-1.91.418-.658.836-1.314 1.373-2.03.12.238.18.357.18.417.12.896.179 1.732.298 2.627.12.717-.06 1.314-.358 1.91a12.334 12.334 0 01-2.329 3.225C9.31 29.25 7.637 30.444 5.966 31.58c0 .12-.06.12-.359.12zM7.16 44.595c3.403-.836 6.329-2.269 8.896-4.717.18.896.358 1.672.538 2.389-1.135 2.15-2.866 3.582-5.076 4.478-.716.298-1.492.597-2.209.895-.537.24-1.015.06-1.493-.179-.179-.06-.298-.358-.358-.537-.179-.657-.358-1.433-.298-2.329z" fill="#73CDF4"/><path fill-rule="evenodd" clip-rule="evenodd" d="M6.145 35.937c-.12-1.134-.239-2.09-.418-3.045 3.045-2.03 5.97-4.06 7.822-7.404.12.24.239.418.239.538l.358 2.508c.06.477-.06.835-.299 1.253-.537.896-1.253 1.613-2.03 2.21a74.648 74.648 0 01-2.269 1.612 90.781 90.781 0 00-3.403 2.328z" fill="#B03797"/><path fill-rule="evenodd" clip-rule="evenodd" d="M6.264 36.773a206.182 206.182 0 003.762-2.448c1.612-1.015 3.164-2.09 4.299-3.702.358.657.358.657.478 1.433.179.836-.06 1.553-.538 2.21-1.731 2.448-4.12 3.94-6.926 4.836-.18.06-.418.06-.657.06-.358-.717-.358-1.493-.418-2.389z" fill="#73CDF4"/><path fill-rule="evenodd" clip-rule="evenodd" d="M5.07 27.28c-.12-.657-.18-1.254-.239-1.792 0-.06 0-.179.06-.238 1.791-1.612 2.03-1.314 3.88-5.374.598-.12 1.255-.18 1.911-.299.598-.119 1.135-.358 1.792-.537-1.374 2.747-5.434 7.344-7.404 8.24z" fill="#B03797"/><path fill-rule="evenodd" clip-rule="evenodd" d="M4.234 19.876h3.344c0 .239 0 .478-.06.657-.538 1.194-1.194 2.269-2.15 3.105l-.537.358c-.358-.836-.597-2.269-.597-4.12z" fill="#73CDF4"/><path fill-rule="evenodd" clip-rule="evenodd" d="M12.892 47.342c1.314-1.015 2.627-1.97 3.583-3.463.477.657.418 1.313.298 1.97 0 .18-.239.358-.477.418-.777.299-1.553.597-2.33.836-.298.12-.716.18-1.074.239z" fill="#B03797"/><path fill-rule="evenodd" clip-rule="evenodd" d="M17.012 42.267c-.418-1.613-.538-3.284-.836-4.897-.717-3.82-1.373-7.582-1.851-11.463-.239-2.27-.955-4.419-1.254-6.688 0-.06 0-.06-.06-.06.06-.06.12-.119.12-.179.06-.12.06-.239.06-.418.238 0 .477-.06.596-.298.598-1.314-1.134-4.18-1.612-5.374-1.313-3.284-2.627-6.926-4.657-9.732-.06-.12-.298-.06-.239.06 1.314 4.179 4.12 13.911 5.195 14.986-.657.12-1.553.776-1.97.956-1.493.537-3.941 1.253-5.434.358-.537-.299-1.015.358-.657.836 1.015 1.194 2.926 1.015 4.3.836 1.014-.18 2.328-.418 3.283-1.016-.179.717-.06 1.553.06 2.33l.896 7.701c.358 2.986.955 5.912 1.552 8.837.239 1.254.358 2.568.657 3.762.418 1.672.716 2.627-.418 4.06-.12.18-.06.478.179.478 1.552 0 2.329-.358 2.508-2.03.179-1.075-.18-2.15-.418-3.045z" fill="#88116F"/><path opacity=".6" fill-rule="evenodd" clip-rule="evenodd" d="M6.861 4.113c-.06-.358-.597-.299-.716 0-.776 2.568-1.254 5.195-2.03 7.702-.597 1.97-1.792 4.12-1.135 6.21.06.239.358.299.538.12 1.612-1.672 1.85-4.658 2.448-6.867.656-2.329 1.254-4.777.895-7.165z" fill="#fff"/><path opacity=".4" fill-rule="evenodd" clip-rule="evenodd" d="M7.638 34.684C7.1 30.743 6.264 26.922 5.727 22.98c-.06-.538-.836-.358-.896.12-.358 3.88.657 7.94 1.135 11.822.358 3.224-.18 7.821 1.612 10.687.18.299.537.18.657-.06 1.254-3.044-.18-7.702-.597-10.866z" fill="#fff"/><path fill-rule="evenodd" clip-rule="evenodd" d="M3.577 19.756a86.094 86.094 0 01-1.731-.358c-.18-.657-.06-1.194.06-1.731C2.98 12.532 3.995 7.397 6.025 2.5c.238-.597.417-1.254.835-1.732.597.06.776.418.956.836.656 1.373 1.433 2.747 2.03 4.18 1.194 2.687 2.328 5.314 3.523 8 .477 1.075 1.014 2.15 1.492 3.225.06.18.12.418.18.657-.359.179-.717.298-1.075.477-.06.18-.12.299-.06.418.12 1.314.239 2.628.418 3.941.836 5.792 1.731 11.524 2.627 17.256a40.6 40.6 0 00.418 2.627c.12.537.239 1.134.358 1.672.299 1.433.478 2.15-1.134 3.164l-.18.18c.06.656.359 1.194.657 1.671.478.836 1.135 1.374 2.15 1.314.179 0 .358 0 .537.06.956.12 1.672.597 2.03 1.492.24.478.418.956.597 1.493.18.418.418.657.896.657.18 0 .358 0 .537.06.717.119.836.477.359 1.194.298.477.597.955.836 1.373-.359.597-.657-.06-.956.06-.239.358.359.895-.358 1.194-.299-.358-.537-.776-.896-1.254-.298.418-.477.776-.776 1.194-.478-.895 0-1.552.06-2.269-.358-.955-.776-1.85-1.135-2.806-.298-.836-.895-1.254-1.79-1.314-.717-.06-1.434-.298-2.21-.477-.06.716.12 1.433.239 2.15a784.984 784.984 0 001.91 14.21v.657c0 .119-.179.238-.298.238-.12 0-.299 0-.358-.119-.24-.358-.478-.776-.538-1.194-.358-1.732-.716-3.463-.955-5.195-.537-4-1.015-8-1.493-11.941-.06-.657-.12-1.314-.179-2.03-.537.119-1.015.238-1.433.298-.836.18-1.731.418-2.567.537-.956.18-1.911.12-2.926-.06-.955-.178-1.373-.716-1.672-1.611-.657-2.508-.896-5.016-1.134-7.583-.299-2.747-.597-5.553-.956-8.3-.298-2.508-.656-5.015-.895-7.523-.12-1.254-.12-2.508-.12-3.822zM7.16 2.084c-.896 1.552-1.851 4.478-2.747 8.18-1.433 5.851-1.731 7.344-1.672 8.3l1.254.178c1.553.18 3.105.12 4.598.06 1.91-.06 3.463-.836 5.075-1.672.06-.06.06-.119.18-.298-2.15-4.836-4.001-9.912-6.688-14.748zm-.538 37.915c.18 1.313.12 2.567.478 3.88.358-.059.597-.119.836-.238 1.851-.657 3.582-1.433 5.254-2.448.597-.358 1.135-.836 1.672-1.254.776-.657 1.194-1.433.776-2.448-.119-.299-.119-.717-.179-1.015-.12-.478-.179-1.015-.358-1.672-.358.358-.537.657-.776.896-1.97 2.269-4.24 4-7.344 4.239-.06-.06-.12 0-.359.06zm-1.015-8.3c.24-.06.359-.06.418-.06a41.346 41.346 0 004.777-3.761c.955-.955 1.672-2.03 2.329-3.224.298-.597.477-1.194.358-1.911-.12-.896-.18-1.732-.299-2.627 0-.12-.12-.239-.179-.418-.477.776-.895 1.433-1.373 2.03-.478.657-.896 1.314-1.373 1.91a44.143 44.143 0 01-1.433 1.732c-.538.597-1.135 1.135-1.732 1.672-.597.537-1.254.955-1.85 1.493.059 1.015.238 2.09.357 3.164zM7.16 44.595c-.06.836.12 1.612.298 2.389.06.179.18.417.359.537.477.239.955.418 1.492.18.717-.3 1.493-.598 2.21-.897 2.209-.895 3.94-2.269 5.075-4.478-.18-.776-.299-1.492-.538-2.388-2.567 2.388-5.493 3.881-8.896 4.657zm-1.015-8.657c1.254-.896 2.388-1.613 3.463-2.389.776-.537 1.552-1.015 2.269-1.612.836-.597 1.492-1.373 2.03-2.21a1.8 1.8 0 00.298-1.253l-.358-2.508c0-.12-.12-.298-.239-.537-1.85 3.344-4.776 5.374-7.822 7.404.12 1.015.24 1.97.359 3.105zm.12.835c.059.896.059 1.672.417 2.448.239 0 .478 0 .657-.06 2.806-.895 5.194-2.388 6.926-4.836.478-.656.717-1.373.537-2.209-.179-.776-.119-.776-.477-1.433-1.135 1.612-2.687 2.687-4.3 3.702-1.253.776-2.447 1.553-3.76 2.388zM5.07 27.28c1.97-.896 6.09-5.493 7.344-8.24-.657.18-1.194.358-1.791.537-.657.12-1.314.24-1.91.299-1.852 4.06-2.03 3.762-3.882 5.374 0 .06-.06.179-.06.239.12.537.18 1.134.299 1.79zm-.836-7.404c0 1.85.239 3.284.597 4.12l.538-.358c.955-.896 1.612-1.97 2.149-3.105.06-.18.06-.418.06-.657H4.234zm8.658 27.466c.358-.06.716-.12 1.075-.239.776-.239 1.552-.537 2.328-.836.18-.06.418-.239.478-.418.12-.597.179-1.254-.299-1.97-.955 1.492-2.269 2.448-3.582 3.463zM5.13 56.239c-1.791-1.851-2.866-4.001-3.463-6.449-.299-1.075-.239-2.21-.06-3.284 0-.12.06-.239.18-.358.06-.06.179-.12.238-.06.06 0 .18.12.18.18.06.238.06.536.06.775 0 1.672.417 3.284 1.074 4.837.537 1.313 1.134 2.567 1.672 3.88 0 .18.06.359.12.479zm13.972-38.512a29.162 29.162 0 01-.836-2.03 23.532 23.532 0 00-2.03-4.3c-.12-.238-.299-.418-.358-.716-.06-.18-.06-.418-.06-.597.06-.18.418-.06.597.239 1.433 1.85 2.329 3.88 2.806 6.15.06.239.06.537.06.776 0 .12-.06.239-.06.358 0 .06-.06.12-.12.12zm.835-4.479c-.537-1.015-1.075-2.09-1.672-3.104-.06-.06 0-.18 0-.359.18 0 .359-.06.478 0 .896.896 1.552 1.97 1.493 3.344-.06 0-.18.06-.299.12zM1.726 54.865C.711 54.208.413 53.313.234 52.357c-.06-.179-.06-.418 0-.657.06-.119.239-.238.358-.298.06 0 .239.12.239.239.12.955.537 1.85.776 2.746.12.06.12.24.12.478z" fill="#3F3A3A"/></symbol><symbol fill="none" preserveAspectRatio="none" viewBox="0 0 360 40" id="icon-shape-hero-bottom" xmlns="http://www.w3.org/2000/svg"><path d="M360 0c-55.422 23.324-116.224 36.209-180 36.209C116.224 36.209 55.422 23.324 0 0v40h360V0z" fill="#fff"/><path d="M180 40c63.776 0 124.578-11.937 180-35.26V0c-55.422 23.324-116.224 36.209-180 36.209C116.224 36.209 55.422 23.324 0 0v2.085C55.422 25.41 116.224 40 180 40z" fill="#FFE6A4"/></symbol><symbol fill="none" preserveAspectRatio="none" viewBox="0 0 1024 102" id="icon-shape-top" xmlns="http://www.w3.org/2000/svg"><path d="M0 0c157.645 65.7 330.592 102 512 102 181.408 0 354.355-36.3 512-102H0z" fill="#fff"/></symbol><symbol fill="none" preserveAspectRatio="none" viewBox="0 0 360 40" id="icon-shape-yellow-bottom" xmlns="http://www.w3.org/2000/svg"><path d="M0 36.19C55.422 12.88 116.224 0 180 0c63.776 0 124.578 12.88 180 36.19V40H0v-3.81z" fill="#fff"/><path d="M180 0C116.224 0 55.422 12.88 0 36.19V40C55.422 16.69 116.224 2.476 180 2.476c63.776 0 124.578 11.356 180 34.667v-.953C304.578 12.88 243.776 0 180 0z" fill="#FFE6A4"/></symbol><symbol viewBox="0 0 22 12" id="icon-vk" xmlns="http://www.w3.org/2000/svg"><path d="M18.256 6.881c-.356-.42-.254-.607 0-.982.005-.004 2.94-3.798 3.243-5.085h.002c.15-.47 0-.814-.727-.814H18.37c-.613 0-.895.296-1.046.627 0 0-1.225 2.74-2.957 4.518-.56.513-.818.678-1.123.678-.15 0-.385-.165-.385-.634V.813c0-.562-.17-.813-.678-.813H8.398c-.384 0-.612.262-.612.507 0 .533.866.655.956 2.155v3.255c0 .713-.139.844-.446.844-.818 0-2.802-2.752-3.978-5.902C4.08.248 3.848 0 3.23 0H.825C.138 0 0 .297 0 .627 0 1.212.818 4.12 3.802 7.96c1.99 2.619 4.791 4.04 7.34 4.04 1.531 0 1.718-.315 1.718-.858 0-2.505-.138-2.741.63-2.741.355 0 .967.164 2.397 1.429C17.522 11.329 17.79 12 18.705 12h2.406c.685 0 1.033-.315.833-.938-.457-1.309-3.549-4-3.688-4.18z"/></symbol><symbol fill="none" viewBox="0 0 85 34" id="icon-yellow-mask" xmlns="http://www.w3.org/2000/svg"><path fill-rule="evenodd" clip-rule="evenodd" d="M16.307 7.788c0 .62-.124 1.18 0 1.614.434 1.677.497 3.354.683 5.03.31 3.043.931 5.961 1.677 8.942.434 1.739 1.428 3.043 3.042 3.912 1.428.745 2.919 1.366 4.595 1.18.683-.124 1.367-.248 1.988-.497 1.055-.372 2.049-.87 3.042-1.304.87-.372 1.739-.807 2.608-1.18 1.304-.558 2.919-.496 4.099.994a4.4 4.4 0 01.496.62c1.553 2.112 3.726 3.168 6.272 3.603 4.037.745 7.638-.249 10.991-2.484.994-.621 1.677-1.553 2.236-2.608.62-1.304 1.056-2.67 1.428-4.037a413.17 413.17 0 002.298-9.376c0-.124 0-.249.062-.373-.187-.248-.373-.062-.497 0-1.8 1.118-3.788 1.553-5.9 1.677-1.924.124-3.85.186-5.774.31a32.242 32.242 0 00-4.906.745c-1.739.435-3.229 1.304-4.347 2.733-.434.496-.993.993-1.49 1.428-.497.373-1.118.497-1.677.497-.683 0-1.366-.187-1.738-.932-.187-.31-.435-.559-.621-.87-1.242-2.048-3.167-3.414-5.279-4.408-2.36-1.118-4.843-2.05-7.451-2.422-1.552-.248-3.043-.807-4.223-1.863-.372-.496-.87-.745-1.614-.931zm38.251 13.289c-.31.993-.62 1.987-1.117 2.856-.683 1.056-1.429 2.05-2.67 2.484-.932.31-1.863.435-2.795.559-.372.062-.745 0-1.056-.124-.93-.31-1.8-.621-2.608-1.242-.372-.31-.745-.683-.993-1.118a1.198 1.198 0 01-.186-.621c.124-.497.248-1.118.558-1.552 1.801-2.298 3.975-3.788 7.08-3.168.31.063.62.063.93.187 1.057.31 2.05.745 2.857 1.739zm-23.472.993c-.435.497-.745.932-1.18 1.304-1.366 1.242-3.043 1.366-4.781 1.366-.249 0-.497-.186-.746-.31-1.614-1.056-2.918-2.36-3.353-4.347-.124-.559-.124-.993.31-1.366.435-.373.808-.807 1.305-.994 2.049-.745 4.036-.683 5.837.683 1.242.932 2.049 2.112 2.608 3.664z" fill="#FFCC49"/><path fill-rule="evenodd" clip-rule="evenodd" d="M49.715 27.721c-1.925.621-6.955-.559-6.644-3.229 0-.124.062-.124.186-.124.683.31 1.056.807 1.677 1.242.993.745 2.36 1.118 3.601 1.118 2.857.062 4.844-2.857 5.713-5.216.062-.125.31-.187.31 0 .621 2.98-2.36 5.402-4.843 6.21zm-25.584-2.67c-1.863-.497-3.663-2.856-3.85-4.781 0-.249.124-.435.31-.56 1.056-.62 1.491 1.864 1.801 2.36 1.74 2.919 5.217 2.236 7.638.56.187-.125.435.186.249.31-1.615 1.614-3.85 2.732-6.148 2.111z" fill="#E6AE00"/><path fill-rule="evenodd" clip-rule="evenodd" d="M21.027 25.237c2.856 4.285 7.637 1.615 11.301.31.807-.496 2.174-.62 2.919-.869.062 0 .124 0 .186-.062s.124-.124.186-.124c1.18-.31 1.925 0 2.981.87 2.235 1.863 4.285 3.229 7.141 4.098 5.527 1.677 11.612-2.919 13.661-7.638 0-.062.125-.062.187 0 .869 4.72-5.403 7.762-9.004 8.694-5.9 1.552-10.246-1.553-14.531-5.154-.435.186-1.056.31-1.242.372-.497.062-.931.248-1.428.373l-.062.062c-3.975 1.614-8.197 4.657-12.295 1.304-2.298-1.863-3.913-12.668-3.913-12.606 1.305 2.236 2.36 8.135 3.913 10.37z" fill="#E6AE00"/><path opacity=".6" fill-rule="evenodd" clip-rule="evenodd" d="M42.698 16.544c1.739-1.74 4.285-2.05 6.644-2.174 3.416-.186 6.707-.497 10.122-.931.248-.063.435.372.248.559-1.8 1.49-4.036 1.614-6.334 1.738-3.539.249-6.954.124-10.37 1.18-.31.062-.496-.248-.31-.372zm-23.721-6.086c4.285 1.366 10.619 1.056 13.289 5.402.186.31-.186.684-.497.497-2.36-1.242-4.284-2.235-6.955-2.794-2.36-.497-4.284-.994-6.023-2.732-.124-.187 0-.435.186-.373z" fill="#fff"/><path fill-rule="evenodd" clip-rule="evenodd" d="M72.629 15.178c.248.124.559.186.87.31 2.048.807 4.098.745 6.023-.186 2.98-1.428 4.781-3.788 5.278-7.08.124-.807.124-1.676-.124-2.483-.063-.31-.249-.497-.621-.435a.47.47 0 00-.125.249c.497 3.353-.807 5.899-3.353 7.948-1.552 1.242-3.353 1.677-5.278 1.428-.683-.062-1.366-.248-1.987-.745.186-.373.31-.745.497-1.118.31-.745.496-1.552.372-2.421-.186-1.056-.807-1.49-1.863-1.367-.62.062-1.18.249-1.676.621-.932.621-1.18 1.49-.683 2.484.248.497.683.994 1.055 1.428.187.187.435.373.683.621-.186.249-.372.497-.559.621-.869.808-1.862 1.366-2.98 1.739-.683.248-1.428.373-2.112.621-.807.248-1.676.497-2.483.807-.683.249-1.304.683-1.863 1.18-.187.186-.435.373-.87.745.063-.497.063-.807.125-1.117a219.781 219.781 0 011.614-6.831c.124-.621.124-1.18-.31-1.739a6.792 6.792 0 00-.683.373c-1.553 1.055-3.292 1.614-5.154 1.739-1.49.062-2.919.186-4.41.248-2.421.062-4.78.248-7.078.87-.808.185-1.615.496-2.36.806-1.118.497-2.05 1.242-2.732 2.236a9.02 9.02 0 01-.994 1.18c-.372.434-.931.559-1.49.62-.497 0-.87-.123-1.18-.558-.559-.807-1.18-1.553-1.739-2.298-.248-.31-.496-.683-.807-.931-1.18-.994-2.36-1.863-3.788-2.484-2.36-1.056-4.72-1.987-7.327-2.422-1.801-.31-3.478-.87-4.906-2.049a3.704 3.704 0 00-.931-.559c-.56-.248-1.18.062-1.242.683-.062.683-.062 1.428.062 2.05.434 1.614.372 3.29.496 4.905 0 .124-.062.248-.062.373-.186.248-.434.124-.683.124-.745 0-1.552-.062-2.297 0-.808.062-1.553.124-2.36.186a6.262 6.262 0 01-3.54-.87 11.31 11.31 0 01-4.408-4.47c-.56-1.056-.745-2.174-.87-3.291-.062-.373-.062-.746-.062-1.242-.248.186-.434.31-.496.434-.125.373-.249.808-.249 1.18-.124 1.366.249 2.67.87 3.85 1.303 2.298 3.104 3.974 5.526 4.968a7.253 7.253 0 003.23.559c.868-.062 1.738-.186 2.607-.248.621-.063 1.18-.125 1.801-.063.807.063 1.118.373 1.242 1.18.186.808.248 1.615.435 2.422.31 1.366.62 2.794.993 4.16.497 1.863 1.615 3.23 3.291 4.223 2.608 1.553 5.34 1.863 8.135.621a24.67 24.67 0 002.235-1.056c.994-.558 2.05-.993 3.105-1.428.745-.31 1.428-.372 2.112 0 .124.062.248.124.372.124.062.062.124.124.186.249 1.925 3.415 5.03 4.843 8.756 5.216 3.726.372 7.08-.621 10.184-2.608 1.118-.683 1.987-1.615 2.546-2.795.31-.558.62-1.117.807-1.738.435-1.615 1.49-2.795 2.484-4.099.559-.745 1.366-1.242 2.235-1.552.808-.248 1.615-.435 2.36-.745 1.056-.373 2.112-.621 3.105-1.118 1.118-.807 1.987-1.49 3.043-2.236zm-56.322-7.39c.745.186 1.242.435 1.615.807 1.18 1.118 2.67 1.615 4.222 1.863 2.608.435 5.092 1.304 7.452 2.422 2.111 1.056 4.036 2.36 5.278 4.409.186.31.435.559.62.87.373.682.995.869 1.74.93.62 0 1.242-.061 1.676-.496.56-.435 1.056-.87 1.49-1.428 1.18-1.366 2.609-2.236 4.347-2.733a21.8 21.8 0 014.906-.745c1.925-.124 3.85-.186 5.775-.31 2.111-.125 4.098-.56 5.9-1.677.123-.062.31-.248.496 0 0 .124 0 .248-.062.373-.745 3.104-1.49 6.271-2.298 9.376-.372 1.366-.745 2.733-1.428 4.037-.559 1.055-1.242 1.925-2.235 2.608-3.354 2.235-6.955 3.229-10.992 2.483-2.545-.434-4.719-1.49-6.271-3.601-.187-.248-.373-.435-.497-.621-1.118-1.428-2.732-1.553-4.098-.994-.87.373-1.74.808-2.609 1.18-.993.435-1.987.932-3.042 1.304-.621.249-1.304.373-1.987.497-1.677.248-3.167-.372-4.596-1.18-1.614-.87-2.608-2.111-3.042-3.912-.745-2.918-1.366-5.9-1.677-8.942-.186-1.676-.248-3.415-.683-5.03-.062-.31 0-.869 0-1.49zm56.011 5.837c-.807-.373-1.304-.931-1.676-1.614-.31-.621-.187-1.18.434-1.49a6.62 6.62 0 011.18-.435c.621-.125.994.124 1.056.745.062 1.055-.31 1.925-.994 2.794zM12.147 4.87c.745-.621 1.366-1.366 2.173-1.863.807-.497 1.739-.745 2.67-1.18-.186-.124-.248-.31-.434-.31-1.49-.249-4.16 1.366-4.471 2.918 0 .124.062.248.062.435zm46.075 28.936c.186-.062.373-.062.497-.186 1.304-.807 2.235-1.987 2.918-3.353.187-.31.249-.683 0-.994-.062 0-.248 0-.248.063-.87 1.614-2.05 2.98-3.353 4.284l.186.187zm4.533-3.291c-.62.932-1.242 1.863-1.925 2.857.87.062 1.18-.435 1.49-.932.373-.558.932-1.117.684-1.862 0 0-.124-.063-.248-.063zM11.029 3.255c.248-.186.434-.249.559-.435.496-.497 1.055-.993 1.552-1.552.062-.062 0-.249 0-.373 0-.062-.124-.124-.248-.124-.621 0-.932.497-1.304.87-.373.496-.746.93-.56 1.614z" fill="#3F3A3A"/><path fill-rule="evenodd" clip-rule="evenodd" d="M54.559 21.077c-.808-.994-1.801-1.428-2.857-1.801l-.931-.186c-3.105-.621-5.279.869-7.08 3.167-.31.434-.434.993-.558 1.552-.062.186 0 .497.186.621.31.373.621.807.994 1.118.745.62 1.676.931 2.608 1.242.31.124.745.186 1.055.124.932-.124 1.925-.248 2.795-.559 1.242-.373 2.049-1.366 2.67-2.484.497-.807.745-1.739 1.118-2.794zm-1.118.062c.062.683-.124 1.18-.31 1.677-.746 1.676-1.864 2.98-3.85 3.042-.125 0-.249.062-.435.062-1.615.124-3.105-.248-4.347-1.304-.373-.31-.497-.683-.31-1.117.31-.87.807-1.553 1.552-2.05 2.484-1.552 5.092-1.428 7.7-.31zm-22.355.931c-.559-1.552-1.366-2.732-2.546-3.663-1.8-1.429-3.788-1.49-5.837-.683-.497.186-.87.62-1.304.993-.435.373-.435.807-.31 1.366.434 1.987 1.738 3.291 3.353 4.347.248.124.496.31.745.31 1.738.063 3.415-.124 4.781-1.366.373-.372.683-.87 1.118-1.304zm-.931 0c-.249.249-.435.56-.684.683-1.055.745-2.36.994-3.601 1.18a1.17 1.17 0 01-.497-.124c-1.242-.621-2.111-1.553-2.856-2.67-.125-.186-.187-.435-.249-.621-.124-.435 0-.807.31-1.118.808-.745 1.677-1.242 2.795-1.18 1.18.062 2.111.497 2.919 1.304.745.683 1.366 1.428 1.862 2.546z" fill="#3F3A3A"/></symbol><symbol viewBox="0 0 20 16" id="icon-youtube" xmlns="http://www.w3.org/2000/svg"><path d="M19.543 2.498C20 4.28 20 8 20 8s0 3.72-.457 5.502c-.254.985-.997 1.76-1.938 2.022C15.896 16 10 16 10 16s-5.893 0-7.605-.476c-.945-.266-1.687-1.04-1.938-2.022C0 11.72 0 8 0 8s0-3.72.457-5.502c.254-.985.997-1.76 1.938-2.022C4.107 0 10 0 10 0s5.896 0 7.605.476c.945.266 1.687 1.04 1.938 2.022zM8 11.5L14 8 8 4.5v7z"/></symbol></svg>