<?xml version="1.0" encoding="utf-8"?><svg xmlns="http://www.w3.org/2000/svg" xmlns:xlink="http://www.w3.org/1999/xlink"><symbol fill="none" viewBox="0 0 162 156" id="hero-tablet-plate" xmlns="http://www.w3.org/2000/svg"><path d="M123.677 93.487c-6.562 24.491-31.748 38.943-56.133 32.409-24.49-6.562-38.942-31.748-32.408-56.133 6.562-24.49 31.747-38.943 56.133-32.409 24.518 6.458 38.97 31.643 32.408 56.133z" fill="#FFEBB7"/><path d="M135.479 96.65c-8.311 31.018-40.21 49.323-71.097 41.048-31.019-8.312-49.324-40.211-41.048-71.098 8.312-31.018 40.211-49.323 71.097-41.047 31.055 8.178 49.36 40.078 41.048 71.097z" fill="#FFEBB7"/><path d="M96.73 17.393C61.25 7.886 24.756 28.955 15.25 64.435c-4.515 16.85-2.225 33.84 5.26 48.185-5.818-13.45-7.426-28.799-3.331-44.08 9.506-35.479 46-56.548 81.479-47.041 18.734 5.02 33.424 17.593 41.725 33.502-7.872-17.925-23.35-32.168-43.654-37.608z" fill="#FFCC49"/><path d="M123.873 92.755c6.618-24.7-8.016-50.045-32.715-56.664-11.198-3-22.577-1.562-32.249 3.137a45.908 45.908 0 0126.956-.965c24.699 6.618 39.333 31.964 32.715 56.663-3.59 13.397-12.78 23.834-24.31 29.606 14.09-4.862 25.48-16.392 29.603-31.777z" fill="#FFCC49"/><path d="M84.14 126.753s.591-3.88 2.883-12.015c2.228-7.479 14.141-46.913 15.732-52.432.196-.733.392-1.465.379-2.254-.005-1.235-.192-2.632-1.448-2.968-4.29-1.15-11.974 14.964-15.847 26.49-3.874 11.525-2.465 24.69-4.163 31.863-1.698 7.172-3.504 11.4-3.504 11.4" fill="#fff"/><path d="M84.14 126.753s.591-3.88 2.883-12.015c2.229-7.479 14.141-46.913 15.732-52.432.197-.733.393-1.465.38-2.254-.006-1.235-.192-2.632-1.448-2.968-4.291-1.15-11.974 14.964-15.848 26.49-3.873 11.525-2.465 24.69-4.163 31.863-1.697 7.172-3.503 11.4-3.503 11.4m-20.2-5.412s6.61-28.852 6.897-30.346c.288-1.493 1.553-3.285 3.39-4.7 1.838-1.415 5.22-3.986 6.11-6.888l.055-.21 5.91-27.918m-11.721-3.14l-8.84 27.132-.056.21c-.681 2.958.857 6.848 1.845 9.02.989 2.171 1.084 4.328.587 5.765-.498 1.437-9.1 28.521-9.1 28.521" stroke="#3F3A3A" stroke-width="1.6" stroke-miterlimit="10" stroke-linecap="round" stroke-linejoin="round"/><path d="M57.724 121.348s6.609-28.852 6.897-30.345c.288-1.494 1.553-3.286 3.39-4.7l.078-.06c1.853-1.426 5.153-3.967 6.03-6.829l.057-.21 5.91-27.917c-2.66-.4-8.727-1.586-11.722-3.141l-8.84 27.133-.056.209c-.68 2.959.857 6.848 1.845 9.02.989 2.172 1.084 4.328.587 5.765-.497 1.438-9.1 28.522-9.1 28.522l4.924 2.553z" fill="#fff"/><path d="M64.81 77.49l7.516-28.049m-3.433 29.143l7.515-28.049m-7.794-2.312l-8.84 27.132-.056.21c-.68 2.958.857 6.847 1.845 9.02.989 2.171 1.084 4.328.587 5.765-.497 1.437-9.1 28.521-9.1 28.521" stroke="#3F3A3A" stroke-width="1.6" stroke-miterlimit="10" stroke-linecap="round" stroke-linejoin="round"/><path d="M32.961 78.715c.11-3.336.636-6.56 1.534-9.91 6.618-24.699 31.964-39.332 56.664-32.714 24.699 6.618 39.333 31.964 32.714 56.664-5.103 19.048-21.277 32.101-39.76 34.103m-5.941-.021c-2.708.059-7.795-.631-10.935-1.472-2.616-.701-6.92-2.64-9.368-3.969" stroke="#3F3A3A" stroke-width="1.6" stroke-miterlimit="10" stroke-linecap="round" stroke-linejoin="round"/><path d="M22.015 115.379c-8.685-14.89-11.665-33.076-6.87-50.972 9.507-35.48 46-56.549 81.48-47.042 35.479 9.507 56.548 46 47.042 81.479-4.908 18.315-16.979 32.804-32.469 41.217" stroke="#3F3A3A" stroke-width="1.6" stroke-miterlimit="10" stroke-linecap="round" stroke-linejoin="round"/><path d="M98.931 61.505s-8.09 12.19-11.314 24.227c-2.833 10.57-2.417 18.646-2.417 18.646l13.731-42.873z" fill="#FFCC49"/><path d="M96.384 65.983s-6.538 10.587-9.962 25.038" stroke="#3F3A3A" stroke-width="1.6" stroke-miterlimit="10" stroke-linecap="round" stroke-linejoin="round"/></symbol><symbol viewBox="0 0 8 6" id="icon-arrow" xmlns="http://www.w3.org/2000/svg"><path d="M4 5.333L.464 1.797 1.644.62 4 2.977 6.357.619l1.179 1.178L4 5.333z"/></symbol><symbol viewBox="0 0 14 14" id="icon-arrow-right" xmlns="http://www.w3.org/2000/svg"><path d="M10.477 6.167l-4.47-4.47L7.185.518 13.667 7l-6.482 6.482-1.178-1.179 4.47-4.47H.333V6.167h10.144z"/></symbol><symbol viewBox="0 0 16 19" id="icon-location" xmlns="http://www.w3.org/2000/svg"><path d="M13.303 12.803L8 18.107l-5.303-5.304a7.5 7.5 0 1110.606 0zM8 9.167a1.667 1.667 0 100-3.334 1.667 1.667 0 000 3.334z"/></symbol><symbol fill="none" viewBox="0 0 124 40" id="icon-logo" xmlns="http://www.w3.org/2000/svg"><path fill-rule="evenodd" clip-rule="evenodd" d="M85.865 21.157l-1.228-.5c-.424-.138-.829-.279-1.25-.414-.84-.269-1.753-.545-2.62-.808-1.667-.505-.865-.301-2.077.785-2.89 2.592-5.977-1.966-3.39-4.666.662-.69 1.595-.917 2.521-.684 1.148.289 1.44.755 2.246 1.353.539-.434 1.51-1.605 2.03-2.214.659-.77 1.444-1.487 2.06-2.33-.656-1.666-2.83-3.166-4.506-3.755-3.775-1.324-8.106-.459-10.241 4.591-.924 2.185-1.467 5.567-.97 8.641 1.112 6.897 8.503 10.855 14.103 5.735 1.127-1.03 2.894-3.523 3.322-5.734z" fill="#F27E00"/><path fill-rule="evenodd" clip-rule="evenodd" d="M96.975 10.109l.415 6.11-2.37.153-.281 4.338 2.556-.11c.168 3.125-.022 5.29 1.6 6.923 1.428 1.439 3.302 2.117 5.8 1.97.243-.381.887-2.785.948-3.375-2.691-.624-3.504-2.653-2.904-5.59.771-.303 3.482.095 4.486.057.163-.565-.329-3.908-.36-4.644l-4.31.28.995-6.237-6.575.125z" fill="#BCD800"/><path fill-rule="evenodd" clip-rule="evenodd" d="M87.189 28.911c1.309.101 2.87-.029 4.193-.017 1.214.01.889.407 1.195-3.115.116-1.328.734-7.393.672-8.167l-6.25-.314.19 11.613zm2.315-18.656c-4.076 1.125-2.214 6.83 1.6 5.757 3.885-1.092 2.233-6.815-1.6-5.757z" fill="#E10886"/><path fill-rule="evenodd" clip-rule="evenodd" d="M114.902 17.021l-1.927-6.183-7.247.63c.111.536 1.801 3.232 2.145 3.798l3.315 5.586c.822 1.381.823 1.136.762 2.29-.104 1.942-.265 4.218-.266 6.133l7.192.438c-.113-2.144-.329-4.323-.496-6.445-.187-2.378-.334-1.82.333-2.666L124 11.126l-6.901-1.1-2.197 6.995z" fill="#0093CB"/><path fill-rule="evenodd" clip-rule="evenodd" d="M42.905 29.152l.45-17.35-.042-1.147-4.602-.285-.026 6.279-3.875-8.006-5.988 2.01c-.258 1.688.096 18.114.343 18.5l6.004-.001-1.547-10.1.074-.276 4.94 10.374 4.269.002z" fill="#3C2B99"/><path fill-rule="evenodd" clip-rule="evenodd" d="M7.328 28.718l-.917-7.504 2.475-.213.971-6.443H5.89l.012-2.146 9.55.266.228-6.11L0 8.139l1.618 21.015 5.71-.435z" fill="#E10886"/><path fill-rule="evenodd" clip-rule="evenodd" d="M19.71 25.017c-.548-.14-1.006-.523-1.146-1.238-.11-.555-.038-2.173-.027-2.82.03-1.89.068-4.478.102-6.365l-.004-.009H12.27l-.025 3.178c-.015 1.923.081 3.977.331 5.42.926 5.351 3.898 6.022 7.134 5.93 3.237.092 6.209-.579 7.135-5.93.335-1.938.215-6.495.227-8.592l-6.286-.006-.004.01c.033 1.886.072 4.474.102 6.364.01.647.082 2.265-.027 2.82-.14.715-.598 1.098-1.147 1.238z" fill="#00A3D4"/><path fill-rule="evenodd" clip-rule="evenodd" d="M40.956 5.96c-.617.023-.887.313-.864.93.026.716 2.04 1.31 2.633 1.582.685.313 5.63 2.412 5.788 2.6.187.222 1.04 2.661 1.239 3.143 1.135 2.738 1.926 7.19 2.633 10.41.326 1.486.31 2.831 1.752 2.778.584-.021 1.175-.613 1.154-1.18-.018-.496-1.931-9.278-2.022-9.451l.705-.275c.176.644 3.206 5.643 3.932 6.974.375.689.822 1.847 1.783 1.812.636-.023 1.109-.536 1.22-1.068.118-.575-.338-1.166-.58-1.611-.544-1.005-1.123-1.989-1.686-2.973-1.05-1.838-2.467-3.973-3.237-6.03-.43-1.15-.844-2.194-1.275-3.353-.27-.727-.589-.968-.284-1.604.594-1.24 3.52-7.528 3.507-7.896-.016-.417-.428-.763-.866-.747-.786.028-1.166 1.465-1.441 2.07l-2.201 4.772c-.644 1.415-.353 1.113-1.907 1.695l-1.285.481c-.699.262-.65.407-1.296.106-.922-.43-7.252-3.17-7.402-3.164z" fill="#9D1DAC"/><path fill-rule="evenodd" clip-rule="evenodd" d="M51.858 6.04c-.05-1.383-1.092-2.356-2.36-2.31-2.069.077-2.945 2.568-1.52 3.938 1.458 1.403 3.951.317 3.88-1.627z" fill="#9D1DAC"/><path fill-rule="evenodd" clip-rule="evenodd" d="M57.203 4.826c.026.715 3.262 5.658 3.28 6.17.012.309-1.273 4.356-1.462 4.767-1.222 2.663-1.368 1.639.114 4.208l1.588-3.217.512.155c-.217 1.122-.366 2.504-.521 3.663-.046.343-.257 1.605-.19 1.821.18.57.645.8.676 1.636.017.468-.229.717-.382 1.033 1.165.507 1.374-.794 1.48-1.63.296-2.325.834-6.555 1.44-8.428 1.15-3.55.17-2.368 2.84-3.831.749-.41 1.464-.78 2.212-1.18.743-.398 2.048-.782 2.02-1.531-.034-.963-1.14-.384-1.542-.164l-5.015 2.62c-.202.008-2.137-.588-2.478-.69-.521-.154-1.058-1.483-1.332-1.986L59.266 6.09c-.268-.49-.804-1.908-1.427-1.885-.32.012-.646.331-.636.622z" fill="#E10886" stroke="#E10886" stroke-width=".216"/><path fill-rule="evenodd" clip-rule="evenodd" d="M61.707 8.435c.036.998.787 1.829 1.862 1.79.91-.034 1.706-.833 1.673-1.74l-.01-.298c-.029-.761-.82-1.528-1.852-1.49-.887.032-1.704.888-1.673 1.738zM55.765 22.79c.04 1.115 1.348 1.259 1.758.595l-1.21-1.992c-.07.36-.559 1.113-.548 1.398z" fill="#E10886"/><path fill-rule="evenodd" clip-rule="evenodd" d="M35.404 36.335h.41c.385 0 .672-.086.861-.261.191-.173.286-.426.286-.759 0-.335-.08-.582-.239-.742-.16-.16-.41-.24-.751-.24h-.567v2.002zm2.816-1.07c0 .726-.197 1.281-.593 1.666-.396.384-.959.576-1.688.576h-.535v2.399h-1.247v-6.744h1.878c.715 0 1.257.176 1.629.527.37.353.556.879.556 1.576zm5.2 4.64h-3.39v-6.743h3.388v1.171h-2.14v1.483h1.99v1.171h-1.99v1.738h2.14v1.18zm4.423-5.647c-.47 0-.832.201-1.09.606-.257.404-.386.968-.386 1.69 0 1.503.492 2.256 1.477 2.256.411 0 .913-.118 1.5-.356v1.2a3.69 3.69 0 01-1.617.346c-.856 0-1.51-.298-1.963-.893-.453-.595-.68-1.45-.68-2.562 0-.7.112-1.315.334-1.842.223-.527.543-.932.959-1.214.417-.281.906-.421 1.466-.421.572 0 1.144.159 1.721.475l-.402 1.162a6.418 6.418 0 00-.663-.314 1.742 1.742 0 00-.656-.133zm5.721 5.648h-1.247v-5.554H50.72v-1.19h4.441v1.19h-1.597v5.554zm8.377-3.38c0 1.117-.24 1.975-.724 2.575-.483.6-1.175.899-2.076.899s-1.593-.3-2.077-.899c-.483-.6-.724-1.46-.724-2.583 0-1.122.242-1.98.727-2.572.483-.592 1.178-.888 2.082-.888.904 0 1.596.298 2.074.894.479.597.718 1.455.718 2.574zm-4.293 0c0 .754.125 1.32.374 1.703.25.381.623.571 1.119.571.995 0 1.492-.758 1.492-2.274 0-1.52-.494-2.278-1.484-2.278-.497 0-.87.192-1.123.575-.252.382-.378.95-.378 1.703zm12.953 3.38h-1.243v-5.554h-2.165v5.554h-1.246v-6.744H70.6v6.744zm5.788 0l-.427-1.606h-2.146l-.425 1.606h-1.345l2.077-6.772h1.524l2.085 6.772h-1.343zm-.725-2.806a463.79 463.79 0 01-.667-2.468 7.617 7.617 0 01-.105-.452c-.09.394-.344 1.367-.761 2.92h1.532zm4.755-.765h.41c.385 0 .672-.086.862-.261.19-.173.285-.426.285-.759 0-.335-.08-.582-.239-.742-.159-.16-.41-.24-.75-.24h-.568v2.002zm2.816-1.07c0 .726-.198 1.282-.593 1.666-.395.383-.96.576-1.688.576h-.535v2.399h-1.247v-6.744h1.879c.714 0 1.256.176 1.628.527.371.353.556.879.556 1.576zm6.608 4.64h-1.416l-2.134-3.417v3.418h-1.247v-6.744h1.247v3.266l2.11-3.266h1.328L87.586 36.4l2.257 3.506z" fill="#971AAC"/></symbol><symbol viewBox="0 0 16 16" id="icon-phone" xmlns="http://www.w3.org/2000/svg"><path d="M15.5 11.683v2.947a.833.833 0 01-.775.832c-.364.025-.662.038-.892.038C6.47 15.5.5 9.53.5 2.167c0-.23.012-.528.038-.892A.833.833 0 011.37.5h2.947a.417.417 0 01.415.375c.019.192.036.344.053.46a11.58 11.58 0 001.007 3.334.38.38 0 01-.123.473L3.871 6.427a10.872 10.872 0 005.703 5.703l1.284-1.795a.385.385 0 01.477-.124c1.054.5 2.178.84 3.333 1.004.116.017.269.035.459.053a.417.417 0 01.374.415H15.5z"/></symbol></svg>