<svg width="1024" height="191" fill="none" xmlns="http://www.w3.org/2000/svg"><path d="M1024 161.165c-16.8-11.977-22.97-14.871-45.184-14.871-3.251 0-6.502 0-9.211.544 1.083-8.166 2.167-16.332 2.167-24.498C971.772 39.045 904.584 0 821.682 0c-49.308 0-92.655 23.41-119.747 60.43-12.462-3.267-26.008-5.445-40.096-5.445-5.96 0-11.379.545-16.797 1.09C623.91 38.652 597.36 28.308 568.1 28.308c-34.136 0-65.021 14.155-86.694 37.02-13.004-19.599-34.678-32.12-59.603-32.12-39.554 0-70.981 32.12-70.981 71.318 0 3.266 0 5.988.542 8.71-1.084.272-2.168.681-3.251 1.089-1.084.408-2.168.817-3.251 1.089-13.005-8.166-27.634-12.522-43.889-12.522-31.969 0-59.061 17.966-73.149 44.098-25.466-50.086-77.483-84.384-137.628-84.384-33.648 0-64.808 10.866-90.196 29.297V176h1024v-14.835z" fill="#B7E2F4"/><path d="M1024 176.165c-16.8-11.977-22.97-14.871-45.184-14.871-3.251 0-6.502 0-9.211.544 1.083-8.166 2.167-16.332 2.167-24.498 0-83.295-67.188-122.34-150.09-122.34-49.308 0-92.655 23.41-119.747 60.43-12.462-3.267-26.008-5.445-40.096-5.445-5.96 0-11.379.545-16.797 1.09C623.91 53.652 597.36 43.308 568.1 43.308c-34.136 0-65.021 14.155-86.694 37.02-13.004-19.599-34.678-32.12-59.603-32.12-39.554 0-70.981 32.12-70.981 71.318 0 3.266 0 5.988.542 8.71-1.084.272-2.168.681-3.251 1.089-1.084.408-2.168.817-3.251 1.089-13.005-8.166-27.634-12.522-43.889-12.522-31.969 0-59.061 17.966-73.149 44.098-25.466-50.086-77.483-84.384-137.628-84.384-33.648 0-64.808 10.866-90.196 29.297V191h1024v-14.835z" fill="#73CDF4"/></svg>