<svg width="1440" height="268" fill="none" xmlns="http://www.w3.org/2000/svg"><path d="M1440 227.097c-23.62-16.877-32.3-20.956-63.54-20.956-4.57 0-9.14 0-12.95.767 1.52-11.507 3.04-23.013 3.04-34.52C1366.55 55.018 1272.07 0 1155.49 0c-69.34 0-130.3 32.986-168.394 85.15-17.525-4.602-36.574-7.67-56.385-7.67-8.382 0-16.001.767-23.621 1.534-29.717-24.548-67.053-39.123-108.199-39.123-48.004 0-91.436 19.945-121.914 52.164-18.287-27.617-48.766-45.26-83.816-45.26-55.624 0-99.818 45.26-99.818 100.493 0 4.602 0 8.438.762 12.274-1.524.383-3.048.958-4.571 1.534-1.524.575-3.048 1.151-4.572 1.534-18.287-11.507-38.86-17.644-61.719-17.644-44.956 0-83.054 25.315-102.865 62.137-35.813-70.575-108.961-118.904-193.54-118.904C79.521 88.22 35.702 103.53 0 129.501V248h1440v-20.903z" fill="#B9E6FA"/><path d="M1440 247.097c-23.62-16.877-32.3-20.956-63.54-20.956-4.57 0-9.14 0-12.95.767 1.52-11.507 3.04-23.013 3.04-34.52C1366.55 75.018 1272.07 20 1155.49 20c-69.34 0-130.3 32.986-168.394 85.151-17.525-4.603-36.574-7.671-56.385-7.671-8.382 0-16.001.767-23.621 1.534-29.717-24.548-67.053-39.123-108.199-39.123-48.004 0-91.436 19.945-121.914 52.164-18.287-27.617-48.766-45.26-83.816-45.26-55.624 0-99.818 45.26-99.818 100.493 0 4.602 0 8.438.762 12.274-1.524.383-3.048.958-4.571 1.534-1.524.575-3.048 1.151-4.572 1.534-18.287-11.507-38.86-17.644-61.719-17.644-44.956 0-83.054 25.315-102.865 62.137-35.813-70.575-108.961-118.904-193.54-118.904-47.317 0-91.136 15.311-126.838 41.282V268h1440v-20.903z" fill="#73CDF4"/></svg>