<svg width="360" height="68" fill="none" xmlns="http://www.w3.org/2000/svg"><path d="M360 56.774c-5.905-4.219-8.075-5.239-15.885-5.239-1.143 0-2.286 0-3.238.192.381-2.877.762-5.753.762-8.63C341.639 13.754 318.018 0 288.873 0c-17.335 0-32.574 8.247-42.099 21.288-4.381-1.151-9.144-1.918-14.096-1.918-2.096 0-4.001.192-5.905.383-7.43-6.137-16.764-9.78-27.05-9.78-12.001 0-22.859 4.986-30.479 13.04C164.672 16.11 157.053 11.7 148.29 11.7c-13.906 0-24.954 11.315-24.954 25.123 0 1.15 0 2.11.19 3.068-.381.096-.762.24-1.143.384-.381.144-.762.288-1.143.383-4.571-2.876-9.715-4.41-15.429-4.41-11.24 0-20.764 6.328-25.717 15.534-8.953-17.644-27.24-29.726-48.384-29.726-11.83 0-22.785 3.828-31.71 10.32V62h360v-5.226z" fill="#B7E2F4"/><path d="M360 62.774c-5.905-4.219-8.075-5.239-15.885-5.239-1.143 0-2.286 0-3.238.192.381-2.877.762-5.753.762-8.63C341.639 19.754 318.018 6 288.873 6c-17.335 0-32.574 8.247-42.099 21.288-4.381-1.151-9.144-1.918-14.096-1.918-2.096 0-4.001.192-5.905.383-7.43-6.137-16.764-9.78-27.05-9.78-12.001 0-22.859 4.986-30.479 13.04C164.672 22.11 157.053 17.7 148.29 17.7c-13.906 0-24.954 11.315-24.954 25.123 0 1.15 0 2.11.19 3.068-.381.096-.762.24-1.143.384-.381.144-.762.288-1.143.383-4.571-2.876-9.715-4.41-15.429-4.41-11.24 0-20.764 6.328-25.717 15.534-8.953-17.644-27.24-29.726-48.384-29.726-11.83 0-22.785 3.828-31.71 10.32V68h360v-5.226z" fill="#73CDF4"/></svg>