<svg width="768" height="142" fill="none" xmlns="http://www.w3.org/2000/svg"><path d="M768 120.874c-12.598-8.983-17.226-11.154-33.888-11.154-2.438 0-4.877 0-6.908.409.812-6.125 1.625-12.25 1.625-18.374C728.829 29.284 678.438 0 616.261 0c-36.98 0-69.491 17.557-89.81 45.322-9.346-2.45-19.506-4.083-30.072-4.083-4.47 0-8.534.408-12.598.817-15.848-13.066-35.761-20.824-57.706-20.824-25.602 0-48.765 10.616-65.021 27.765-9.753-14.7-26.008-24.09-44.702-24.09-29.665 0-53.236 24.09-53.236 53.488 0 2.45 0 4.491.407 6.533-.813.204-1.626.51-2.438.817-.813.306-1.626.612-2.439.816-9.753-6.124-20.725-9.39-32.917-9.39-23.976 0-44.295 13.473-54.861 33.072-19.1-37.564-58.113-63.288-103.22-63.288-25.237 0-48.607 8.15-67.648 21.973V132h768v-11.126z" fill="#B7E2F4"/><path d="M768 130.874c-12.598-8.983-17.226-11.154-33.888-11.154-2.438 0-4.877 0-6.908.409.812-6.125 1.625-12.25 1.625-18.374C728.829 39.284 678.438 10 616.261 10c-36.98 0-69.491 17.557-89.81 45.322-9.346-2.45-19.506-4.083-30.072-4.083-4.47 0-8.534.408-12.598.817-15.848-13.066-35.761-20.824-57.706-20.824-25.602 0-48.765 10.616-65.021 27.765-9.753-14.7-26.008-24.09-44.702-24.09-29.665 0-53.236 24.09-53.236 53.488 0 2.45 0 4.491.407 6.533-.813.204-1.626.51-2.438.817-.813.306-1.626.612-2.439.816-9.753-6.124-20.725-9.39-32.917-9.39-23.976 0-44.295 13.473-54.861 33.072-19.1-37.564-58.113-63.288-103.22-63.288-25.237 0-48.607 8.15-67.648 21.973V142h768v-11.126z" fill="#73CDF4"/></svg>