<svg width="71" height="71" fill="none" xmlns="http://www.w3.org/2000/svg"><mask id="mask0_885:5658" style="mask-type:alpha" maskUnits="userSpaceOnUse" x="10" y="10" width="51" height="51"><circle r="25" transform="scale(-1 1) rotate(45 -60.355 -25)" fill="#B03797"/></mask><g mask="url(#mask0_885:5658)" fill="#B03797"><path d="M39.952 4.596L-13.08 57.63l1.06 1.06L41.014 5.658zM35.709.354l-53.033 53.033 1.06 1.06L36.77 1.414zm8.485 8.485L-8.839 61.872l1.06 1.06L45.256 9.9zm4.243 4.243L-4.596 66.115l1.06 1.06 53.034-53.033zm4.243 4.242L-.353 70.357l1.06 1.06L53.74 18.386zm4.243 4.243L3.89 74.6l1.06 1.06 53.034-53.032zm4.242 4.243L8.132 78.841l1.06 1.061L62.227 26.87zm4.243 4.242L12.375 83.085l1.06 1.06 53.033-53.032zm4.242 4.243L16.617 87.328l1.061 1.06 53.033-53.033z"/></g></svg>