<svg width="80" height="45" fill="none" xmlns="http://www.w3.org/2000/svg"><g filter="url(#filter0_d_913_9358)"><ellipse cx="40" cy="20" rx="40" ry="20" fill="#fff"/></g><path fill-rule="evenodd" clip-rule="evenodd" d="M51.546 20.237l-.594-.242c-.206-.067-.401-.135-.605-.2-.406-.13-.848-.264-1.268-.39-.806-.245-.419-.147-1.005.38-1.398 1.253-2.892-.953-1.64-2.259.32-.333.772-.444 1.22-.33.555.139.696.364 1.087.654.26-.21.73-.777.982-1.071.319-.373.699-.72.997-1.128-.318-.806-1.37-1.532-2.18-1.816-1.827-.641-3.923-.223-4.956 2.22-.447 1.058-.71 2.694-.47 4.182.539 3.337 4.115 5.253 6.825 2.775.545-.499 1.4-1.705 1.607-2.775z" fill="#F27E00"/><path fill-rule="evenodd" clip-rule="evenodd" d="M56.923 14.891l.2 2.957-1.146.074-.136 2.099 1.237-.053c.081 1.512-.011 2.56.774 3.35.69.695 1.598 1.024 2.806.952.118-.184.43-1.347.46-1.632-1.303-.302-1.697-1.284-1.406-2.706.373-.146 1.685.047 2.17.028.08-.273-.158-1.89-.174-2.247l-2.085.135.481-3.017-3.181.06z" fill="#BCD800"/><path fill-rule="evenodd" clip-rule="evenodd" d="M52.186 23.99c.634.048 1.389-.015 2.03-.009.587.005.43.197.578-1.508.056-.642.355-3.577.325-3.951l-3.024-.152.091 5.62zm1.12-9.028c-1.972.544-1.07 3.305.775 2.786 1.88-.529 1.08-3.298-.775-2.786z" fill="#E10886"/><path fill-rule="evenodd" clip-rule="evenodd" d="M65.596 18.236l-.932-2.992-3.507.305c.054.259.872 1.564 1.038 1.838l1.604 2.702c.398.669.398.55.369 1.108-.05.94-.128 2.041-.129 2.968l3.48.212c-.054-1.037-.16-2.092-.24-3.118-.09-1.151-.161-.88.161-1.29L70 15.382l-3.34-.532-1.063 3.385z" fill="#0093CB"/><path fill-rule="evenodd" clip-rule="evenodd" d="M30.76 24.106l.218-8.395-.02-.555-2.227-.139-.013 3.039-1.875-3.874-2.897.972c-.125.818.046 8.766.166 8.952h2.905l-.748-4.887.035-.134 2.39 5.02h2.066z" fill="#3C2B99"/><path fill-rule="evenodd" clip-rule="evenodd" d="M13.546 23.896l-.444-3.63 1.198-.104.47-3.118h-1.92l.006-1.038 4.62.129.111-2.957-7.587.76.783 10.168 2.763-.21z" fill="#E10886"/><path fill-rule="evenodd" clip-rule="evenodd" d="M19.54 22.105a.727.727 0 01-.556-.6c-.053-.267-.018-1.05-.013-1.363.015-.915.034-2.167.05-3.08l-.002-.005h-3.08l-.012 1.538c-.007.93.04 1.924.16 2.623.448 2.589 1.886 2.913 3.452 2.869 1.566.044 3.004-.28 3.452-2.87.163-.937.104-3.142.11-4.157l-3.041-.003-.002.005c.016.913.035 2.165.05 3.08.004.313.039 1.096-.014 1.364a.727.727 0 01-.555.6z" fill="#00A3D4"/><path fill-rule="evenodd" clip-rule="evenodd" d="M29.817 12.884c-.298.011-.429.152-.418.45.013.347.987.634 1.274.765.332.152 2.725 1.167 2.8 1.258.091.108.504 1.288.6 1.521.55 1.325.932 3.48 1.274 5.037.158.72.15 1.37.848 1.345.283-.01.569-.297.559-.572-.009-.24-.935-4.489-.979-4.573l.341-.133c.086.312 1.552 2.73 1.903 3.375.181.333.398.894.863.877.307-.012.536-.26.59-.517.057-.278-.164-.564-.28-.78-.264-.486-.544-.962-.816-1.438-.509-.89-1.194-1.923-1.567-2.918-.208-.556-.408-1.061-.617-1.622-.13-.352-.285-.468-.137-.776.287-.6 1.703-3.643 1.697-3.821-.008-.202-.207-.37-.42-.362-.38.014-.564.71-.697 1.002l-1.065 2.31c-.311.684-.17.538-.922.82-.204.075-.404.15-.622.232-.338.127-.315.197-.627.051-.446-.208-3.51-1.533-3.582-1.53z" fill="#9D1DAC"/><path fill-rule="evenodd" clip-rule="evenodd" d="M35.09 12.923c-.024-.67-.528-1.14-1.141-1.118-1.001.037-1.425 1.243-.736 1.905.706.68 1.912.154 1.878-.787z" fill="#9D1DAC"/><path fill-rule="evenodd" clip-rule="evenodd" d="M37.68 12.335c.013.346 1.578 2.738 1.587 2.986.005.15-.616 2.107-.708 2.306-.591 1.289-.662.793.055 2.037l.769-1.557.248.075c-.105.543-.178 1.211-.253 1.772-.022.166-.124.777-.091.881.087.276.312.388.327.792.008.227-.111.347-.185.5.563.245.665-.384.716-.789.143-1.125.403-3.172.697-4.078.556-1.718.082-1.146 1.374-1.854.362-.198.708-.377 1.07-.57.36-.193.991-.379.978-.742-.017-.465-.552-.185-.747-.079l-2.426 1.268c-.098.004-1.034-.285-1.2-.334-.251-.075-.51-.717-.644-.96-.19-.35-.374-.686-.57-1.043-.129-.237-.388-.923-.69-.912-.154.006-.312.16-.307.301z" fill="#E10886" stroke="#E10886" stroke-width=".144"/><path fill-rule="evenodd" clip-rule="evenodd" d="M39.86 14.082c.018.482.38.884.901.865.44-.016.826-.402.81-.84l-.005-.146c-.014-.368-.396-.739-.896-.72-.43.015-.825.43-.81.84zm-2.88 6.946c.02.539.653.608.851.287l-.585-.964c-.034.175-.27.539-.266.677z" fill="#E10886"/><path fill-rule="evenodd" clip-rule="evenodd" d="M27.13 27.581h.2c.185 0 .324-.041.416-.126.092-.084.138-.206.138-.367 0-.162-.038-.282-.115-.36-.077-.077-.198-.116-.364-.116h-.274v.97zm1.364-.517c0 .35-.096.62-.288.805-.19.186-.463.28-.816.28h-.26v1.16h-.603v-3.263h.91c.345 0 .607.085.787.255.18.17.27.425.27.763zm2.515 2.245h-1.64v-3.263h1.64v.567h-1.036v.717h.964v.567h-.964v.84h1.036v.572zm2.14-2.733a.591.591 0 00-.527.293c-.124.196-.186.469-.186.818 0 .728.237 1.092.714 1.092.2 0 .442-.057.726-.172v.58a1.785 1.785 0 01-.783.168c-.414 0-.73-.144-.95-.432-.218-.288-.328-.702-.328-1.24 0-.34.054-.636.161-.892.108-.255.263-.45.464-.587.202-.136.439-.204.71-.204.276 0 .553.077.833.23l-.195.562a3.095 3.095 0 00-.321-.151.843.843 0 00-.317-.065zm2.769 2.733h-.603v-2.687h-.773v-.576h2.149v.576h-.773v2.687zm4.053-1.636c0 .541-.116.956-.35 1.247-.234.29-.569.435-1.005.435-.436 0-.77-.145-1.004-.435-.234-.29-.35-.707-.35-1.25s.116-.958.35-1.245c.235-.286.571-.43 1.008-.43.438 0 .772.145 1.004.433.232.289.347.704.347 1.245zm-2.077 0c0 .365.06.64.18.825.122.184.302.276.542.276.482 0 .723-.367.723-1.1 0-.735-.24-1.103-.719-1.103a.609.609 0 00-.543.278c-.122.186-.183.46-.183.825zm6.267 1.636h-.601v-2.687h-1.047v2.687h-.604v-3.263h2.252v3.263zm2.801 0l-.207-.777h-1.038l-.206.777h-.65l1.005-3.277h.737l1.009 3.277h-.65zm-.35-1.358c-.192-.703-.3-1.102-.323-1.194a3.7 3.7 0 01-.051-.218c-.044.19-.166.66-.368 1.412h.741zm2.3-.37h.199c.186 0 .325-.041.416-.126.093-.084.139-.206.139-.367 0-.162-.039-.282-.116-.36-.077-.077-.199-.116-.363-.116h-.275v.97zm1.363-.517c0 .35-.096.62-.287.805-.191.186-.465.28-.817.28h-.259v1.16h-.603v-3.263h.909c.345 0 .608.085.788.255.18.17.269.425.269.763zm3.197 2.245h-.685l-1.032-1.654v1.654h-.604v-3.263h.604v1.58l1.02-1.58h.643l-1.038 1.567 1.092 1.696z" fill="#971AAC"/><defs><filter id="filter0_d_913_9358" x="0" y="0" width="80" height="45" filterUnits="userSpaceOnUse" color-interpolation-filters="sRGB"><feFlood flood-opacity="0" result="BackgroundImageFix"/><feColorMatrix in="SourceAlpha" values="0 0 0 0 0 0 0 0 0 0 0 0 0 0 0 0 0 0 127 0" result="hardAlpha"/><feOffset dy="5"/><feComposite in2="hardAlpha" operator="out"/><feColorMatrix values="0 0 0 0 0.690196 0 0 0 0 0.215686 0 0 0 0 0.592157 0 0 0 0.1 0"/><feBlend in2="BackgroundImageFix" result="effect1_dropShadow_913_9358"/><feBlend in="SourceGraphic" in2="effect1_dropShadow_913_9358" result="shape"/></filter></defs></svg>